<?xml version="1.0" encoding="UTF-8" standalone="no"?>
<!-- Created with Inkscape (http://www.inkscape.org/) -->

<svg
   xmlns:dc="http://purl.org/dc/elements/1.1/"
   xmlns:cc="http://creativecommons.org/ns#"
   xmlns:rdf="http://www.w3.org/1999/02/22-rdf-syntax-ns#"
   xmlns:svg="http://www.w3.org/2000/svg"
   xmlns="http://www.w3.org/2000/svg"
   xmlns:sodipodi="http://sodipodi.sourceforge.net/DTD/sodipodi-0.dtd"
   xmlns:inkscape="http://www.inkscape.org/namespaces/inkscape"
   width="32"
   height="32"
   id="svg3858"
   version="1.1"
   inkscape:version="0.91 r13725"
   sodipodi:docname="Holo_HUD.svg"
   inkscape:export-filename="C:\git\vwf\public\mars-game\assets\images\hud\hud_2\objective_alert.png"
   inkscape:export-xdpi="90"
   inkscape:export-ydpi="90">
  <defs
     id="defs3860" />
  <sodipodi:namedview
     id="base"
     pagecolor="#000000"
     bordercolor="#939393"
     borderopacity="1"
     inkscape:pageopacity="0"
     inkscape:pageshadow="2"
     inkscape:zoom="1.6405748"
     inkscape:cx="21.42305"
     inkscape:cy="-31.682857"
     inkscape:document-units="px"
     inkscape:current-layer="layer1"
     showgrid="false"
     inkscape:window-width="1920"
     inkscape:window-height="1018"
     inkscape:window-x="1352"
     inkscape:window-y="-8"
     inkscape:window-maximized="1"
     fit-margin-top="0"
     fit-margin-left="0"
     fit-margin-right="0"
     fit-margin-bottom="0">
    <inkscape:grid
       type="xygrid"
       id="grid3866"
       empspacing="5"
       visible="true"
       enabled="true"
       snapvisiblegridlinesonly="true"
       originx="-268.26845"
       originy="-1072.8461" />
  </sodipodi:namedview>
  <metadata
     id="metadata3863">
    <rdf:RDF>
      <cc:Work
         rdf:about="">
        <dc:format>image/svg+xml</dc:format>
        <dc:type
           rdf:resource="http://purl.org/dc/dcmitype/StillImage" />
        <dc:title></dc:title>
      </cc:Work>
    </rdf:RDF>
  </metadata>
  <g
     inkscape:label="Layer 1"
     inkscape:groupmode="layer"
     id="layer1"
     transform="translate(-268.26845,52.483861)">
    <path
       style="color:#000000;font-style:normal;font-variant:normal;font-weight:normal;font-stretch:normal;font-size:medium;line-height:normal;font-family:sans-serif;text-indent:0;text-align:start;text-decoration:none;text-decoration-line:none;text-decoration-style:solid;text-decoration-color:#000000;letter-spacing:normal;word-spacing:normal;text-transform:none;direction:ltr;block-progression:tb;writing-mode:lr-tb;baseline-shift:baseline;text-anchor:start;white-space:normal;clip-rule:nonzero;display:inline;overflow:visible;visibility:visible;opacity:1;isolation:auto;mix-blend-mode:normal;color-interpolation:sRGB;color-interpolation-filters:linearRGB;solid-color:#000000;solid-opacity:1;fill:#d7f8ff;fill-opacity:1;fill-rule:nonzero;stroke:none;stroke-width:3;stroke-linecap:butt;stroke-linejoin:miter;stroke-miterlimit:4;stroke-dasharray:none;stroke-dashoffset:0;stroke-opacity:1;color-rendering:auto;image-rendering:auto;shape-rendering:auto;text-rendering:auto;enable-background:accumulate"
       d="m 402.95703,156.03711 c -1.90289,0 -3.31539,0.0222 -4.51758,0.25586 -1.20219,0.23368 -2.34563,0.82725 -2.95507,1.85547 -0.60945,1.02822 -0.69253,2.14931 -0.7129,3.49804 -0.0204,1.34874 0.0644,2.98604 0.11133,5.10743 -8.8e-4,1.4315 -0.0439,2.41316 0.006,3.22656 0.0251,0.41088 0.061,0.79414 0.24219,1.24414 0.1812,0.45 0.63131,0.9717 1.13867,1.19141 1.01472,0.4394 1.64079,0.18202 2.48828,0.0488 0.84749,-0.1332 1.92193,-0.31894 3.42969,-0.44141 0.40042,-0.0325 0.6484,0.0514 0.99414,0.33594 0.34574,0.28454 0.73713,0.81366 1.06836,1.55078 0.66247,1.47424 1.06329,3.71872 1.06836,5.96679 0.005,2.24808 -0.38372,4.51729 -1.05078,6.04688 -0.33353,0.76479 -0.73304,1.33089 -1.10156,1.6543 -0.36853,0.3234 -0.65517,0.43431 -1.06836,0.42578 -1.48701,-0.0307 -2.50188,-0.20548 -3.26172,-0.36524 -0.75984,-0.15975 -1.13194,-0.49566 -2.23242,-0.24414 -0.55025,0.12577 -1.16758,0.70043 -1.36329,1.16602 -0.1957,0.46559 -0.21604,0.8175 -0.24414,1.21875 -0.0562,0.80249 -0.0427,1.83384 -0.11132,3.46875 l -0.002,0.0312 0,0.0312 c 0,2.00122 -0.0827,3.58344 -0.084,4.9082 -10e-4,1.32477 0.0297,2.43468 0.5664,3.5 0.53666,1.06533 1.67497,1.77552 2.91211,2.04297 1.23715,0.26745 2.70514,0.2868 4.71875,0.23438 l 28.26368,0 c 1.90289,0 3.31538,-0.0241 4.51757,-0.25782 1.2022,-0.23368 2.34564,-0.82725 2.95508,-1.85547 0.60945,-1.02821 0.69253,-2.14931 0.71289,-3.49804 0.0204,-1.34873 -0.0663,-2.98604 -0.11328,-5.10742 l 0.002,0.0332 c 0,-1.4019 -0.0221,-2.30236 0,-2.85938 0.15624,0.004 0.0108,0.0176 0.40821,0.0801 0.80803,0.127 2.01411,0.33568 3.65234,0.46875 1.17258,0.0952 2.3061,-0.32168 3.14453,-1.01172 0.83843,-0.69004 1.43443,-1.60847 1.89649,-2.63672 0.92411,-2.0565 1.32622,-4.61306 1.33203,-7.18945 0.006,-2.57639 -0.3867,-5.15594 -1.30078,-7.25195 -0.45705,-1.04801 -1.04799,-1.98862 -1.8711,-2.71094 -0.82311,-0.72232 -1.92783,-1.19627 -3.10937,-1.17187 -1.70246,0.0351 -2.95829,0.25081 -3.81836,0.43164 -0.22232,0.0467 -0.0715,0.043 -0.24414,0.0664 -0.0238,-0.60631 -0.033,-1.41408 -0.0899,-2.80469 0,-2.00122 0.0827,-3.58344 0.084,-4.90821 10e-4,-1.32476 -0.0317,-2.43272 -0.56836,-3.49804 -0.53665,-1.06533 -1.67496,-1.77747 -2.91211,-2.04492 -1.23715,-0.26746 -2.70318,-0.28485 -4.7168,-0.23243 l -28.26367,0 z m 0,3 28.32227,0 0.0195,0 c 1.93852,-0.0505 3.26943,0.007 4.00586,0.16602 0.73642,0.1592 0.74848,0.22529 0.86719,0.46093 0.1187,0.23565 0.24727,0.9512 0.24609,2.14649 -10e-4,1.19528 -0.084,2.82747 -0.084,4.91015 l 0,0.0332 0,0.0312 c 0.0687,1.63491 0.0551,2.66431 0.11133,3.4668 0.0281,0.40124 0.0484,0.75511 0.24414,1.2207 0.19571,0.4656 0.81499,1.0383 1.36524,1.16407 1.10049,0.25152 1.47063,-0.0824 2.23047,-0.24219 0.75984,-0.15976 1.77471,-0.33649 3.26172,-0.36719 0.41319,-0.008 0.70178,0.10238 1.07031,0.42578 0.36853,0.3234 0.76803,0.89146 1.10156,1.65625 0.66707,1.52959 1.05389,3.79685 1.04883,6.04492 -0.005,2.24807 -0.40589,4.49256 -1.06836,5.9668 -0.33124,0.73712 -0.72262,1.26623 -1.06836,1.55078 -0.34574,0.28455 -0.59177,0.37042 -0.99219,0.33789 -1.50776,-0.12247 -2.58415,-0.30821 -3.43164,-0.4414 -0.84749,-0.1332 -1.47356,-0.39058 -2.48828,0.0488 -0.50736,0.2197 -0.95551,0.73945 -1.13672,1.18945 -0.1812,0.45 -0.21705,0.83521 -0.24219,1.24609 -0.0503,0.82177 -0.006,1.80193 -0.006,3.25781 l 0,0.0176 0,0.0156 c 0.0479,2.16531 0.12911,3.81891 0.11133,4.9961 -0.0178,1.17719 -0.17855,1.81734 -0.29492,2.01367 -0.11637,0.19633 -0.17934,0.29056 -0.94531,0.43945 -0.76597,0.1489 -2.08303,0.20313 -3.94531,0.20313 l -28.32227,0 -0.0195,0 c -1.93853,0.0505 -3.26944,-0.007 -4.00586,-0.16602 -0.73643,-0.1592 -0.74848,-0.22529 -0.86719,-0.46093 -0.1187,-0.23565 -0.24728,-0.9512 -0.24609,-2.14649 0.001,-1.18007 0.08,-2.80472 0.082,-4.84961 l 0.002,-0.0606 c 0,-8.3e-4 0,-0.001 0,-0.002 0.0568,-1.38964 0.0661,-2.19631 0.0899,-2.80273 0.17325,0.0234 0.0225,0.0194 0.24609,0.0664 0.86007,0.18083 2.11395,0.39454 3.81641,0.42968 1.18154,0.0244 2.28626,-0.4476 3.10937,-1.16992 0.82311,-0.72232 1.416,-1.66293 1.87305,-2.71094 0.91408,-2.09601 1.30658,-4.67556 1.30078,-7.25195 -0.006,-2.57639 -0.40792,-5.13295 -1.33203,-7.18945 -0.46206,-1.02825 -1.06001,-1.94863 -1.89844,-2.63867 -0.83843,-0.69004 -1.97,-1.10502 -3.14258,-1.00977 -1.63823,0.13307 -2.84626,0.3398 -3.65429,0.4668 -0.39743,0.0625 -0.25198,0.0763 -0.40821,0.0801 -0.022,-0.55723 0,-1.45837 0,-2.85938 l 0,-0.0156 0,-0.0176 c -0.0479,-2.1653 -0.1291,-3.8189 -0.11133,-4.99609 0.0178,-1.17719 0.1766,-1.81539 0.29297,-2.01172 0.11637,-0.19633 0.1813,-0.29251 0.94727,-0.44141 0.76597,-0.14889 2.08303,-0.20117 3.94531,-0.20117 z"
       id="path4563"
       inkscape:connector-curvature="0" />
    <path
       style="opacity:1;fill:#d7f8ff;fill-opacity:1;stroke:none;stroke-width:3;stroke-linecap:butt;stroke-linejoin:miter;stroke-miterlimit:4;stroke-dasharray:none;stroke-dashoffset:0;stroke-opacity:1"
       d="m 336.26845,157.51614 0,19.17383 0.91992,-0.91993 0.46485,-0.46484 0,-7.17383 7.17382,0 0.10938,-0.10937 0,0.10937 0.10156,0 0,6.8086 1.8457,0 0,-6.8086 6.8086,0 0,-1.8457 -6.8086,0 0,-0.10156 -0.10937,0 0.10937,-0.10938 0,-7.17382 7.17383,0 0.46485,-0.46485 0.91992,-0.91992 -19.17383,0 z m 28.82812,0 0.91993,0.91992 0.46484,0.46484 7.17188,0 0,7.17188 0.11132,0.11133 -0.11132,0 0,0.10156 -6.80665,0 0,1.8457 6.80665,0 0,6.8086 1.8457,0 0,-6.8086 0.10351,0 0,-0.10937 0.10938,0.10937 7.17187,0 0,7.17188 0.4668,0.46679 0.91797,0.91797 0,-19.17187 -19.17188,0 z m -4.82617,0.82812 -2.91992,2.91993 -0.91992,0.91992 1.26172,0 0,16.75586 -16.75586,0 0,-1.26172 -0.91992,0.91992 -2.91797,2.91797 2.91797,2.91992 0.91992,0.91992 0,-1.26172 16.75586,0 0,16.75586 -1.26172,0 0.91992,0.91993 2.91992,2.91796 2.91797,-2.91796 0.91992,-0.91993 -1.26172,0 0,-16.75586 16.75586,0 0,1.26172 0.91993,-0.91992 2.91796,-2.91992 -2.91796,-2.91797 -0.91993,-0.91992 0,1.26172 -16.75586,0 0,-16.75586 1.26172,0 -0.91992,-0.91992 -2.91797,-2.91993 z m -22.61718,0.55664 7.38476,0 0,7.38477 -7.38476,0 0,-7.38477 z m 37.8457,0 7.38476,0 0,7.38477 -7.38476,0 0,-7.38477 z m -39.23047,27.44336 0,19.17188 19.17187,0 -0.91796,-0.91797 -0.4668,-0.4668 -7.17188,0 0,-7.17187 -0.10937,-0.10938 0.10937,0 0,-0.10351 6.8086,0 0,-1.8457 -6.8086,0 0,-6.80665 -1.8457,0 0,6.80665 -0.10156,0 0,0.11132 -0.11133,-0.11132 -7.17187,0 0,-7.17188 -0.46485,-0.46484 -0.91992,-0.91993 z m 48,0.002 -0.91797,0.91797 -0.4668,0.4668 0,7.16992 -7.16992,0 -0.11133,0.11133 0,-0.11133 -0.10351,0 0,-6.80664 -1.8457,0 0,6.80664 -6.80665,0 0,1.84571 6.80665,0 0,0.10351 0.11132,0 -0.11132,0.11133 0,7.16992 -7.16993,0 -0.46679,0.4668 -0.91797,0.91797 19.16992,0 0,-19.16993 z m -46.61523,10.4004 7.38476,0 0,7.38476 -7.38476,0 0,-7.38476 z m 37.8457,0 7.38476,0 0,7.38476 -7.38476,0 0,-7.38476 z"
       id="rect4493"
       inkscape:connector-curvature="0" />
    <path
       style="opacity:1;fill:#d7f8ff;fill-opacity:1;stroke:none;stroke-width:3;stroke-linecap:butt;stroke-linejoin:miter;stroke-miterlimit:4;stroke-dasharray:none;stroke-dashoffset:0;stroke-opacity:1"
       d="m 360.26845,155.51614 -4.33333,4.33333 -4.33334,4.33334 4.09001,0 0,12.75667 -12.75667,0 0,-4.09001 -4.33334,4.33334 -4.33333,4.33333 4.33333,4.33333 4.33334,4.33334 0,-4.09001 12.75667,0 0,12.75667 -4.09001,0 4.33334,4.33334 4.33333,4.33333 4.33333,-4.33333 4.33334,-4.33334 -4.09001,0 0,-12.75667 12.75667,0 0,4.09001 4.33334,-4.33334 4.33333,-4.33333 -4.33333,-4.33333 -4.33334,-4.33334 0,4.09001 -12.75667,0 0,-12.75667 4.09001,0 -4.33334,-4.33334 -4.33333,-4.33333 z"
       id="path4488"
       inkscape:connector-curvature="0" />
    <path
       style="color:#000000;font-style:normal;font-variant:normal;font-weight:normal;font-stretch:normal;font-size:medium;line-height:normal;font-family:sans-serif;text-indent:0;text-align:start;text-decoration:none;text-decoration-line:none;text-decoration-style:solid;text-decoration-color:#000000;letter-spacing:normal;word-spacing:normal;text-transform:none;direction:ltr;block-progression:tb;writing-mode:lr-tb;baseline-shift:baseline;text-anchor:start;white-space:normal;clip-rule:nonzero;display:inline;overflow:visible;visibility:visible;opacity:1;isolation:auto;mix-blend-mode:normal;color-interpolation:sRGB;color-interpolation-filters:linearRGB;solid-color:#000000;solid-opacity:1;fill:#d7f8ff;fill-opacity:1;fill-rule:nonzero;stroke:none;stroke-width:3;stroke-linecap:butt;stroke-linejoin:round;stroke-miterlimit:4;stroke-dasharray:none;stroke-dashoffset:0;stroke-opacity:1;color-rendering:auto;image-rendering:auto;shape-rendering:auto;text-rendering:auto;enable-background:accumulate"
       d="m 276.26845,156.01614 a 1.50015,1.50015 0 0 0 -1.5,1.5 l 0,12 a 1.50015,1.50015 0 0 0 1.5,1.5 l 12,0 a 1.50015,1.50015 0 0 0 1.5,-1.5 l 0,-12 a 1.50015,1.50015 0 0 0 -1.5,-1.5 l -12,0 z m 18,0 a 1.50015,1.50015 0 0 0 -1.5,1.5 l 0,12 a 1.50015,1.50015 0 0 0 1.5,1.5 l 12,0 a 1.50015,1.50015 0 0 0 1.5,-1.5 l 0,-12 a 1.50015,1.50015 0 0 0 -1.5,-1.5 l -12,0 z m 18,0 a 1.50015,1.50015 0 0 0 -1.5,1.5 l 0,12 a 1.50015,1.50015 0 0 0 1.5,1.5 l 12,0 a 1.50015,1.50015 0 0 0 1.5,-1.5 l 0,-12 a 1.50015,1.50015 0 0 0 -1.5,-1.5 l -12,0 z m -34.5,3 9,0 0,9 -9,0 0,-9 z m 18,0 9,0 0,9 -9,0 0,-9 z m 18,0 9,0 0,9 -9,0 0,-9 z m -19.5,15 a 1.50015,1.50015 0 0 0 -1.5,1.5 l 0,12 a 1.50015,1.50015 0 0 0 1.5,1.5 l 12,0 a 1.50015,1.50015 0 0 0 1.5,-1.5 l 0,-12 a 1.50015,1.50015 0 0 0 -1.5,-1.5 l -12,0 z m 18,0 a 1.50015,1.50015 0 0 0 -1.5,1.5 l 0,12 a 1.50015,1.50015 0 0 0 1.5,1.5 l 12,0 a 1.50015,1.50015 0 0 0 1.5,-1.5 l 0,-12 a 1.50015,1.50015 0 0 0 -1.5,-1.5 l -12,0 z m -16.5,3 9,0 0,9 -9,0 0,-9 z m 18,0 9,0 0,9 -9,0 0,-9 z m -37.5,15 a 1.50015,1.50015 0 0 0 -1.5,1.5 l 0,12 a 1.50015,1.50015 0 0 0 1.5,1.5 l 12,0 a 1.50015,1.50015 0 0 0 1.5,-1.5 l 0,-12 a 1.50015,1.50015 0 0 0 -1.5,-1.5 l -12,0 z m 18,0 a 1.50015,1.50015 0 0 0 -1.5,1.5 l 0,12 a 1.50015,1.50015 0 0 0 1.5,1.5 l 12,0 a 1.50015,1.50015 0 0 0 1.5,-1.5 l 0,-12 a 1.50015,1.50015 0 0 0 -1.5,-1.5 l -12,0 z m -16.5,3 9,0 0,9 -9,0 0,-9 z m 18,0 9,0 0,9 -9,0 0,-9 z"
       id="path4468"
       inkscape:connector-curvature="0" />
    <path
       style="color:#000000;font-style:normal;font-variant:normal;font-weight:normal;font-stretch:normal;font-size:medium;line-height:normal;font-family:sans-serif;text-indent:0;text-align:start;text-decoration:none;text-decoration-line:none;text-decoration-style:solid;text-decoration-color:#000000;letter-spacing:normal;word-spacing:normal;text-transform:none;direction:ltr;block-progression:tb;writing-mode:lr-tb;baseline-shift:baseline;text-anchor:start;white-space:normal;clip-rule:nonzero;display:inline;overflow:visible;visibility:visible;opacity:1;isolation:auto;mix-blend-mode:normal;color-interpolation:sRGB;color-interpolation-filters:linearRGB;solid-color:#000000;solid-opacity:1;fill:#d7f8ff;fill-opacity:1;fill-rule:nonzero;stroke:none;stroke-width:3;stroke-linecap:butt;stroke-linejoin:round;stroke-miterlimit:4;stroke-dasharray:none;stroke-dashoffset:0;stroke-opacity:1;color-rendering:auto;image-rendering:auto;shape-rendering:auto;text-rendering:auto;enable-background:accumulate"
       d="m 240.26064,156.01614 c -1.95241,0.0105 -3.89802,0.24498 -5.79688,0.69922 a 1.50015,1.50015 0 0 0 -1.09961,1.07617 c -0.21747,0.82235 -0.41118,1.72247 -0.60351,2.62695 -2.5648,0.91309 -4.92874,2.27682 -7.00391,4.03906 -0.87766,-0.28581 -1.75265,-0.56759 -2.57226,-0.79101 a 1.50015,1.50015 0 0 0 -1.48633,0.41797 c -2.68341,2.84872 -4.67456,6.27745 -5.82032,10.01953 a 1.50015,1.50015 0 0 0 0.375,1.50391 c 0.60684,0.60355 1.29456,1.22449 1.98633,1.84765 -0.25159,1.34017 -0.46551,2.68983 -0.4707,4.05469 a 1.50015,1.50015 0 0 0 0,0.0137 c 0.008,1.35954 0.22241,2.7044 0.47461,4.03906 -0.68948,0.62025 -1.37495,1.24087 -1.98047,1.8418 a 1.50015,1.50015 0 0 0 -0.37891,1.5 c 1.13434,3.74511 3.1147,7.17853 5.78907,10.03516 a 1.50015,1.50015 0 0 0 1.48828,0.42187 c 0.82463,-0.22379 1.70611,-0.50772 2.58984,-0.79492 2.07508,1.77431 4.44179,3.14659 7.01172,4.06836 0.19084,0.898 0.38204,1.79224 0.59766,2.60937 a 1.50015,1.50015 0 0 0 1.10351,1.07618 c 1.8997,0.45299 3.84394,0.68637 5.79688,0.69531 a 1.50015,1.50015 0 0 0 0.0156,0 c 1.95241,-0.0105 3.89802,-0.24499 5.79688,-0.69922 a 1.50015,1.50015 0 0 0 1.09961,-1.07617 c 0.21747,-0.82235 0.41117,-1.72248 0.60351,-2.62696 2.5648,-0.91308 4.92874,-2.27681 7.00391,-4.03906 0.87766,0.28581 1.75265,0.5676 2.57226,0.79102 a 1.50015,1.50015 0 0 0 1.48633,-0.41797 c 2.68341,-2.84873 4.67456,-6.27746 5.82031,-10.01953 a 1.50015,1.50015 0 0 0 -0.375,-1.50391 c -0.60683,-0.60355 -1.29455,-1.22449 -1.98632,-1.84766 0.25159,-1.34017 0.46551,-2.68982 0.4707,-4.05468 a 1.50015,1.50015 0 0 0 0,-0.0137 c -0.008,-1.35954 -0.22241,-2.70441 -0.47461,-4.03907 0.68948,-0.62024 1.37495,-1.24086 1.98047,-1.84179 a 1.50015,1.50015 0 0 0 0.37891,-1.5 c -1.13434,-3.74511 -3.1147,-7.17853 -5.78907,-10.03516 a 1.50015,1.50015 0 0 0 -1.48828,-0.42187 c -0.82464,0.22379 -1.70611,0.50771 -2.58984,0.79492 -2.07508,-1.77431 -4.44179,-3.1466 -7.01172,-4.06836 -0.19085,-0.89801 -0.38204,-1.79224 -0.59766,-2.60938 a 1.50015,1.50015 0 0 0 -1.10351,-1.07617 c -1.8997,-0.45299 -3.84394,-0.68637 -5.79688,-0.69531 a 1.50015,1.50015 0 0 0 -0.0156,0 z m 0.008,3 c 1.42395,0.007 2.83271,0.23277 4.22852,0.50781 0.17499,0.72189 0.35399,1.43302 0.51171,2.22461 a 1.50015,1.50015 0 0 0 1.02344,1.13867 c 2.77781,0.86845 5.32535,2.34858 7.45703,4.33008 a 1.50015,1.50015 0 0 0 1.50391,0.32031 c 0.77507,-0.26294 1.48906,-0.46598 2.21094,-0.67773 1.86224,2.15529 3.29104,4.62927 4.22461,7.32031 -0.5443,0.51872 -1.07844,1.03322 -1.69336,1.57227 a 1.50015,1.50015 0 0 0 -0.47266,1.46875 c 0.32759,1.40942 0.49719,2.84992 0.50586,4.29687 -0.006,1.45035 -0.17344,2.89546 -0.5,4.3086 a 1.50015,1.50015 0 0 0 0.4707,1.46484 c 0.61551,0.54031 1.14902,1.05838 1.69336,1.57812 -0.94233,2.6885 -2.37647,5.15901 -4.24609,7.3086 -0.71636,-0.21088 -1.42494,-0.4147 -2.19336,-0.67578 a 1.50015,1.50015 0 0 0 -1.5,0.31836 c -2.13364,1.96992 -4.67939,3.437 -7.45313,4.29687 a 1.50015,1.50015 0 0 0 -1.02734,1.14063 c -0.15933,0.79944 -0.33869,1.5178 -0.51562,2.24609 -1.39628,0.2764 -2.80386,0.5036 -4.22852,0.51172 -1.42396,-0.007 -2.83271,-0.23277 -4.22852,-0.50781 -0.17499,-0.72189 -0.35399,-1.43303 -0.51171,-2.22461 a 1.50015,1.50015 0 0 0 -1.02344,-1.13867 c -2.77781,-0.86845 -5.32535,-2.34859 -7.45703,-4.33008 a 1.50015,1.50015 0 0 0 -1.50391,-0.32032 c -0.77507,0.26295 -1.48906,0.46599 -2.21094,0.67774 -1.86224,-2.15529 -3.29104,-4.62927 -4.22461,-7.32031 0.5443,-0.51872 1.07844,-1.03322 1.69336,-1.57227 a 1.50015,1.50015 0 0 0 0.47266,-1.46875 c -0.3276,-1.40942 -0.49719,-2.84992 -0.50586,-4.29687 0.006,-1.45035 0.17344,-2.89547 0.5,-4.3086 a 1.50015,1.50015 0 0 0 -0.4707,-1.46484 c -0.61551,-0.54032 -1.14902,-1.05838 -1.69336,-1.57813 0.94233,-2.68849 2.37647,-5.159 4.24609,-7.30859 0.71636,0.21088 1.42494,0.41469 2.19336,0.67578 a 1.50015,1.50015 0 0 0 1.5,-0.31836 c 2.13364,-1.96993 4.67939,-3.437 7.45313,-4.29687 a 1.50015,1.50015 0 0 0 1.02734,-1.14063 c 0.15933,-0.79944 0.33869,-1.51781 0.51562,-2.24609 1.39628,-0.2764 2.80385,-0.5036 4.22852,-0.51172 z m 0,9 c -7.43808,0 -13.5,6.06192 -13.5,13.5 0,7.43808 6.06192,13.5 13.5,13.5 7.43808,0 13.5,-6.06192 13.5,-13.5 0,-7.43808 -6.06192,-13.5 -13.5,-13.5 z m 0,3 c 5.81676,0 10.5,4.68324 10.5,10.5 0,5.81676 -4.68324,10.5 -10.5,10.5 -5.81676,0 -10.5,-4.68324 -10.5,-10.5 0,-5.81676 4.68324,-10.5 10.5,-10.5 z"
       id="path4440"
       inkscape:connector-curvature="0" />
    <path
       style="opacity:1;fill:#d7f8ff;fill-opacity:1;stroke:none;stroke-width:3;stroke-linecap:butt;stroke-linejoin:miter;stroke-miterlimit:4;stroke-dasharray:none;stroke-dashoffset:0;stroke-opacity:1"
       d="m 350.228,105.51614 a 7.8794147,4.1668043 0 0 0 -7.87899,4.16664 7.8794147,4.1668043 0 0 0 7.87899,4.16665 7.8794147,4.1668043 0 0 0 0.47237,-0.013 l 0.0687,0.35974 a 3.2362922,6.3828845 85.08127 0 0 -4.07777,1.66888 3.0812894,6.0722423 86.27627 0 0 -4.87133,-1.41855 3.0812894,6.0722423 86.27627 0 0 -0.21987,0.004 3.0812894,6.0722423 86.27627 0 0 -0.4277,0.0185 3.0812894,6.0722423 86.27627 0 0 -5.90194,3.44903 3.0812894,6.0722423 86.27627 0 0 6.21628,2.70544 3.0812894,6.0722423 86.27627 0 0 0.19066,-0.0148 2.7207132,5.3616608 86.27627 0 1 -5.35916,-2.39392 2.7207132,5.3616608 86.27627 0 1 5.21316,-3.04664 2.7207132,5.3616608 86.27627 0 1 4.73392,1.11444 3.2362922,6.3828845 85.08127 0 0 -0.3985,0.59339 l -4.2461,0.5841 a 0.26837031,2.4097759 10.882413 0 0 0.12367,-2.02305 0.26837031,2.4097759 10.882413 0 0 -0.64069,1.9118 3.1146381,0.3778418 18.022927 0 0 -2.78093,-0.50252 3.1146381,0.3778418 18.022927 0 0 2.63664,1.24795 0.26837031,2.4097759 10.882413 0 0 -0.13226,2.07684 0.26837031,2.4097759 10.882413 0 0 0.63898,-1.91181 3.1146381,0.3778418 18.022927 0 0 2.78264,0.50252 3.1146381,0.3778418 18.022927 0 0 -1.41022,-0.79921 l 2.8273,-0.38755 a 3.2362922,6.3828845 85.08127 0 0 0,0.3004 5.679027,6.3856535 88.212633 0 0 0.17005,0.83444 3.2362922,6.3830492 85.081248 0 1 5.98267,-3.30068 3.2362922,6.3830492 85.081248 0 1 6.57528,2.16955 5.679027,6.3856535 88.212633 0 0 -0.0155,-0.86782 3.2362922,6.3828845 85.08127 0 0 -0.25422,-0.71762 5.9538297,3.5011253 0 0 0 5.19083,1.80054 5.9538297,3.5011253 0 0 0 5.95347,-3.50095 5.9538297,3.5011253 0 0 0 -5.95347,-3.49909 5.9538297,3.5011253 0 0 0 -5.95348,3.49909 5.9538297,3.5011253 0 0 0 0.23704,0.97167 l -0.11852,0.0167 a 3.2362922,6.3828845 85.08127 0 0 -5.68723,-1.21458 l -0.0567,-0.29669 a 7.8794147,4.1668043 0 0 0 5.93286,-2.73511 6.7603094,3.1559229 0 0 1 -6.03077,2.2159 l -0.43629,-2.30862 a 4.8795103,0.55367955 33.044257 0 0 3.51265,1.62994 4.8795103,0.55367955 33.044257 0 0 -3.19832,-2.72398 0.42801354,3.2397034 58.016914 0 0 1.8551,-1.64293 0.42801354,3.2397034 58.016914 0 0 -2.62462,1.13484 4.8795103,0.55367955 33.044257 0 0 -3.29107,-1.86173 6.7603094,3.1559229 0 0 1 3.75485,-0.53219 6.7603094,3.1559229 0 0 1 6.76078,3.15605 6.7603094,3.1559229 0 0 1 -0.30231,0.93272 7.8794147,4.1668043 0 0 0 0.43972,-1.3518 7.8794147,4.1668043 0 0 0 -7.88071,-4.16664 z m -3.42848,2.19736 a 4.8795103,0.55367955 33.044257 0 0 2.92692,2.27525 0.42801354,3.2397034 58.016914 0 0 -1.85509,1.64292 0.42801354,3.2397034 58.016914 0 0 2.24329,-0.91047 l 0.47408,2.52187 a 6.7603094,3.1559229 0 0 1 -6.13899,-3.14121 6.7603094,3.1559229 0 0 1 2.34979,-2.38836 z m 16.12728,4.0183 a 5.4213734,2.9001859 0 0 1 5.42271,2.90015 5.4213734,2.9001859 0 0 1 -5.42271,2.90015 5.4213734,2.9001859 0 0 1 -4.84385,-1.60584 3.2362922,6.3828845 85.08127 0 0 -0.0361,-0.0556 l 1.22985,-0.16874 a 0.42928624,3.2300985 75.113027 0 0 3.23611,-0.42649 0.42928624,3.2300985 75.113027 0 0 0.16661,-0.0482 2.1722702,0.26352162 18.022927 0 0 1.77952,0.30225 2.1722702,0.26352162 18.022927 0 0 -0.95159,-0.54331 0.42928624,3.2300985 75.113027 0 0 2.00624,-0.95498 0.42928624,3.2300985 75.113027 0 0 -0.25593,-0.0946 0.42928624,3.2300985 75.113027 0 0 -2.98532,0.51365 0.42928624,3.2300985 75.113027 0 0 -0.16662,0.0464 2.1722702,0.26352162 18.022927 0 0 -1.77951,-0.30225 2.1722702,0.26352162 18.022927 0 0 0.94987,0.54331 0.42928624,3.2300985 75.113027 0 0 -0.10649,0.0352 l -3.52983,0.48583 a 5.4213734,2.9001859 0 0 1 -0.13398,-0.62676 5.4213734,2.9001859 0 0 1 5.42099,-2.90015 z m -9.91444,4.95844 a 3.2362922,6.3830492 85.081248 0 0 -1.05122,0.0519 3.2362922,6.3830492 85.081248 0 0 -5.81434,2.80743 5.679027,6.3856535 88.212633 0 0 3.22236,2.92797 5.679027,6.3856535 88.212633 0 0 6.35541,-0.58226 5.679027,6.3856535 88.212633 0 0 2.53186,-3.45088 3.2362922,6.3830492 85.081248 0 0 -5.24407,-1.75418 z m 4.69442,4.69142 a 6.600437,4.7092285 0 0 1 -0.27827,0.28742 2.3378093,4.6070786 86.27627 0 1 0.14944,0.51364 2.3378093,4.6070786 86.27627 0 1 -4.47799,2.6183 2.3378093,4.6070786 86.27627 0 1 -4.71846,-2.05273 2.3378093,4.6070786 86.27627 0 1 0.002,-0.0278 6.600437,4.7092285 0 0 1 -0.52561,-0.28742 2.6858561,5.2929686 86.27627 0 0 -0.15116,0.70464 2.6858561,5.2929686 86.27627 0 0 5.42271,2.35869 2.6858561,5.2929686 86.27627 0 0 5.14445,-3.0077 2.6858561,5.2929686 86.27627 0 0 -0.56683,-1.10703 z m -3.71706,1.99153 a 6.600437,4.7092285 0 0 1 -0.55653,0.0964 1.8845287,0.21383806 33.044257 0 0 1.21612,0.54517 1.8845287,0.21383806 33.044257 0 0 -0.65959,-0.64159 z m -3.18114,0.0909 a 0.3305499,2.4871724 75.113027 0 0 -0.14257,0.16689 0.3305499,2.4871724 75.113027 0 0 1.39304,-0.0705 6.600437,4.7092285 0 0 1 -1.25047,-0.0964 z"
       id="ellipse4265"
       inkscape:connector-curvature="0" />
    <path
       style="opacity:1;fill:#d7f8ff;fill-opacity:1;stroke:none;stroke-width:3;stroke-linecap:butt;stroke-linejoin:miter;stroke-miterlimit:4;stroke-dasharray:none;stroke-dashoffset:0;stroke-opacity:1"
       d="m 292.26845,91.51614 a 24,24 0 0 0 -0.75,0.0371 l 0,5.99023 a 18,18 0 0 1 0.75,-0.0273 18,18 0 0 1 0.75,0.0371 l 0,-6.00976 a 24,24 0 0 0 -0.75,-0.0273 z m 3.42383,0.26953 -0.58399,3.31445 a 21,21 0 0 1 1.47657,0.25 l 0.58203,-3.30078 a 24,24 0 0 0 -1.47461,-0.26367 z m -6.84571,0.006 a 24,24 0 0 0 -1.48046,0.23828 l 0.59961,3.40234 a 21,21 0 0 1 1.47265,-0.2832 l -0.5918,-3.35742 z m -4.07031,0.94336 a 24,24 0 0 0 -1.41015,0.51367 l 1.18554,3.25977 a 21,21 0 0 1 1.41211,-0.51368 l -1.1875,-3.25976 z m 14.98242,0.0117 -1.14257,3.13672 a 21,21 0 0 1 1.41796,0.49218 l 1.14063,-3.13476 a 24,24 0 0 0 -1.41602,-0.49414 z m -18.83203,1.62695 a 24,24 0 0 0 -1.28711,0.76953 l 1.7461,3.02539 a 21,21 0 0 1 1.28906,-0.76757 l -1.74805,-3.02735 z m 22.67578,0.01 -1.65429,2.86719 a 21,21 0 0 1 1.29687,0.75391 l 1.65821,-2.87305 a 24,24 0 0 0 -1.30079,-0.74805 z m 3.50782,2.27735 -2.12891,2.53711 a 21,21 0 0 1 1.16016,0.95312 l 2.10156,-2.50586 a 24,24 0 0 0 -1.13281,-0.98437 z m -29.66993,0.0176 a 24,24 0 0 0 -1.15039,0.96289 l 2.26172,2.69726 a 21,21 0 0 1 1.14258,-0.97265 l -2.25391,-2.6875 z m 32.70313,2.85937 -2.48828,2.08789 a 21,21 0 0 1 0.99023,1.12891 l 2.46094,-2.06446 A 24,24 0 0 0 310.14345,99.538 Z m -35.74609,0.004 a 24,24 0 0 0 -0.98438,1.13281 l 2.70313,2.26758 a 21,21 0 0 1 0.97461,-1.14258 L 274.39736,99.542 Z m -2.51368,3.33984 a 24,24 0 0 0 -0.74804,1.30079 l 3.01953,1.74218 a 21,21 0 0 1 0.76367,-1.29101 l -3.03516,-1.75196 z m 40.75977,0.006 -2.75586,1.58985 a 21,21 0 0 1 0.76953,1.28906 l 2.75391,-1.58984 a 24,24 0 0 0 -0.76758,-1.28907 z m -42.65039,3.72226 a 24,24 0 0 0 -0.49414,1.41797 l 3.24805,1.18164 a 21,21 0 0 1 0.51562,-1.41016 l -3.26953,-1.18945 z m 44.54297,0.004 -2.94727,1.07227 a 21,21 0 0 1 0.52344,1.40429 l 2.9375,-1.06836 a 24,24 0 0 0 -0.51367,-1.4082 z m 1.21875,4 -3.05274,0.53711 a 21,21 0 0 1 0.28907,1.47266 l 3.00195,-0.5293 a 24,24 0 0 0 -0.23828,-1.48047 z m -46.95313,0.004 a 24,24 0 0 0 -0.26367,1.47461 l 3.36133,0.59375 a 21,21 0 0 1 0.28516,-1.47266 l -3.38282,-0.5957 z m -0.50586,4.14844 a 24,24 0 0 0 -0.0273,0.75 24,24 0 0 0 0.0371,0.75 l 5.99023,0 a 18,18 0 0 1 -0.0273,-0.75 18,18 0 0 1 0.0371,-0.75 l -6.00977,0 z m 41.94532,0 a 18,18 0 0 1 0.0273,0.75 18,18 0 0 1 -0.0371,0.75 l 6.00977,0 a 24,24 0 0 0 0.0273,-0.75 24,24 0 0 0 -0.0371,-0.75 l -5.99023,0 z m -38.38868,3.58789 -3.30859,0.58398 a 24,24 0 0 0 0.23828,1.48047 l 3.31836,-0.58398 a 21,21 0 0 1 -0.24805,-1.48047 z m 41.18946,0.0645 a 21,21 0 0 1 -0.25586,1.47656 l 2.94922,0.51953 a 24,24 0 0 0 0.26367,-1.47461 l -2.95703,-0.52148 z m -40.40625,3.44531 -3.14844,1.14649 a 24,24 0 0 0 0.51367,1.4082 l 3.12891,-1.13867 a 21,21 0 0 1 -0.49414,-1.41602 z m 39.58984,0.11719 a 21,21 0 0 1 -0.49414,1.41797 l 2.8125,1.02344 a 24,24 0 0 0 0.49414,-1.41797 l -2.8125,-1.02344 z m -38.2207,3.21289 -2.87891,1.66211 a 24,24 0 0 0 0.76758,1.28906 l 2.86523,-1.6543 a 21,21 0 0 1 -0.7539,-1.29687 z m 36.81054,0.16406 a 21,21 0 0 1 -0.76367,1.29102 l 2.60157,1.50195 a 24,24 0 0 0 0.74804,-1.30078 l -2.58594,-1.49219 z m -34.86523,2.8711 -2.51953,2.11328 a 24,24 0 0 0 0.96289,1.15234 l 2.50781,-2.10351 a 21,21 0 0 1 -0.95117,-1.16211 z m 32.86328,0.18945 a 21,21 0 0 1 -0.9707,1.14453 l 2.29687,1.92773 a 24,24 0 0 0 0.98438,-1.13281 l -2.31055,-1.93945 z m -30.43555,2.48437 -2.08593,2.48438 a 24,24 0 0 0 1.13476,0.98437 l 2.07813,-2.47656 a 21,21 0 0 1 -1.12696,-0.99219 z m 27.93946,0.1875 a 21,21 0 0 1 -1.14649,0.96875 l 1.92578,2.29493 a 24,24 0 0 0 1.1504,-0.96289 l -1.92969,-2.30079 z m -25.08985,2.04883 -1.59375,2.76172 a 24,24 0 0 0 1.30079,0.74805 l 1.58593,-2.74805 a 21,21 0 0 1 -1.29297,-0.76172 z m 22.17383,0.15821 a 21,21 0 0 1 -1.28906,0.76757 l 1.49805,2.59375 a 24,24 0 0 0 1.28711,-0.76953 l -1.4961,-2.59179 z m -11.88281,0.18164 0,6.00976 a 24,24 0 0 0 0.75,0.0273 24,24 0 0 0 0.75,-0.0371 l 0,-5.99023 a 18,18 0 0 1 -0.75,0.0273 18,18 0 0 1 -0.75,-0.0371 z m -7.08008,1.35546 -1.07617,2.95704 a 24,24 0 0 0 1.41602,0.49414 l 1.06445,-2.92383 a 21,21 0 0 1 -1.4043,-0.52735 z m 15.71289,0.14454 a 21,21 0 0 1 -1.41797,0.49609 l 1.02735,2.82227 a 24,24 0 0 0 1.41015,-0.51368 l -1.01953,-2.80468 z m -12.24609,0.9707 -0.53516,3.0332 a 24,24 0 0 0 1.47461,0.26367 l 0.53125,-3.00586 a 21,21 0 0 1 -1.4707,-0.29101 z m 8.74219,0.0859 a 21,21 0 0 1 -1.47852,0.25195 l 0.52148,2.95313 a 24,24 0 0 0 1.48047,-0.23828 l -0.52343,-2.9668 z"
       id="rect4182"
       inkscape:connector-curvature="0" />
    <path
       style="fill:#d7f8ff;fill-opacity:1;stroke:none;stroke-width:4;stroke-linecap:butt;stroke-linejoin:miter;stroke-miterlimit:4;stroke-dasharray:none;stroke-dashoffset:0;stroke-opacity:1"
       d="m 100.26845,115.21227 a 47,47 0 0 0 -0.75,0.0371 l 0,3.99023 a 43,43 0 0 1 0.75,-0.0273 43,43 0 0 1 0.75,0.0371 l 0,-4.00976 a 47,47 0 0 0 -0.75,-0.0273 z m 3.34766,0.11914 -0.35157,4.03125 a 43,43 0 0 1 1.49805,0.0957 l 0.34375,-3.94531 a 47,47 0 0 0 -1.49023,-0.18164 z m -6.69141,0.0488 a 47,47 0 0 0 -1.49805,0.0898 l 0.35157,4.02539 a 43,43 0 0 1 1.49023,-0.17773 l -0.34375,-3.9375 z m 10.76172,0.44727 -0.69922,3.96679 a 43,43 0 0 1 1.48242,0.22461 l 0.69141,-3.91992 a 47,47 0 0 0 -1.47461,-0.27148 z m -14.83008,0.0312 a 47,47 0 0 0 -1.48242,0.22461 l 0.69726,3.95312 a 43,43 0 0 1 1.47461,-0.26953 l -0.68945,-3.9082 z m 18.83984,0.80859 -1.03906,3.87305 a 43,43 0 0 1 1.45508,0.37109 l 1.04102,-3.88281 a 47,47 0 0 0 -1.45704,-0.36133 z m -22.85156,0.0156 a 47,47 0 0 0 -1.45312,0.37109 l 1.02929,3.83985 a 43,43 0 0 1 1.45508,-0.36328 l -1.03125,-3.84766 z m -3.92578,1.16211 a 47,47 0 0 0 -1.41016,0.51367 l 1.35352,3.7168 a 43,43 0 0 1 1.42383,-0.47266 l -1.36719,-3.75781 z m 30.69922,0.002 -1.36523,3.75195 a 43,43 0 0 1 1.4082,0.51367 l 1.38086,-3.79297 a 47,47 0 0 0 -1.42383,-0.47265 z m -34.51563,1.49219 a 47,47 0 0 0 -1.34961,0.65234 l 1.67774,3.59961 a 43,43 0 0 1 1.36914,-0.61328 l -1.69727,-3.63868 z m 38.32227,0.0176 -1.67969,3.60352 a 43,43 0 0 1 1.35157,0.65234 l 1.69726,-3.64257 a 47,47 0 0 0 -1.36914,-0.61334 z m -41.99414,1.79688 a 47,47 0 0 0 -1.28125,0.78516 l 1.99414,3.45507 a 43,43 0 0 1 1.30273,-0.74804 l -2.01562,-3.49219 z m 45.6582,0.0332 -1.98047,3.42773 a 43,43 0 0 1 1.28125,0.78516 l 2,-3.4668 a 47,47 0 0 0 -1.30078,-0.74609 z m -49.15429,2.10937 a 47,47 0 0 0 -1.20899,0.88868 l 2.29883,3.2832 a 43,43 0 0 1 1.2207,-0.87305 l -2.31054,-3.29883 z m 52.65039,0.0254 -2.27735,3.25196 a 43,43 0 0 1 1.21094,0.88672 l 2.28516,-3.26563 a 47,47 0 0 0 -1.21875,-0.87305 z m 3.30078,2.42774 -2.57813,3.07226 a 43,43 0 0 1 1.15235,0.95899 l 2.55273,-3.04102 a 47,47 0 0 0 -1.12695,-0.99023 z m -59.22657,0.008 a 47,47 0 0 0 -1.15429,0.96094 l 2.58789,3.08203 a 43,43 0 0 1 1.12695,-0.99024 l -2.56055,-3.05273 z m 62.30665,2.69726 -2.85938,2.85938 a 43,43 0 0 1 1.08984,1.03125 l 2.79688,-2.79688 a 47,47 0 0 0 -1.02734,-1.09375 z m -65.36133,0.0332 a 47,47 0 0 0 -1.09375,1.02735 l 2.85937,2.85937 a 43,43 0 0 1 1.03125,-1.08984 l -2.79687,-2.79688 z m 68.1582,2.96094 -3.08203,2.58789 a 43,43 0 0 1 0.99023,1.12696 l 3.05274,-2.56055 a 47,47 0 0 0 -0.96094,-1.1543 z m -70.9668,0.0195 a 47,47 0 0 0 -0.99023,1.12695 l 3.07226,2.57813 a 43,43 0 0 1 0.95899,-1.15234 l -3.04102,-2.55274 z m 73.5,3.20117 -3.2832,2.29883 a 43,43 0 0 1 0.87305,1.2207 l 3.29883,-2.31054 a 47,47 0 0 0 -0.88868,-1.20899 z m -76.04492,0.008 a 47,47 0 0 0 -0.87305,1.21875 l 3.25196,2.27735 a 43,43 0 0 1 0.88672,-1.21094 l -3.26563,-2.28516 z m -2.26172,3.41407 a 47,47 0 0 0 -0.74609,1.30078 l 3.42773,1.98047 a 43,43 0 0 1 0.78516,-1.28125 l -3.4668,-2 z m 80.55274,0.002 -3.45508,1.99414 a 43,43 0 0 1 0.74805,1.30273 l 3.49218,-2.01562 a 47,47 0 0 0 -0.78515,-1.28125 z m -82.51563,3.59375 a 47,47 0 0 0 -0.61328,1.36914 l 3.60352,1.67969 a 43,43 0 0 1 0.65234,-1.35157 l -3.64258,-1.69726 z m 84.46289,0.01 -3.59961,1.67773 a 43,43 0 0 1 0.61329,1.36914 l 3.63867,-1.69726 a 47,47 0 0 0 -0.65235,-1.34961 z m -86.11328,3.74218 a 47,47 0 0 0 -0.47265,1.42383 l 3.75195,1.36524 a 43,43 0 0 1 0.51367,-1.40821 l -3.79297,-1.38086 z m 87.7461,0.0137 -3.7168,1.35352 a 43,43 0 0 1 0.47266,1.42383 l 3.75781,-1.36719 a 47,47 0 0 0 -0.51367,-1.41016 z m -89.03711,3.875 a 47,47 0 0 0 -0.36133,1.45704 l 3.87304,1.03906 a 43,43 0 0 1 0.3711,-1.45508 l -3.88281,-1.04102 z m 90.34179,0.008 -3.83984,1.0293 a 43,43 0 0 1 0.36328,1.45508 l 3.84766,-1.03125 a 47,47 0 0 0 -0.3711,-1.45313 z m 0.97071,3.98243 -3.95313,0.69726 a 43,43 0 0 1 0.26953,1.47461 l 3.90821,-0.68945 a 47,47 0 0 0 -0.22461,-1.48242 z m -92.24219,0.002 a 47,47 0 0 0 -0.27149,1.4746 l 3.9668,0.69922 a 43,43 0 0 1 0.22461,-1.48242 l -3.91992,-0.6914 z m 92.85547,4.05078 -4.02539,0.35156 a 43,43 0 0 1 0.17773,1.49023 l 3.9375,-0.34375 a 47,47 0 0 0 -0.0898,-1.49804 z m -93.44141,0.004 a 47,47 0 0 0 -0.18164,1.49023 l 4.03125,0.35156 a 43,43 0 0 1 0.0957,-1.49804 l -3.94531,-0.34375 z m -0.27344,4.08789 a 47,47 0 0 0 -0.0273,0.75 47,47 0 0 0 0.0371,0.75 l 3.99023,0 a 43,43 0 0 1 -0.0273,-0.75 43,43 0 0 1 0.0371,-0.75 l -4.00977,0 z m 89.94532,0 a 43,43 0 0 1 0.0273,0.75 43,43 0 0 1 -0.0371,0.75 l 4.00977,0 a 47,47 0 0 0 0.0273,-0.75 47,47 0 0 0 -0.0371,-0.75 l -3.99023,0 z m -0.12305,3.74609 a 43,43 0 0 1 -0.0957,1.49805 l 3.94531,0.34375 a 47,47 0 0 0 0.18164,-1.49024 l -4.03125,-0.35156 z m -85.74414,0.004 -3.9375,0.34375 a 47,47 0 0 0 0.0898,1.49805 l 4.02539,-0.35156 a 43,43 0 0 1 -0.17773,-1.49024 z m 85.3125,3.71875 a 43,43 0 0 1 -0.22461,1.48242 l 3.91992,0.69141 a 47,47 0 0 0 0.27149,-1.47461 l -3.9668,-0.69922 z m -84.86328,0.004 -3.90821,0.68945 a 47,47 0 0 0 0.22461,1.48243 l 3.95313,-0.69727 a 43,43 0 0 1 -0.26953,-1.47461 z m 84.11719,3.66602 a 43,43 0 0 1 -0.3711,1.45508 l 3.88281,1.04101 a 47,47 0 0 0 0.36133,-1.45703 l -3.87304,-1.03906 z m -83.35352,0.004 -3.84766,1.03125 a 47,47 0 0 0 0.3711,1.45312 l 3.83984,-1.02929 a 43,43 0 0 1 -0.36328,-1.45508 z m 1.07226,3.58984 -3.75781,1.36719 a 47,47 0 0 0 0.51367,1.41016 l 3.7168,-1.35352 a 43,43 0 0 1 -0.47266,-1.42383 z m 81.22266,0.002 a 43,43 0 0 1 -0.51367,1.4082 l 3.79297,1.38086 a 47,47 0 0 0 0.47265,-1.42382 l -3.75195,-1.36524 z m -79.84766,3.48438 -3.63867,1.69726 a 47,47 0 0 0 0.65235,1.34961 l 3.59961,-1.67773 a 43,43 0 0 1 -0.61329,-1.36914 z m 78.48633,0.008 a 43,43 0 0 1 -0.65234,1.35156 l 3.64258,1.69727 a 47,47 0 0 0 0.61328,-1.36915 l -3.60352,-1.67961 z m -76.81836,3.3457 -3.49218,2.01563 a 47,47 0 0 0 0.78515,1.28125 l 3.45508,-1.99415 a 43,43 0 0 1 -0.74805,-1.30273 z m 75.16407,0.0176 a 43,43 0 0 1 -0.78516,1.28125 l 3.4668,2 a 47,47 0 0 0 0.74609,-1.30078 l -3.42773,-1.9804 z m -73.21485,3.18359 -3.29883,2.31055 a 47,47 0 0 0 0.88868,1.20899 l 3.2832,-2.29883 a 43,43 0 0 1 -0.87305,-1.22071 z m 71.25586,0.0156 a 43,43 0 0 1 -0.88672,1.21094 l 3.26563,2.28516 a 47,47 0 0 0 0.87304,-1.21875 l -3.25195,-2.27735 z m -2.24805,3 a 43,43 0 0 1 -0.95898,1.15235 l 3.04102,2.55273 a 47,47 0 0 0 0.99023,-1.12695 l -3.07227,-2.57813 z m -66.79296,0.01 -3.05274,2.56055 a 47,47 0 0 0 0.96094,1.15429 l 3.08203,-2.58789 a 43,43 0 0 1 -0.99023,-1.12695 z m 64.30078,2.78906 a 43,43 0 0 1 -1.03125,1.08984 l 2.79687,2.79688 a 47,47 0 0 0 1.09375,-1.02734 l -2.85937,-2.85938 z m -61.82617,0.0293 -2.79688,2.79687 a 47,47 0 0 0 1.02734,1.09375 l 2.85938,-2.85937 a 43,43 0 0 1 -1.08984,-1.03125 z m 59.10351,2.54492 a 43,43 0 0 1 -1.12695,0.99023 l 2.56055,3.05274 a 47,47 0 0 0 1.15429,-0.96094 l -2.58789,-3.08203 z m -56.36719,0.0195 -2.55273,3.04102 a 47,47 0 0 0 1.12695,0.99023 l 2.57813,-3.07227 a 43,43 0 0 1 -1.15235,-0.95898 z m 53.43555,2.3125 a 43,43 0 0 1 -1.2207,0.87305 l 2.31054,3.29883 a 47,47 0 0 0 1.20899,-0.88868 l -2.29883,-3.2832 z m -50.49414,0.008 -2.28516,3.26563 a 47,47 0 0 0 1.21875,0.87304 l 2.27735,-3.25195 a 43,43 0 0 1 -1.21094,-0.88672 z m 3.12891,2.06055 -2,3.4668 a 47,47 0 0 0 1.30078,0.74609 l 1.98047,-3.42773 a 43,43 0 0 1 -1.28125,-0.78516 z m 44.24609,0.006 a 43,43 0 0 1 -1.30273,0.74805 l 2.01562,3.49218 a 47,47 0 0 0 1.28125,-0.78515 l -1.99414,-3.45508 z m -40.95313,1.78125 -1.69726,3.64258 a 47,47 0 0 0 1.36914,0.61328 l 1.67969,-3.60352 a 43,43 0 0 1 -1.35157,-0.65234 z m 37.66602,0.0215 a 43,43 0 0 1 -1.36914,0.61329 l 1.69727,3.63867 a 47,47 0 0 0 1.34961,-0.65235 l -1.67774,-3.59961 z m -34.23047,1.47852 -1.38086,3.79297 a 47,47 0 0 0 1.42383,0.47265 l 1.36523,-3.75195 a 43,43 0 0 1 -1.4082,-0.51367 z m 30.79883,0.0371 a 43,43 0 0 1 -1.42383,0.47266 l 1.36719,3.75781 a 47,47 0 0 0 1.41016,-0.51367 l -1.35352,-3.7168 z m -27.25,1.16406 -1.04102,3.88281 a 47,47 0 0 0 1.45704,0.36133 l 1.03906,-3.87304 a 43,43 0 0 1 -1.45508,-0.3711 z m 23.69141,0.0176 a 43,43 0 0 1 -1.45508,0.36328 l 1.03125,3.84766 a 47,47 0 0 0 1.45312,-0.3711 l -1.02929,-3.83984 z m -3.65039,0.85742 a 43,43 0 0 1 -1.47461,0.26953 l 0.68945,3.90821 a 47,47 0 0 0 1.48242,-0.22461 l -0.69726,-3.95313 z m -16.39844,0.0176 -0.69141,3.91992 a 47,47 0 0 0 1.47461,0.27149 l 0.69922,-3.9668 a 43,43 0 0 1 -1.48242,-0.22461 z m 12.6914,0.52344 a 43,43 0 0 1 -1.49023,0.17773 l 0.34375,3.9375 a 47,47 0 0 0 1.49805,-0.0898 l -0.35157,-4.02539 z m -8.98437,0.0371 -0.34375,3.94531 a 47,47 0 0 0 1.49023,0.18164 l 0.35157,-4.03125 a 43,43 0 0 1 -1.49805,-0.0957 z m 3.74414,0.20898 0,4.00977 a 47,47 0 0 0 0.75,0.0273 47,47 0 0 0 0.75,-0.0371 l 0,-3.99023 a 43,43 0 0 1 -0.75,0.0273 43,43 0 0 1 -0.75,-0.0371 z"
       id="rect4260"
       inkscape:connector-curvature="0" />
    <path
       style="opacity:1;fill:#d7f8ff;fill-opacity:1;stroke:none"
       d="m 280.5139,107.51614 c -2.34634,0 -4.24545,1.90115 -4.24545,4.25 l 0,7.5 c 0,2.34885 1.89911,4.25 4.24545,4.25 l 12.86121,0 c 2.34636,0 4.20384,-1.90115 4.20384,-4.25 l 0,-7.5 c 0,-2.34885 -1.85748,-4.25 -4.20384,-4.25 l -12.86121,0 z m 25.09812,0.91668 c -2.49721,0.38426 -6.90927,4.59605 -6.90927,6.66666 0,2.54845 6.42575,8.28469 8.28279,6.20832 1.85706,-2.07636 1.55749,-10.38196 0,-12.45832 -0.29203,-0.38932 -0.79725,-0.50536 -1.37352,-0.41666 z"
       id="rect4440"
       inkscape:connector-curvature="0" />
    <circle
       style="fill:#797979;fill-opacity:0.51063831;stroke:none"
       id="path5000"
       cx="0"
       cy="0"
       r="0" />
    <path
       style="fill:#01d3ff;fill-opacity:1;stroke:none;stroke-width:4;stroke-linecap:butt;stroke-linejoin:miter;stroke-miterlimit:4;stroke-dasharray:none;stroke-dashoffset:0;stroke-opacity:1"
       d="m 100.26845,102.71227 a 59.5,59.5 0 0 0 -59.5,59.5 59.5,59.5 0 0 0 59.5,59.5 59.5,59.5 0 0 0 59.5,-59.5 59.5,59.5 0 0 0 -59.5,-59.5 z m 0,8 a 51.5,51.5 0 0 1 51.5,51.5 51.5,51.5 0 0 1 -51.5,51.5 51.5,51.5 0 0 1 -51.5,-51.5 51.5,51.5 0 0 1 51.5,-51.5 z"
       id="circle4229"
       inkscape:connector-curvature="0" />
    <path
       style="fill:#d7f8ff;fill-opacity:1;stroke:none;stroke-width:4;stroke-linecap:butt;stroke-linejoin:miter;stroke-miterlimit:4;stroke-dasharray:none;stroke-dashoffset:0;stroke-opacity:1"
       d="m 100.26845,112.21227 a 50,50 0 0 0 -50,50 50,50 0 0 0 50,50 50,50 0 0 0 50,-50 50,50 0 0 0 -50,-50 z m 0,1.5 a 48.5,48.5 0 0 1 48.5,48.5 48.5,48.5 0 0 1 -48.5,48.5 48.5,48.5 0 0 1 -48.5,-48.5 48.5,48.5 0 0 1 48.5,-48.5 z"
       id="circle4233"
       inkscape:connector-curvature="0" />
    <path
       style="fill:#d7f8ff;fill-opacity:1;stroke:none;stroke-width:3;stroke-linecap:butt;stroke-linejoin:miter;stroke-miterlimit:4;stroke-dasharray:none;stroke-dashoffset:0;stroke-opacity:1"
       d="m 157.77626,182.34508 a 61,61 0 0 1 -0.25781,0.70508 61,61 0 0 1 -0.002,0.006 61,61 0 0 1 -57.24805,40.15621 61,61 0 0 1 -15.75391,-2.20312 l -0.0137,0.0508 a 61,61 0 0 1 -0.72461,-0.19532 l -2.07226,7.73243 a 69,69 0 0 0 1.45312,0.37109 l 1.66797,-6.22656 a 62.5,62.5 0 0 0 73.88875,-38.45901 l 6.05469,2.20313 a 69,69 0 0 0 0.51367,-1.40821 l -7.50586,-2.73242 z"
       id="path4337"
       inkscape:connector-curvature="0" />
    <path
       style="color:#000000;font-style:normal;font-variant:normal;font-weight:normal;font-stretch:normal;font-size:medium;line-height:normal;font-family:sans-serif;text-indent:0;text-align:start;text-decoration:none;text-decoration-line:none;text-decoration-style:solid;text-decoration-color:#000000;letter-spacing:normal;word-spacing:normal;text-transform:none;direction:ltr;block-progression:tb;writing-mode:lr-tb;baseline-shift:baseline;text-anchor:start;white-space:normal;clip-rule:nonzero;display:inline;overflow:visible;visibility:visible;opacity:1;isolation:auto;mix-blend-mode:normal;color-interpolation:sRGB;color-interpolation-filters:linearRGB;solid-color:#000000;solid-opacity:1;fill:#d7f8ff;fill-opacity:1;fill-rule:nonzero;stroke:none;stroke-width:3;stroke-linecap:butt;stroke-linejoin:miter;stroke-miterlimit:4;stroke-dasharray:none;stroke-dashoffset:0;stroke-opacity:1;color-rendering:auto;image-rendering:auto;shape-rendering:auto;text-rendering:auto;enable-background:accumulate"
       d="m 113.11611,88.358753 -0.5625,0.683594 c -0.67756,0.823674 -1.35822,1.667493 -2.03907,2.513672 -3.39198,-0.504483 -6.81017,-0.830701 -10.24023,-0.84375 l -0.004,0 -0.006,0 c -8.82603,0.018 -17.55884,1.704405 -25.77929,4.904297 -0.98914,-0.716443 -1.97068,-1.411861 -2.90625,-1.978516 l -0.66797,-0.404297 -0.71485,0.314454 c -5.07526,2.238512 -9.88672,5.034477 -14.3457,8.333983 l -0.61719,0.45703 0.01,0.76758 c 0.0142,1.09819 0.118,2.30218 0.23828,3.52539 -16.82944,13.53906 -26.68222,33.94908 -26.71289,55.57813 l 0,0.002 0,0.002 c 0.019,12.12795 3.17322,24.0248 9.0625,34.61523 -0.55736,0.88962 -1.11033,1.77868 -1.63281,2.64843 l -0.4668,0.7754 0.46875,0.77343 c 6.25378,10.33006 14.90881,18.99603 25.23047,25.26367 l 0.78125,0.47461 0.7793,-0.47461 c 0.87234,-0.53206 1.76278,-1.09585 2.65429,-1.6621 3.2842,1.80494 6.69162,3.3795 10.21875,4.64843 l 1.40625,0.50586 3.59571,-9.87695 -1.42774,-0.50586 c -2.06161,-0.72964 -4.08134,-1.56895 -6.05273,-2.51562 l -0.008,-0.004 c -0.001,-6.3e-4 -0.003,-10e-4 -0.004,-0.002 -1.79589,-0.88359 -3.54766,-1.8544 -5.24805,-2.91016 l -0.008,-0.006 -0.008,-0.004 c -0.0367,-0.0222 -0.0727,-0.0442 -0.10938,-0.0664 l -0.002,-0.002 c -0.005,-0.003 -0.009,-0.005 -0.0137,-0.008 -1.64061,-1.02613 -3.23188,-2.12928 -4.76758,-3.30664 l -0.004,-0.004 -0.004,-0.004 c -0.10128,-0.0766 -0.20195,-0.15327 -0.30274,-0.23047 -1.46647,-1.13991 -2.87993,-2.34632 -4.23633,-3.61523 l -0.006,-0.004 -0.004,-0.002 c -0.1486,-0.13717 -0.29613,-0.27543 -0.44336,-0.41407 l -0.004,-0.006 c -10e-4,-9.5e-4 -0.003,-9.4e-4 -0.004,-0.002 -1.27792,-1.22151 -2.50289,-2.49832 -3.66993,-3.82617 l -0.004,-0.004 -0.004,-0.004 c -0.20005,-0.2245 -0.39703,-0.45031 -0.59375,-0.67774 l -0.008,-0.008 c -1.0859,-1.27456 -2.1183,-2.59359 -3.0957,-3.95312 l -0.004,-0.004 -0.004,-0.006 c -0.23027,-0.3156 -0.45749,-0.63316 -0.68164,-0.95313 l -0.006,-0.01 c -0.8957,-1.30051 -1.74109,-2.63393 -2.5332,-4 l -0.004,-0.008 -0.004,-0.008 c -0.32369,-0.54406 -0.63871,-1.09261 -0.94531,-1.64648 -0.37111,-0.67054 -0.73061,-1.3472 -1.07618,-2.03125 l 0,-0.002 c -4.13943,-8.37909 -6.29903,-17.59757 -6.31054,-26.94336 0.029,-17.30861 7.40764,-33.78778 20.30078,-45.33594 l 0.002,0 c 6.29059,-5.64247 13.68363,-9.91638 21.71289,-12.55078 l 0.004,-0.002 0.0703,-0.0234 c 6.10138,-2.01712 12.48366,-3.05844 18.91016,-3.08464 1.75858,0.0123 3.51467,0.10145 5.26562,0.26563 l 0.006,0 0.004,0 c 17.97602,1.58112 34.3258,11.03884 44.66015,25.83203 2.00891,2.89853 3.76328,5.96445 5.24219,9.16601 l 0.63086,1.36719 9.51367,-4.43555 -0.62695,-1.35742 c -2.31278,-5.00597 -5.23623,-9.69934 -8.63281,-14.04101 0.39088,-1.02873 0.78043,-2.05506 1.15234,-3.06836 l 0.30273,-0.82617 -0.57226,-0.66797 C 146.06823,100.4475 130.81308,91.651876 113.9814,88.520667 l -0.86718,-0.16211 z"
       id="path4417"
       inkscape:connector-curvature="0" />
    <path
       id="path4342"
       d="m 113.71181,89.995472 a 30,120 30 0 0 -2.52734,3.115235 70,70 0 0 0 -10.91602,-0.898438 70,70 0 0 0 -26.00391,5.066406 80,20 60 0 0 -3.46289,-2.357422 73.5,73.5 0 0 0 -14.05859,8.166017 80,20 60 0 0 0.2832,4.17773 70,70 0 0 0 -26.75781,54.94727 70,70 0 0 0 9.27148,34.70508 25,100 45 0 0 -2.05664,3.33203 73.5,73.5 0 0 0 24.72657,24.75977 25,100 45 0 0 3.35937,-2.10352 70,70 0 0 0 10.80274,4.95898 l 2.5664,-7.05078 a 62.5,62.5 0 0 1 -6.21484,-2.58398 62.5,62.5 0 0 1 -5.38867,-2.98828 62.5,62.5 0 0 1 -0.12891,-0.0781 62.5,62.5 0 0 1 -4.90039,-3.39844 62.5,62.5 0 0 1 -0.31055,-0.23632 62.5,62.5 0 0 1 -4.34961,-3.71094 62.5,62.5 0 0 1 -0.46289,-0.43164 62.5,62.5 0 0 1 -3.76758,-3.92774 62.5,62.5 0 0 1 -0.61718,-0.70312 62.5,62.5 0 0 1 -3.17969,-4.05859 62.5,62.5 0 0 1 -0.70508,-0.98633 62.5,62.5 0 0 1 -2.60156,-4.10938 62.5,62.5 0 0 1 -0.96875,-1.6875 62.5,62.5 0 0 1 -1.10156,-2.08203 62.5,62.5 0 0 1 -0.008,-0.0137 62.5,62.5 0 0 1 -6.46484,-27.60547 62.5,62.5 0 0 1 20.80078,-46.45508 62.5,62.5 0 0 1 22.24805,-12.85937 62.5,62.5 0 0 1 0.0703,-0.0234 62.5,62.5 0 0 1 19.38086,-3.162113 62.5,62.5 0 0 1 5.40625,0.271484 62.5,62.5 0 0 1 45.75977,26.466799 62.5,62.5 0 0 1 5.37304,9.39648 l 6.79492,-3.16797 a 70,70 0 0 0 -8.95312,-14.45507 30,120 30 0 0 1.42578,-3.80079 73.5,73.5 0 0 0 -42.36328,-24.42773 z"
       style="fill:#a2e1ee;fill-opacity:1;stroke:none;stroke-width:3;stroke-linecap:butt;stroke-linejoin:miter;stroke-miterlimit:4;stroke-dasharray:none;stroke-dashoffset:0;stroke-opacity:1"
       inkscape:connector-curvature="0" />
    <path
       style="fill:#d7f8ff;fill-opacity:1;stroke:none;stroke-width:3;stroke-linecap:butt;stroke-linejoin:miter;stroke-miterlimit:4;stroke-dasharray:none;stroke-dashoffset:0;stroke-opacity:1"
       d="m 164.81533,137.92125 -7.51172,2.73438 a 61,61 0 0 1 0.47461,1.42383 l 7.50976,-2.73438 a 69,69 0 0 0 -0.47265,-1.42383 z m 1.89843,5.70899 -7.73242,2.07226 a 61,61 0 0 1 0.34961,1.46094 l 7.72461,-2.07031 a 69,69 0 0 0 -0.3418,-1.46289 z m 1.33008,5.86914 -7.87695,1.38867 a 61,61 0 0 1 0.27734,1.47461 l 7.87891,-1.38867 a 69,69 0 0 0 -0.2793,-1.47461 z m 0.82422,5.95898 -7.96289,0.69727 a 61,61 0 0 1 0.17969,1.48828 l 7.96484,-0.69727 a 69,69 0 0 0 -0.18164,-1.48828 z m -7.62695,6.00391 a 61,61 0 0 1 0.0273,0.75 61,61 0 0 1 -0.0371,0.75 l 8,0 a 69,69 0 0 0 0.0371,-0.75 69,69 0 0 0 -0.0273,-0.75 l -8,0 z m -0.20118,5.31445 a 61,61 0 0 1 -0.0742,1.5 l 7.96484,0.69727 a 69,69 0 0 0 0.0762,-1.5 l -7.9668,-0.69727 z m -0.64453,5.27735 a 61,61 0 0 1 -0.22461,1.48242 l 7.87305,1.38867 a 69,69 0 0 0 0.22461,-1.48242 l -7.87305,-1.38867 z m -1.08984,5.20117 a 61,61 0 0 1 -0.37109,1.45312 l 7.71875,2.06836 a 69,69 0 0 0 0.37109,-1.45312 l -7.71875,-2.06836 z"
       id="path4365"
       inkscape:connector-curvature="0" />
    <path
       style="fill:#d7f8ff;fill-opacity:1;stroke:none;stroke-width:3;stroke-miterlimit:4;stroke-dasharray:none;stroke-opacity:1"
       d="m 232.69109,107.43879 c 2.15418,1.13091 3.66299,3.3153 3.66299,5.91713 0,3.73478 -3.02765,6.76243 -6.76243,6.76243 -3.73479,0 -6.76243,-3.02765 -6.76243,-6.76243 0,-1.36232 0.38706,-2.60148 1.08012,-3.66298 -4.85898,2.39274 -8.64089,5.82319 -8.64089,5.82319 0,0 8.98525,8.07736 17,8.07736 8.01473,1e-5 17,-8.07736 17,-8.07736 0,0 -8.67329,-7.80201 -16.57736,-8.07734 z m -3.09944,0.98618 c -2.73619,0 -4.93094,2.24171 -4.93094,4.9779 0,2.73619 2.19475,4.93095 4.93094,4.93095 2.7362,0 4.9779,-2.19476 4.9779,-4.93095 0,-2.73619 -2.2417,-4.9779 -4.9779,-4.9779 z"
       id="path4429"
       inkscape:connector-curvature="0" />
    <path
       style="opacity:1;fill:#a2e1ee;fill-opacity:1;stroke:none;stroke-width:3;stroke-linecap:butt;stroke-linejoin:miter;stroke-miterlimit:4;stroke-dasharray:none;stroke-dashoffset:0;stroke-opacity:1"
       d="m 232.26845,91.51614 a 24,24 0 0 0 -24,24 24,24 0 0 0 24,24 24,24 0 0 0 24,-24 24,24 0 0 0 -24,-24 z m 0,6 a 18,18 0 0 1 18,18 18,18 0 0 1 -18,18 18,18 0 0 1 -18,-18 18,18 0 0 1 18,-18 z"
       id="path4175"
       inkscape:connector-curvature="0" />
    <path
       style="color:#000000;font-style:normal;font-variant:normal;font-weight:normal;font-stretch:normal;font-size:medium;line-height:normal;font-family:sans-serif;text-indent:0;text-align:start;text-decoration:none;text-decoration-line:none;text-decoration-style:solid;text-decoration-color:#000000;letter-spacing:normal;word-spacing:normal;text-transform:none;direction:ltr;block-progression:tb;writing-mode:lr-tb;baseline-shift:baseline;text-anchor:start;white-space:normal;clip-rule:nonzero;display:inline;overflow:visible;visibility:visible;opacity:1;isolation:auto;mix-blend-mode:normal;color-interpolation:sRGB;color-interpolation-filters:linearRGB;solid-color:#000000;solid-opacity:1;fill:#d7f8ff;fill-opacity:1;fill-rule:nonzero;stroke:none;stroke-width:3;stroke-linecap:butt;stroke-linejoin:miter;stroke-miterlimit:4;stroke-dasharray:none;stroke-dashoffset:0;stroke-opacity:1;color-rendering:auto;image-rendering:auto;shape-rendering:auto;text-rendering:auto;enable-background:accumulate"
       d="m 232.26845,91.51614 a 24,24 0 0 0 -24,24 24,24 0 0 0 24,24 24,24 0 0 0 24,-24 24,24 0 0 0 -24,-24 z m 0,1.5 c 12.44417,0 22.5,10.05582 22.5,22.5 0,12.44417 -10.05583,22.5 -22.5,22.5 -12.44418,0 -22.5,-10.05583 -22.5,-22.5 0,-12.44418 10.05582,-22.5 22.5,-22.5 z m 0,3 c -10.75179,0 -19.5,8.74821 -19.5,19.5 0,10.75178 8.74821,19.5 19.5,19.5 10.75178,0 19.5,-8.74822 19.5,-19.5 0,-10.75179 -8.74822,-19.5 -19.5,-19.5 z m 0,1.5 a 18,18 0 0 1 18,18 18,18 0 0 1 -18,18 18,18 0 0 1 -18,-18 18,18 0 0 1 18,-18 z"
       id="path4399"
       inkscape:connector-curvature="0" />
    <flowRoot
       xml:space="preserve"
       id="flowRoot4408"
       style="font-style:normal;font-variant:normal;font-weight:normal;font-stretch:condensed;font-size:15px;line-height:125%;font-family:Arial;-inkscape-font-specification:'Arial Condensed';letter-spacing:0px;word-spacing:0px;fill:#000000;fill-opacity:1;stroke:none;stroke-width:1px;stroke-linecap:butt;stroke-linejoin:miter;stroke-opacity:1"
       transform="translate(268.26845,-84.483861)"><flowRegion
         id="flowRegion4410"><rect
           id="rect4412"
           width="72.303886"
           height="18.650175"
           x="2.0212014"
           y="50.586571"
           style="font-style:normal;font-variant:normal;font-weight:normal;font-stretch:condensed;font-size:15px;font-family:Arial;-inkscape-font-specification:'Arial Condensed'" /></flowRegion><flowPara
         id="flowPara4414" /></flowRoot>    <flowRoot
       xml:space="preserve"
       id="flowRoot4416"
       style="font-style:normal;font-variant:normal;font-weight:normal;font-stretch:normal;font-size:6px;line-height:125%;font-family:Arial;-inkscape-font-specification:Arial;letter-spacing:0px;word-spacing:0px;fill:#d7f8ff;fill-opacity:1;stroke:none;stroke-width:1px;stroke-linecap:butt;stroke-linejoin:miter;stroke-opacity:1"
       transform="translate(216.97402,161.62655)"><flowRegion
         id="flowRegion4418"><rect
           id="rect4420"
           width="81.858658"
           height="32.798588"
           x="0.82685512"
           y="47.92226"
           style="font-style:normal;font-variant:normal;font-weight:normal;font-stretch:normal;font-family:Arial;-inkscape-font-specification:Arial;fill:#d7f8ff;fill-opacity:1" /></flowRegion><flowPara
         id="flowPara4422"
         style="font-style:normal;font-variant:normal;font-weight:bold;font-stretch:normal;font-size:10px;font-family:Arial;-inkscape-font-specification:'Arial Bold';fill:#d7f8ff;fill-opacity:1">OPTIONS</flowPara></flowRoot>    <path
       style="opacity:1;fill:#a2e1ee;fill-opacity:1;stroke:#00cefa;stroke-width:0;stroke-linecap:butt;stroke-linejoin:round;stroke-miterlimit:4;stroke-dasharray:none;stroke-dashoffset:0;stroke-opacity:1"
       d="m 240.26845,157.51614 a 23.999994,23.999994 0 0 0 -5.45508,0.6582 7.9999962,31.999994 0 0 0 -0.75976,3.30664 20.999996,20.999996 0 0 0 -8.02735,4.62891 31.999994,7.9999962 30 0 0 -3.23633,-0.9961 23.999994,23.999994 0 0 0 -5.47851,9.42969 31.999994,7.9999962 30 0 0 2.49609,2.32422 20.999996,20.999996 0 0 0 -0.53906,4.64844 20.999996,20.999996 0 0 0 0.54492,4.63476 7.9999962,31.999994 60 0 0 -2.49414,2.31836 23.999994,23.999994 0 0 0 5.44922,9.44532 7.9999962,31.999994 60 0 0 3.25781,-1 20.999996,20.999996 0 0 0 8.03125,4.66211 7.9999962,31.999994 0 0 0 0.75391,3.28515 23.999994,23.999994 0 0 0 5.45703,0.6543 23.999994,23.999994 0 0 0 5.45508,-0.6582 7.9999962,31.999994 0 0 0 0.75976,-3.30664 20.999996,20.999996 0 0 0 8.02735,-4.62891 31.999994,7.9999962 30 0 0 3.23633,0.99609 23.999994,23.999994 0 0 0 5.47851,-9.42968 31.999994,7.9999962 30 0 0 -2.49609,-2.32422 20.999996,20.999996 0 0 0 0.53906,-4.64844 20.999996,20.999996 0 0 0 -0.54492,-4.63477 7.9999962,31.999994 60 0 0 2.49414,-2.31836 23.999994,23.999994 0 0 0 -5.44922,-9.44531 7.9999962,31.999994 60 0 0 -3.25781,1 20.999996,20.999996 0 0 0 -8.03125,-4.66211 7.9999962,31.999994 0 0 0 -0.75391,-3.28515 23.999994,23.999994 0 0 0 -5.45703,-0.6543 z m 0,12 a 11.999997,11.999997 0 0 1 12,12 11.999997,11.999997 0 0 1 -12,12 11.999997,11.999997 0 0 1 -12,-12 11.999997,11.999997 0 0 1 12,-12 z"
       id="circle4424"
       inkscape:connector-curvature="0" />
    <text
       xml:space="preserve"
       style="font-style:normal;font-variant:normal;font-weight:bold;font-stretch:normal;font-size:10px;line-height:125%;font-family:Arial;-inkscape-font-specification:'Arial Bold';letter-spacing:0px;word-spacing:0px;fill:#d7f8ff;fill-opacity:1;stroke:none;stroke-width:1px;stroke-linecap:butt;stroke-linejoin:miter;stroke-opacity:1"
       x="286.24014"
       y="219.38919"
       id="text4444"
       sodipodi:linespacing="125%"><tspan
         sodipodi:role="line"
         id="tspan4446"
         x="286.24014"
         y="219.38919">TILES</tspan></text>
    <path
       style="opacity:1;fill:#a2e1ee;fill-opacity:1;stroke:none;stroke-width:3;stroke-linecap:butt;stroke-linejoin:round;stroke-miterlimit:4;stroke-dasharray:none;stroke-dashoffset:0;stroke-opacity:1"
       d="m 276.26845,157.51614 0,12 12,0 0,-12 -12,0 z m 18,0 0,12 12,0 0,-12 -12,0 z m 18,0 0,12 12,0 0,-12 -12,0 z m -18,18 0,12 12,0 0,-12 -12,0 z m 18,0 0,12 12,0 0,-12 -12,0 z m -36,18 0,12 12,0 0,-12 -12,0 z m 18,0 0,12 12,0 0,-12 -12,0 z"
       id="rect4448"
       inkscape:connector-curvature="0" />
    <text
       xml:space="preserve"
       style="font-style:normal;font-weight:normal;font-size:12.5px;line-height:125%;font-family:Sans;letter-spacing:0px;word-spacing:0px;fill:#d7f8ff;fill-opacity:1;stroke:none;stroke-width:1px;stroke-linecap:butt;stroke-linejoin:miter;stroke-opacity:1"
       x="342.33878"
       y="219.39407"
       id="text4472"
       sodipodi:linespacing="125%"><tspan
         sodipodi:role="line"
         id="tspan4474"
         x="342.33878"
         y="219.39407"
         style="font-style:normal;font-variant:normal;font-weight:bold;font-stretch:normal;font-size:10px;font-family:Arial;-inkscape-font-specification:'Arial Bold'">GRAPH</tspan></text>
    <path
       style="opacity:1;fill:#a2e0ee;fill-opacity:1;stroke:none;stroke-width:3;stroke-linecap:butt;stroke-linejoin:round;stroke-miterlimit:4;stroke-dasharray:none;stroke-dashoffset:0;stroke-opacity:1"
       d="m 360.26951,157.81399 -3.18441,3.18441 -1.55941,1.55941 1.79004,0 0,16.00667 -16.00667,0 0,-1.79004 -1.5573,1.55729 -3.1844,3.18441 3.1844,3.18441 1.5573,1.55729 0,-1.79004 16.00667,0 0,16.00667 -1.79004,0 1.55941,1.55941 3.18441,3.18441 3.18229,-3.18441 1.5594,-1.55941 -1.79215,0 0,-16.00667 16.00667,0 0,1.79215 1.55941,-1.5594 3.18441,-3.18441 -3.18441,-3.18441 -1.55941,-1.55941 0,1.79216 -16.00667,0 0,-16.00667 1.79215,0 -1.5594,-1.55941 -3.18229,-3.18441 z"
       id="rect4476"
       inkscape:connector-curvature="0" />
    <text
       xml:space="preserve"
       style="font-style:normal;font-weight:normal;font-size:12.5px;line-height:125%;font-family:Sans;letter-spacing:0px;word-spacing:0px;fill:#000000;fill-opacity:1;stroke:none;stroke-width:1px;stroke-linecap:butt;stroke-linejoin:miter;stroke-opacity:1"
       x="394.13077"
       y="219.39407"
       id="text4552"
       sodipodi:linespacing="125%"><tspan
         sodipodi:role="line"
         id="tspan4554"
         x="394.13077"
         y="219.39407"
         style="font-style:normal;font-variant:normal;font-weight:bold;font-stretch:normal;font-size:10px;font-family:Arial;-inkscape-font-specification:'Arial Bold';fill:#d7f8ff;fill-opacity:1">PROGRAM</tspan></text>
    <path
       style="opacity:1;fill:#a2e1ee;fill-opacity:1;stroke:none;stroke-width:4.24128199;stroke-linecap:butt;stroke-linejoin:miter;stroke-miterlimit:4;stroke-dasharray:none;stroke-dashoffset:0;stroke-opacity:1"
       d="m 402.95667,157.53665 28.30307,0 c 7.90428,-0.20578 6.57357,1.01708 6.57357,9.18489 0.28007,6.6684 -0.69546,3.93806 5.68347,3.80637 6.37896,-0.13168 6.292,19.48755 0,18.97646 -6.29198,-0.5111 -5.68347,-2.11985 -5.68347,3.80637 0.18972,8.57338 0.95679,9.18489 -6.57357,9.18489 l -28.30307,0 c -7.90427,0.20578 -6.57357,-1.01708 -6.57357,-9.18489 0.28006,-6.6684 -0.69547,-3.93806 5.68346,-3.80637 6.37895,0.13168 6.292,-19.48755 0,-18.97646 -6.29198,0.51109 -5.68346,2.11985 -5.68346,-3.80637 -0.18972,-8.57338 -0.95678,-9.18489 6.57357,-9.18489 z"
       id="rect4556"
       inkscape:connector-curvature="0"
       sodipodi:nodetypes="ccczzcccczzcc" />
    <circle
       style="opacity:1;fill:#d7f8ff;fill-opacity:1;stroke:none;stroke-width:3.5588479;stroke-linecap:butt;stroke-linejoin:miter;stroke-miterlimit:4;stroke-dasharray:none;stroke-dashoffset:0;stroke-opacity:1"
       id="path4567"
       cx="424.26846"
       cy="123.51614"
       r="16" />
    <circle
       r="14.5"
       cy="123.68296"
       cx="424.10165"
       id="circle4569"
       style="opacity:1;fill:#a2e1ee;fill-opacity:1;stroke:none;stroke-width:3.2252059;stroke-linecap:butt;stroke-linejoin:miter;stroke-miterlimit:4;stroke-dasharray:none;stroke-dashoffset:0;stroke-opacity:1" />
    <circle
       r="3"
       cy="132.51614"
       cx="424.26846"
       id="circle4573"
       style="opacity:1;fill:#d7f8ff;fill-opacity:1;stroke:none;stroke-width:3.5588479;stroke-linecap:butt;stroke-linejoin:miter;stroke-miterlimit:4;stroke-dasharray:none;stroke-dashoffset:0;stroke-opacity:1" />
    <path
       style="opacity:1;fill:#d7f8ff;fill-opacity:1;stroke:none;stroke-width:3;stroke-linecap:butt;stroke-linejoin:miter;stroke-miterlimit:4;stroke-dasharray:none;stroke-dashoffset:0;stroke-opacity:1"
       d="m 424.26841,111.51624 c 3.14612,-0.0159 2.99896,1.77826 2.99896,1.77826 0,0 -0.30342,8.5532 -0.5278,11.19956 -0.22443,2.64636 -0.34106,3.02208 -2.47112,3.02208 -2.13006,0 -2.24669,-0.37572 -2.47112,-3.02208 -0.22441,-2.64636 -0.5278,-11.19956 -0.5278,-11.19956 0,0 -0.14724,-1.76241 2.99888,-1.77826 z"
       id="rect4577"
       inkscape:connector-curvature="0"
       sodipodi:nodetypes="zcssscz" />
  </g>
</svg>
