<?xml version="1.0" encoding="UTF-8" standalone="no"?>
<!-- Created with Inkscape (http://www.inkscape.org/) -->

<svg
   xmlns:dc="http://purl.org/dc/elements/1.1/"
   xmlns:cc="http://creativecommons.org/ns#"
   xmlns:rdf="http://www.w3.org/1999/02/22-rdf-syntax-ns#"
   xmlns:svg="http://www.w3.org/2000/svg"
   xmlns="http://www.w3.org/2000/svg"
   xmlns:sodipodi="http://sodipodi.sourceforge.net/DTD/sodipodi-0.dtd"
   xmlns:inkscape="http://www.inkscape.org/namespaces/inkscape"
   width="80"
   height="80"
   id="svg3858"
   version="1.1"
   inkscape:version="0.91 r13725"
   sodipodi:docname="Holo_HUD.svg"
   inkscape:export-filename="C:\git\vwf\public\mars-game\assets\images\hud\hud_2\rover_selector_frame.png"
   inkscape:export-xdpi="90"
   inkscape:export-ydpi="90">
  <defs
     id="defs3860" />
  <sodipodi:namedview
     id="base"
     pagecolor="#000000"
     bordercolor="#939393"
     borderopacity="1"
     inkscape:pageopacity="0"
     inkscape:pageshadow="2"
     inkscape:zoom="1.7929666"
     inkscape:cx="51.716938"
     inkscape:cy="-68.022631"
     inkscape:document-units="px"
     inkscape:current-layer="layer1"
     showgrid="false"
     inkscape:window-width="1920"
     inkscape:window-height="1018"
     inkscape:window-x="-8"
     inkscape:window-y="-8"
     inkscape:window-maximized="1"
     fit-margin-top="0"
     fit-margin-left="0"
     fit-margin-right="0"
     fit-margin-bottom="0"
     showguides="false">
    <inkscape:grid
       type="xygrid"
       id="grid3866"
       empspacing="5"
       visible="true"
       enabled="true"
       snapvisiblegridlinesonly="true"
       originx="-268.26845"
       originy="-1072.8461" />
  </sodipodi:namedview>
  <metadata
     id="metadata3863">
    <rdf:RDF>
      <cc:Work
         rdf:about="">
        <dc:format>image/svg+xml</dc:format>
        <dc:type
           rdf:resource="http://purl.org/dc/dcmitype/StillImage" />
        <dc:title></dc:title>
      </cc:Work>
    </rdf:RDF>
  </metadata>
  <g
     inkscape:label="Layer 1"
     inkscape:groupmode="layer"
     id="layer1"
     transform="translate(-268.26845,100.48386)">
    <path
       style="color:#000000;font-style:normal;font-variant:normal;font-weight:normal;font-stretch:normal;font-size:medium;line-height:normal;font-family:sans-serif;text-indent:0;text-align:start;text-decoration:none;text-decoration-line:none;text-decoration-style:solid;text-decoration-color:#000000;letter-spacing:normal;word-spacing:normal;text-transform:none;direction:ltr;block-progression:tb;writing-mode:lr-tb;baseline-shift:baseline;text-anchor:start;white-space:normal;clip-rule:nonzero;display:inline;overflow:visible;visibility:visible;opacity:1;isolation:auto;mix-blend-mode:normal;color-interpolation:sRGB;color-interpolation-filters:linearRGB;solid-color:#000000;solid-opacity:1;fill:#d7f8ff;fill-opacity:1;fill-rule:nonzero;stroke:none;stroke-width:3;stroke-linecap:butt;stroke-linejoin:miter;stroke-miterlimit:4;stroke-dasharray:none;stroke-dashoffset:0;stroke-opacity:1;color-rendering:auto;image-rendering:auto;shape-rendering:auto;text-rendering:auto;enable-background:accumulate"
       d="m 532.81533,70.69973 -0.62305,0.0859 c -19.29412,2.6472 -36.78377,12.74427 -48.72461,28.12891 l -0.38672,0.49609 0.2793,0.5625 c 0.82641,1.66343 1.66551,3.33645 2.51172,5.01367 -8.14366,11.57756 -12.57329,25.3623 -12.60352,39.52735 l 0,0.002 0,0.004 c 0.0203,6.11148 0.89815,12.18194 2.51953,18.07226 -1.41835,1.03286 -2.81805,2.06009 -4.17773,3.07618 l -0.56836,0.42382 0.21094,0.67578 c 3.27377,10.44831 8.81147,20.04623 16.21679,28.11133 l 0.47852,0.52344 0.65234,-0.2793 c 1.56106,-0.66939 3.15264,-1.36808 4.75781,-2.08008 12.92729,13.05446 30.5166,20.44645 48.90821,20.47266 l 0.002,0 54.53516,0 1.60937,6 19.85547,0 0,-6 0,-10 -24.14453,0 -51.85547,0 c -32.59665,0 -59,-26.40336 -59,-59 0,-32.59664 26.40335,-59 59,-59 l 76,0 0,-9 0,-5.74023 -37.62305,0 -1.27148,4.74023 -37.10547,0 -0.002,0 c -2.02754,0.003 -4.05112,0.12129 -6.07032,0.30273 -1.01266,-1.54284 -2.02462,-3.07831 -3.03515,-4.59765 l -0.3457,-0.52149 z m 49.36523,2.07618 34.08789,0 0,3.74023 0,7 -74,0 c -33.67753,0 -61,27.32248 -61,61 0,33.67753 27.32247,61 61,61 l 52.39062,0 1.60938,6 -53.99805,0 -0.002,0 c -18.08888,-0.0263 -35.39901,-7.36408 -47.99414,-20.34766 l -0.48633,-0.50195 -0.63672,0.2832 c -1.57607,0.70196 -3.12291,1.37431 -4.65625,2.03516 -6.81208,-7.56542 -11.94799,-16.47348 -15.08594,-26.1582 1.3343,-0.99328 2.68554,-1.99245 4.07618,-3.00196 l 0.5664,-0.41015 -0.19336,-0.67383 c -1.69755,-5.92596 -2.5688,-12.0584 -2.58984,-18.22266 l 0,-0.002 0,-0.004 c 0.031,-13.95872 4.4208,-27.5596 12.55664,-38.90234 l 0.35352,-0.49219 -0.27344,-0.54101 c -0.82972,-1.64208 -1.6463,-3.27542 -2.45703,-4.9043 11.48228,-14.53563 28.08241,-24.11877 46.41211,-26.79297 0.99281,1.49509 1.98561,2.99783 2.98047,4.51563 l 0.33203,0.50586 0.60156,-0.0586 c 2.15776,-0.2134 4.32585,-0.32289 6.49414,-0.32617 l 38.64062,0 1.27149,-4.74023 z m 15.85351,133.74023 17.23438,0 0,5 -15.89453,0 -1.33985,-5 z m 1.875,7 15.35938,0 0,3 -14.55469,0 -0.80469,-3 z"
       id="path4489"
       inkscape:connector-curvature="0" />
    <path
       style="opacity:1;fill:#d7f8ff;fill-opacity:1;fill-rule:nonzero;stroke:none;stroke-width:3;stroke-linecap:butt;stroke-linejoin:miter;stroke-miterlimit:4;stroke-dasharray:none;stroke-dashoffset:0;stroke-opacity:1"
       d="m 581.96123,86.51612 -3.67682,4.01616 c 17.70139,10.4484 29.52741,30.84107 29.54571,53.98186 l 0,0.002 0,0.002 c -0.0269,23.14382 -11.86189,43.52511 -29.56167,53.96443 l 3.69278,4.03359 36.30722,0 0,-115.99991 -36.30722,0 z m 0.56374,1.48718 34.38197,0 0,113.02555 -34.38197,0 -2.09014,-2.28304 c 17.2533,-10.9516 28.73012,-31.22139 28.75681,-54.22586 l 0,-0.002 0,-0.002 0,-0.002 0,-0.002 c -0.0182,-23.00171 -11.4863,-43.28259 -28.74085,-54.24328 l 2.07418,-2.26563 z"
       id="rect4236"
       inkscape:connector-curvature="0" />
    <path
       style="color:#000000;font-style:normal;font-variant:normal;font-weight:normal;font-stretch:normal;font-size:medium;line-height:normal;font-family:sans-serif;text-indent:0;text-align:start;text-decoration:none;text-decoration-line:none;text-decoration-style:solid;text-decoration-color:#000000;letter-spacing:normal;word-spacing:normal;text-transform:none;direction:ltr;block-progression:tb;writing-mode:lr-tb;baseline-shift:baseline;text-anchor:start;white-space:normal;clip-rule:nonzero;display:inline;overflow:visible;visibility:visible;opacity:1;isolation:auto;mix-blend-mode:normal;color-interpolation:sRGB;color-interpolation-filters:linearRGB;solid-color:#000000;solid-opacity:1;fill:#d7f8ff;fill-opacity:1;fill-rule:nonzero;stroke:none;stroke-width:3;stroke-linecap:butt;stroke-linejoin:miter;stroke-miterlimit:4;stroke-dasharray:none;stroke-dashoffset:0;stroke-opacity:1;color-rendering:auto;image-rendering:auto;shape-rendering:auto;text-rendering:auto;enable-background:accumulate"
       d="m 402.95703,136.03711 c -1.90289,0 -3.31539,0.0222 -4.51758,0.25586 -1.20219,0.23368 -2.34563,0.82725 -2.95507,1.85547 -0.60945,1.02822 -0.69253,2.14931 -0.7129,3.49804 -0.0204,1.34874 0.0644,2.98604 0.11133,5.10743 -8.8e-4,1.4315 -0.0439,2.41316 0.006,3.22656 0.0251,0.41088 0.061,0.79414 0.24219,1.24414 0.1812,0.45 0.63131,0.9717 1.13867,1.19141 1.01472,0.4394 1.64079,0.18202 2.48828,0.0488 0.84749,-0.1332 1.92193,-0.31894 3.42969,-0.44141 0.40042,-0.0325 0.6484,0.0514 0.99414,0.33594 0.34574,0.28454 0.73713,0.81366 1.06836,1.55078 0.66247,1.47424 1.06329,3.71872 1.06836,5.96679 0.005,2.24808 -0.38372,4.51729 -1.05078,6.04688 -0.33353,0.76479 -0.73304,1.33089 -1.10156,1.6543 -0.36853,0.3234 -0.65517,0.43431 -1.06836,0.42578 -1.48701,-0.0307 -2.50188,-0.20548 -3.26172,-0.36524 -0.75984,-0.15975 -1.13194,-0.49566 -2.23242,-0.24414 -0.55025,0.12577 -1.16758,0.70043 -1.36329,1.16602 -0.1957,0.46559 -0.21604,0.8175 -0.24414,1.21875 -0.0562,0.80249 -0.0427,1.83384 -0.11132,3.46875 l -0.002,0.0312 0,0.0312 c 0,2.00122 -0.0827,3.58344 -0.084,4.9082 -10e-4,1.32477 0.0297,2.43468 0.5664,3.5 0.53666,1.06533 1.67497,1.77552 2.91211,2.04297 1.23715,0.26745 2.70514,0.2868 4.71875,0.23438 l 28.26368,0 c 1.90289,0 3.31538,-0.0241 4.51757,-0.25782 1.2022,-0.23368 2.34564,-0.82725 2.95508,-1.85547 0.60945,-1.02821 0.69253,-2.14931 0.71289,-3.49804 0.0204,-1.34873 -0.0663,-2.98604 -0.11328,-5.10742 l 0.002,0.0332 c 0,-1.4019 -0.0221,-2.30236 0,-2.85938 0.15624,0.004 0.0108,0.0176 0.40821,0.0801 0.80803,0.127 2.01411,0.33568 3.65234,0.46875 1.17258,0.0952 2.3061,-0.32168 3.14453,-1.01172 0.83843,-0.69004 1.43443,-1.60847 1.89649,-2.63672 0.92411,-2.0565 1.32622,-4.61306 1.33203,-7.18945 0.006,-2.57639 -0.3867,-5.15594 -1.30078,-7.25195 -0.45705,-1.04801 -1.04799,-1.98862 -1.8711,-2.71094 -0.82311,-0.72232 -1.92783,-1.19627 -3.10937,-1.17187 -1.70246,0.0351 -2.95829,0.25081 -3.81836,0.43164 -0.22232,0.0467 -0.0715,0.043 -0.24414,0.0664 -0.0238,-0.60631 -0.033,-1.41408 -0.0899,-2.80469 0,-2.00122 0.0827,-3.58344 0.084,-4.90821 10e-4,-1.32476 -0.0317,-2.43272 -0.56836,-3.49804 -0.53665,-1.06533 -1.67496,-1.77747 -2.91211,-2.04492 -1.23715,-0.26746 -2.70318,-0.28485 -4.7168,-0.23243 l -28.26367,0 z m 0,3 28.32227,0 0.0195,0 c 1.93852,-0.0505 3.26943,0.007 4.00586,0.16602 0.73642,0.1592 0.74848,0.22529 0.86719,0.46093 0.1187,0.23565 0.24727,0.9512 0.24609,2.14649 -10e-4,1.19528 -0.084,2.82747 -0.084,4.91015 l 0,0.0332 0,0.0312 c 0.0687,1.63491 0.0551,2.66431 0.11133,3.4668 0.0281,0.40124 0.0484,0.75511 0.24414,1.2207 0.19571,0.4656 0.81499,1.0383 1.36524,1.16407 1.10049,0.25152 1.47063,-0.0824 2.23047,-0.24219 0.75984,-0.15976 1.77471,-0.33649 3.26172,-0.36719 0.41319,-0.008 0.70178,0.10238 1.07031,0.42578 0.36853,0.3234 0.76803,0.89146 1.10156,1.65625 0.66707,1.52959 1.05389,3.79685 1.04883,6.04492 -0.005,2.24807 -0.40589,4.49256 -1.06836,5.9668 -0.33124,0.73712 -0.72262,1.26623 -1.06836,1.55078 -0.34574,0.28455 -0.59177,0.37042 -0.99219,0.33789 -1.50776,-0.12247 -2.58415,-0.30821 -3.43164,-0.4414 -0.84749,-0.1332 -1.47356,-0.39058 -2.48828,0.0488 -0.50736,0.2197 -0.95551,0.73945 -1.13672,1.18945 -0.1812,0.45 -0.21705,0.83521 -0.24219,1.24609 -0.0503,0.82177 -0.006,1.80193 -0.006,3.25781 l 0,0.0176 0,0.0156 c 0.0479,2.16531 0.12911,3.81891 0.11133,4.9961 -0.0178,1.17719 -0.17855,1.81734 -0.29492,2.01367 -0.11637,0.19633 -0.17934,0.29056 -0.94531,0.43945 -0.76597,0.1489 -2.08303,0.20313 -3.94531,0.20313 l -28.32227,0 -0.0195,0 c -1.93853,0.0505 -3.26944,-0.007 -4.00586,-0.16602 -0.73643,-0.1592 -0.74848,-0.22529 -0.86719,-0.46093 -0.1187,-0.23565 -0.24728,-0.9512 -0.24609,-2.14649 0.001,-1.18007 0.08,-2.80472 0.082,-4.84961 l 0.002,-0.0606 c 0,-8.3e-4 0,-0.001 0,-0.002 0.0568,-1.38964 0.0661,-2.19631 0.0899,-2.80273 0.17325,0.0234 0.0225,0.0194 0.24609,0.0664 0.86007,0.18083 2.11395,0.39454 3.81641,0.42968 1.18154,0.0244 2.28626,-0.4476 3.10937,-1.16992 0.82311,-0.72232 1.416,-1.66293 1.87305,-2.71094 0.91408,-2.09601 1.30658,-4.67556 1.30078,-7.25195 -0.006,-2.57639 -0.40792,-5.13295 -1.33203,-7.18945 -0.46206,-1.02825 -1.06001,-1.94863 -1.89844,-2.63867 -0.83843,-0.69004 -1.97,-1.10502 -3.14258,-1.00977 -1.63823,0.13307 -2.84626,0.3398 -3.65429,0.4668 -0.39743,0.0625 -0.25198,0.0763 -0.40821,0.0801 -0.022,-0.55723 0,-1.45837 0,-2.85938 l 0,-0.0156 0,-0.0176 c -0.0479,-2.1653 -0.1291,-3.8189 -0.11133,-4.99609 0.0178,-1.17719 0.1766,-1.81539 0.29297,-2.01172 0.11637,-0.19633 0.1813,-0.29251 0.94727,-0.44141 0.76597,-0.14889 2.08303,-0.20117 3.94531,-0.20117 z"
       id="path4563"
       inkscape:connector-curvature="0" />
    <path
       style="opacity:1;fill:#d7f8ff;fill-opacity:1;stroke:none;stroke-width:3;stroke-linecap:butt;stroke-linejoin:miter;stroke-miterlimit:4;stroke-dasharray:none;stroke-dashoffset:0;stroke-opacity:1"
       d="m 336.26845,137.51614 0,19.17383 0.91992,-0.91993 0.46485,-0.46484 0,-7.17383 7.17382,0 0.10938,-0.10937 0,0.10937 0.10156,0 0,6.8086 1.8457,0 0,-6.8086 6.8086,0 0,-1.8457 -6.8086,0 0,-0.10156 -0.10937,0 0.10937,-0.10938 0,-7.17382 7.17383,0 0.46485,-0.46485 0.91992,-0.91992 -19.17383,0 z m 28.82812,0 0.91993,0.91992 0.46484,0.46484 7.17188,0 0,7.17188 0.11132,0.11133 -0.11132,0 0,0.10156 -6.80665,0 0,1.8457 6.80665,0 0,6.8086 1.8457,0 0,-6.8086 0.10351,0 0,-0.10937 0.10938,0.10937 7.17187,0 0,7.17188 0.4668,0.46679 0.91797,0.91797 0,-19.17187 -19.17188,0 z m -4.82617,0.82812 -2.91992,2.91993 -0.91992,0.91992 1.26172,0 0,16.75586 -16.75586,0 0,-1.26172 -0.91992,0.91992 -2.91797,2.91797 2.91797,2.91992 0.91992,0.91992 0,-1.26172 16.75586,0 0,16.75586 -1.26172,0 0.91992,0.91993 2.91992,2.91796 2.91797,-2.91796 0.91992,-0.91993 -1.26172,0 0,-16.75586 16.75586,0 0,1.26172 0.91993,-0.91992 2.91796,-2.91992 -2.91796,-2.91797 -0.91993,-0.91992 0,1.26172 -16.75586,0 0,-16.75586 1.26172,0 -0.91992,-0.91992 -2.91797,-2.91993 z m -22.61718,0.55664 7.38476,0 0,7.38477 -7.38476,0 0,-7.38477 z m 37.8457,0 7.38476,0 0,7.38477 -7.38476,0 0,-7.38477 z m -39.23047,27.44336 0,19.17188 19.17187,0 -0.91796,-0.91797 -0.4668,-0.4668 -7.17188,0 0,-7.17187 -0.10937,-0.10938 0.10937,0 0,-0.10351 6.8086,0 0,-1.8457 -6.8086,0 0,-6.80665 -1.8457,0 0,6.80665 -0.10156,0 0,0.11132 -0.11133,-0.11132 -7.17187,0 0,-7.17188 -0.46485,-0.46484 -0.91992,-0.91993 z m 48,0.002 -0.91797,0.91797 -0.4668,0.4668 0,7.16992 -7.16992,0 -0.11133,0.11133 0,-0.11133 -0.10351,0 0,-6.80664 -1.8457,0 0,6.80664 -6.80665,0 0,1.84571 6.80665,0 0,0.10351 0.11132,0 -0.11132,0.11133 0,7.16992 -7.16993,0 -0.46679,0.4668 -0.91797,0.91797 19.16992,0 0,-19.16993 z m -46.61523,10.4004 7.38476,0 0,7.38476 -7.38476,0 0,-7.38476 z m 37.8457,0 7.38476,0 0,7.38476 -7.38476,0 0,-7.38476 z"
       id="rect4493"
       inkscape:connector-curvature="0" />
    <path
       style="opacity:1;fill:#d7f8ff;fill-opacity:1;stroke:none;stroke-width:3;stroke-linecap:butt;stroke-linejoin:miter;stroke-miterlimit:4;stroke-dasharray:none;stroke-dashoffset:0;stroke-opacity:1"
       d="m 360.26845,135.51614 -4.33333,4.33333 -4.33334,4.33334 4.09001,0 0,12.75667 -12.75667,0 0,-4.09001 -4.33334,4.33334 -4.33333,4.33333 4.33333,4.33333 4.33334,4.33334 0,-4.09001 12.75667,0 0,12.75667 -4.09001,0 4.33334,4.33334 4.33333,4.33333 4.33333,-4.33333 4.33334,-4.33334 -4.09001,0 0,-12.75667 12.75667,0 0,4.09001 4.33334,-4.33334 4.33333,-4.33333 -4.33333,-4.33333 -4.33334,-4.33334 0,4.09001 -12.75667,0 0,-12.75667 4.09001,0 -4.33334,-4.33334 -4.33333,-4.33333 z"
       id="path4488"
       inkscape:connector-curvature="0" />
    <path
       style="color:#000000;font-style:normal;font-variant:normal;font-weight:normal;font-stretch:normal;font-size:medium;line-height:normal;font-family:sans-serif;text-indent:0;text-align:start;text-decoration:none;text-decoration-line:none;text-decoration-style:solid;text-decoration-color:#000000;letter-spacing:normal;word-spacing:normal;text-transform:none;direction:ltr;block-progression:tb;writing-mode:lr-tb;baseline-shift:baseline;text-anchor:start;white-space:normal;clip-rule:nonzero;display:inline;overflow:visible;visibility:visible;opacity:1;isolation:auto;mix-blend-mode:normal;color-interpolation:sRGB;color-interpolation-filters:linearRGB;solid-color:#000000;solid-opacity:1;fill:#d7f8ff;fill-opacity:1;fill-rule:nonzero;stroke:none;stroke-width:3;stroke-linecap:butt;stroke-linejoin:round;stroke-miterlimit:4;stroke-dasharray:none;stroke-dashoffset:0;stroke-opacity:1;color-rendering:auto;image-rendering:auto;shape-rendering:auto;text-rendering:auto;enable-background:accumulate"
       d="m 276.26845,136.01614 a 1.50015,1.50015 0 0 0 -1.5,1.5 l 0,12 a 1.50015,1.50015 0 0 0 1.5,1.5 l 12,0 a 1.50015,1.50015 0 0 0 1.5,-1.5 l 0,-12 a 1.50015,1.50015 0 0 0 -1.5,-1.5 l -12,0 z m 18,0 a 1.50015,1.50015 0 0 0 -1.5,1.5 l 0,12 a 1.50015,1.50015 0 0 0 1.5,1.5 l 12,0 a 1.50015,1.50015 0 0 0 1.5,-1.5 l 0,-12 a 1.50015,1.50015 0 0 0 -1.5,-1.5 l -12,0 z m 18,0 a 1.50015,1.50015 0 0 0 -1.5,1.5 l 0,12 a 1.50015,1.50015 0 0 0 1.5,1.5 l 12,0 a 1.50015,1.50015 0 0 0 1.5,-1.5 l 0,-12 a 1.50015,1.50015 0 0 0 -1.5,-1.5 l -12,0 z m -34.5,3 9,0 0,9 -9,0 0,-9 z m 18,0 9,0 0,9 -9,0 0,-9 z m 18,0 9,0 0,9 -9,0 0,-9 z m -19.5,15 a 1.50015,1.50015 0 0 0 -1.5,1.5 l 0,12 a 1.50015,1.50015 0 0 0 1.5,1.5 l 12,0 a 1.50015,1.50015 0 0 0 1.5,-1.5 l 0,-12 a 1.50015,1.50015 0 0 0 -1.5,-1.5 l -12,0 z m 18,0 a 1.50015,1.50015 0 0 0 -1.5,1.5 l 0,12 a 1.50015,1.50015 0 0 0 1.5,1.5 l 12,0 a 1.50015,1.50015 0 0 0 1.5,-1.5 l 0,-12 a 1.50015,1.50015 0 0 0 -1.5,-1.5 l -12,0 z m -16.5,3 9,0 0,9 -9,0 0,-9 z m 18,0 9,0 0,9 -9,0 0,-9 z m -37.5,15 a 1.50015,1.50015 0 0 0 -1.5,1.5 l 0,12 a 1.50015,1.50015 0 0 0 1.5,1.5 l 12,0 a 1.50015,1.50015 0 0 0 1.5,-1.5 l 0,-12 a 1.50015,1.50015 0 0 0 -1.5,-1.5 l -12,0 z m 18,0 a 1.50015,1.50015 0 0 0 -1.5,1.5 l 0,12 a 1.50015,1.50015 0 0 0 1.5,1.5 l 12,0 a 1.50015,1.50015 0 0 0 1.5,-1.5 l 0,-12 a 1.50015,1.50015 0 0 0 -1.5,-1.5 l -12,0 z m -16.5,3 9,0 0,9 -9,0 0,-9 z m 18,0 9,0 0,9 -9,0 0,-9 z"
       id="path4468"
       inkscape:connector-curvature="0" />
    <path
       style="color:#000000;font-style:normal;font-variant:normal;font-weight:normal;font-stretch:normal;font-size:medium;line-height:normal;font-family:sans-serif;text-indent:0;text-align:start;text-decoration:none;text-decoration-line:none;text-decoration-style:solid;text-decoration-color:#000000;letter-spacing:normal;word-spacing:normal;text-transform:none;direction:ltr;block-progression:tb;writing-mode:lr-tb;baseline-shift:baseline;text-anchor:start;white-space:normal;clip-rule:nonzero;display:inline;overflow:visible;visibility:visible;opacity:1;isolation:auto;mix-blend-mode:normal;color-interpolation:sRGB;color-interpolation-filters:linearRGB;solid-color:#000000;solid-opacity:1;fill:#d7f8ff;fill-opacity:1;fill-rule:nonzero;stroke:none;stroke-width:3;stroke-linecap:butt;stroke-linejoin:round;stroke-miterlimit:4;stroke-dasharray:none;stroke-dashoffset:0;stroke-opacity:1;color-rendering:auto;image-rendering:auto;shape-rendering:auto;text-rendering:auto;enable-background:accumulate"
       d="m 240.26064,136.01614 c -1.95241,0.0105 -3.89802,0.24498 -5.79688,0.69922 a 1.50015,1.50015 0 0 0 -1.09961,1.07617 c -0.21747,0.82235 -0.41118,1.72247 -0.60351,2.62695 -2.5648,0.91309 -4.92874,2.27682 -7.00391,4.03906 -0.87766,-0.28581 -1.75265,-0.56759 -2.57226,-0.79101 a 1.50015,1.50015 0 0 0 -1.48633,0.41797 c -2.68341,2.84872 -4.67456,6.27745 -5.82032,10.01953 a 1.50015,1.50015 0 0 0 0.375,1.50391 c 0.60684,0.60355 1.29456,1.22449 1.98633,1.84765 -0.25159,1.34017 -0.46551,2.68983 -0.4707,4.05469 a 1.50015,1.50015 0 0 0 0,0.0137 c 0.008,1.35954 0.22241,2.7044 0.47461,4.03906 -0.68948,0.62025 -1.37495,1.24087 -1.98047,1.8418 a 1.50015,1.50015 0 0 0 -0.37891,1.5 c 1.13434,3.74511 3.1147,7.17853 5.78907,10.03516 a 1.50015,1.50015 0 0 0 1.48828,0.42187 c 0.82463,-0.22379 1.70611,-0.50772 2.58984,-0.79492 2.07508,1.77431 4.44179,3.14659 7.01172,4.06836 0.19084,0.898 0.38204,1.79224 0.59766,2.60937 a 1.50015,1.50015 0 0 0 1.10351,1.07618 c 1.8997,0.45299 3.84394,0.68637 5.79688,0.69531 a 1.50015,1.50015 0 0 0 0.0156,0 c 1.95241,-0.0105 3.89802,-0.24499 5.79688,-0.69922 a 1.50015,1.50015 0 0 0 1.09961,-1.07617 c 0.21747,-0.82235 0.41117,-1.72248 0.60351,-2.62696 2.5648,-0.91308 4.92874,-2.27681 7.00391,-4.03906 0.87766,0.28581 1.75265,0.5676 2.57226,0.79102 a 1.50015,1.50015 0 0 0 1.48633,-0.41797 c 2.68341,-2.84873 4.67456,-6.27746 5.82031,-10.01953 a 1.50015,1.50015 0 0 0 -0.375,-1.50391 c -0.60683,-0.60355 -1.29455,-1.22449 -1.98632,-1.84766 0.25159,-1.34017 0.46551,-2.68982 0.4707,-4.05468 a 1.50015,1.50015 0 0 0 0,-0.0137 c -0.008,-1.35954 -0.22241,-2.70441 -0.47461,-4.03907 0.68948,-0.62024 1.37495,-1.24086 1.98047,-1.84179 a 1.50015,1.50015 0 0 0 0.37891,-1.5 c -1.13434,-3.74511 -3.1147,-7.17853 -5.78907,-10.03516 a 1.50015,1.50015 0 0 0 -1.48828,-0.42187 c -0.82464,0.22379 -1.70611,0.50771 -2.58984,0.79492 -2.07508,-1.77431 -4.44179,-3.1466 -7.01172,-4.06836 -0.19085,-0.89801 -0.38204,-1.79224 -0.59766,-2.60938 a 1.50015,1.50015 0 0 0 -1.10351,-1.07617 c -1.8997,-0.45299 -3.84394,-0.68637 -5.79688,-0.69531 a 1.50015,1.50015 0 0 0 -0.0156,0 z m 0.008,3 c 1.42395,0.007 2.83271,0.23277 4.22852,0.50781 0.17499,0.72189 0.35399,1.43302 0.51171,2.22461 a 1.50015,1.50015 0 0 0 1.02344,1.13867 c 2.77781,0.86845 5.32535,2.34858 7.45703,4.33008 a 1.50015,1.50015 0 0 0 1.50391,0.32031 c 0.77507,-0.26294 1.48906,-0.46598 2.21094,-0.67773 1.86224,2.15529 3.29104,4.62927 4.22461,7.32031 -0.5443,0.51872 -1.07844,1.03322 -1.69336,1.57227 a 1.50015,1.50015 0 0 0 -0.47266,1.46875 c 0.32759,1.40942 0.49719,2.84992 0.50586,4.29687 -0.006,1.45035 -0.17344,2.89546 -0.5,4.3086 a 1.50015,1.50015 0 0 0 0.4707,1.46484 c 0.61551,0.54031 1.14902,1.05838 1.69336,1.57812 -0.94233,2.6885 -2.37647,5.15901 -4.24609,7.3086 -0.71636,-0.21088 -1.42494,-0.4147 -2.19336,-0.67578 a 1.50015,1.50015 0 0 0 -1.5,0.31836 c -2.13364,1.96992 -4.67939,3.437 -7.45313,4.29687 a 1.50015,1.50015 0 0 0 -1.02734,1.14063 c -0.15933,0.79944 -0.33869,1.5178 -0.51562,2.24609 -1.39628,0.2764 -2.80386,0.5036 -4.22852,0.51172 -1.42396,-0.007 -2.83271,-0.23277 -4.22852,-0.50781 -0.17499,-0.72189 -0.35399,-1.43303 -0.51171,-2.22461 a 1.50015,1.50015 0 0 0 -1.02344,-1.13867 c -2.77781,-0.86845 -5.32535,-2.34859 -7.45703,-4.33008 a 1.50015,1.50015 0 0 0 -1.50391,-0.32032 c -0.77507,0.26295 -1.48906,0.46599 -2.21094,0.67774 -1.86224,-2.15529 -3.29104,-4.62927 -4.22461,-7.32031 0.5443,-0.51872 1.07844,-1.03322 1.69336,-1.57227 a 1.50015,1.50015 0 0 0 0.47266,-1.46875 c -0.3276,-1.40942 -0.49719,-2.84992 -0.50586,-4.29687 0.006,-1.45035 0.17344,-2.89547 0.5,-4.3086 a 1.50015,1.50015 0 0 0 -0.4707,-1.46484 c -0.61551,-0.54032 -1.14902,-1.05838 -1.69336,-1.57813 0.94233,-2.68849 2.37647,-5.159 4.24609,-7.30859 0.71636,0.21088 1.42494,0.41469 2.19336,0.67578 a 1.50015,1.50015 0 0 0 1.5,-0.31836 c 2.13364,-1.96993 4.67939,-3.437 7.45313,-4.29687 a 1.50015,1.50015 0 0 0 1.02734,-1.14063 c 0.15933,-0.79944 0.33869,-1.51781 0.51562,-2.24609 1.39628,-0.2764 2.80385,-0.5036 4.22852,-0.51172 z m 0,9 c -7.43808,0 -13.5,6.06192 -13.5,13.5 0,7.43808 6.06192,13.5 13.5,13.5 7.43808,0 13.5,-6.06192 13.5,-13.5 0,-7.43808 -6.06192,-13.5 -13.5,-13.5 z m 0,3 c 5.81676,0 10.5,4.68324 10.5,10.5 0,5.81676 -4.68324,10.5 -10.5,10.5 -5.81676,0 -10.5,-4.68324 -10.5,-10.5 0,-5.81676 4.68324,-10.5 10.5,-10.5 z"
       id="path4440"
       inkscape:connector-curvature="0" />
    <path
       style="opacity:1;fill:#d7f8ff;fill-opacity:1;stroke:none;stroke-width:3;stroke-linecap:butt;stroke-linejoin:miter;stroke-miterlimit:4;stroke-dasharray:none;stroke-dashoffset:0;stroke-opacity:1"
       d="m 350.228,85.51614 a 7.8794147,4.1668043 0 0 0 -7.87899,4.16664 7.8794147,4.1668043 0 0 0 7.87899,4.16665 7.8794147,4.1668043 0 0 0 0.47237,-0.013 l 0.0687,0.35974 a 3.2362922,6.3828845 85.08127 0 0 -4.07777,1.66888 3.0812894,6.0722423 86.27627 0 0 -4.87133,-1.41855 3.0812894,6.0722423 86.27627 0 0 -0.21987,0.004 3.0812894,6.0722423 86.27627 0 0 -0.4277,0.0185 3.0812894,6.0722423 86.27627 0 0 -5.90194,3.44903 3.0812894,6.0722423 86.27627 0 0 6.21628,2.70544 3.0812894,6.0722423 86.27627 0 0 0.19066,-0.0148 2.7207132,5.3616608 86.27627 0 1 -5.35916,-2.39392 2.7207132,5.3616608 86.27627 0 1 5.21316,-3.04664 2.7207132,5.3616608 86.27627 0 1 4.73392,1.11444 3.2362922,6.3828845 85.08127 0 0 -0.3985,0.59339 l -4.2461,0.5841 a 0.26837031,2.4097759 10.882413 0 0 0.12367,-2.02305 0.26837031,2.4097759 10.882413 0 0 -0.64069,1.9118 3.1146381,0.3778418 18.022927 0 0 -2.78093,-0.50252 3.1146381,0.3778418 18.022927 0 0 2.63664,1.24795 0.26837031,2.4097759 10.882413 0 0 -0.13226,2.07684 0.26837031,2.4097759 10.882413 0 0 0.63898,-1.91181 3.1146381,0.3778418 18.022927 0 0 2.78264,0.50252 3.1146381,0.3778418 18.022927 0 0 -1.41022,-0.79921 l 2.8273,-0.38755 a 3.2362922,6.3828845 85.08127 0 0 0,0.3004 5.679027,6.3856535 88.212633 0 0 0.17005,0.83444 3.2362922,6.3830492 85.081248 0 1 5.98267,-3.30068 3.2362922,6.3830492 85.081248 0 1 6.57528,2.16955 5.679027,6.3856535 88.212633 0 0 -0.0155,-0.86782 3.2362922,6.3828845 85.08127 0 0 -0.25422,-0.71762 5.9538297,3.5011253 0 0 0 5.19083,1.80054 5.9538297,3.5011253 0 0 0 5.95347,-3.50095 5.9538297,3.5011253 0 0 0 -5.95347,-3.49909 5.9538297,3.5011253 0 0 0 -5.95348,3.49909 5.9538297,3.5011253 0 0 0 0.23704,0.97167 l -0.11852,0.0167 a 3.2362922,6.3828845 85.08127 0 0 -5.68723,-1.21458 l -0.0567,-0.29669 a 7.8794147,4.1668043 0 0 0 5.93286,-2.73511 6.7603094,3.1559229 0 0 1 -6.03077,2.2159 l -0.43629,-2.30862 a 4.8795103,0.55367955 33.044257 0 0 3.51265,1.62994 4.8795103,0.55367955 33.044257 0 0 -3.19832,-2.72398 0.42801354,3.2397034 58.016914 0 0 1.8551,-1.64293 0.42801354,3.2397034 58.016914 0 0 -2.62462,1.13484 4.8795103,0.55367955 33.044257 0 0 -3.29107,-1.86173 6.7603094,3.1559229 0 0 1 3.75485,-0.53219 6.7603094,3.1559229 0 0 1 6.76078,3.15605 6.7603094,3.1559229 0 0 1 -0.30231,0.93272 7.8794147,4.1668043 0 0 0 0.43972,-1.3518 7.8794147,4.1668043 0 0 0 -7.88071,-4.16664 z m -3.42848,2.19736 a 4.8795103,0.55367955 33.044257 0 0 2.92692,2.27525 0.42801354,3.2397034 58.016914 0 0 -1.85509,1.64292 0.42801354,3.2397034 58.016914 0 0 2.24329,-0.91047 l 0.47408,2.52187 a 6.7603094,3.1559229 0 0 1 -6.13899,-3.14121 6.7603094,3.1559229 0 0 1 2.34979,-2.38836 z m 16.12728,4.0183 a 5.4213734,2.9001859 0 0 1 5.42271,2.90015 5.4213734,2.9001859 0 0 1 -5.42271,2.90015 5.4213734,2.9001859 0 0 1 -4.84385,-1.60584 3.2362922,6.3828845 85.08127 0 0 -0.0361,-0.0556 l 1.22985,-0.16874 a 0.42928624,3.2300985 75.113027 0 0 3.23611,-0.42649 0.42928624,3.2300985 75.113027 0 0 0.16661,-0.0482 2.1722702,0.26352162 18.022927 0 0 1.77952,0.30225 2.1722702,0.26352162 18.022927 0 0 -0.95159,-0.54331 0.42928624,3.2300985 75.113027 0 0 2.00624,-0.95498 0.42928624,3.2300985 75.113027 0 0 -0.25593,-0.0946 0.42928624,3.2300985 75.113027 0 0 -2.98532,0.51365 0.42928624,3.2300985 75.113027 0 0 -0.16662,0.0464 2.1722702,0.26352162 18.022927 0 0 -1.77951,-0.30225 2.1722702,0.26352162 18.022927 0 0 0.94987,0.54331 0.42928624,3.2300985 75.113027 0 0 -0.10649,0.0352 l -3.52983,0.48583 a 5.4213734,2.9001859 0 0 1 -0.13398,-0.62676 5.4213734,2.9001859 0 0 1 5.42099,-2.90015 z m -9.91444,4.95844 a 3.2362922,6.3830492 85.081248 0 0 -1.05122,0.0519 3.2362922,6.3830492 85.081248 0 0 -5.81434,2.80743 5.679027,6.3856535 88.212633 0 0 3.22236,2.92797 5.679027,6.3856535 88.212633 0 0 6.35541,-0.58226 5.679027,6.3856535 88.212633 0 0 2.53186,-3.45088 3.2362922,6.3830492 85.081248 0 0 -5.24407,-1.75418 z m 4.69442,4.69142 a 6.600437,4.7092285 0 0 1 -0.27827,0.28742 2.3378093,4.6070786 86.27627 0 1 0.14944,0.51364 2.3378093,4.6070786 86.27627 0 1 -4.47799,2.6183 2.3378093,4.6070786 86.27627 0 1 -4.71846,-2.05273 2.3378093,4.6070786 86.27627 0 1 0.002,-0.0278 6.600437,4.7092285 0 0 1 -0.52561,-0.28742 2.6858561,5.2929686 86.27627 0 0 -0.15116,0.70464 2.6858561,5.2929686 86.27627 0 0 5.42271,2.35869 2.6858561,5.2929686 86.27627 0 0 5.14445,-3.0077 2.6858561,5.2929686 86.27627 0 0 -0.56683,-1.10703 z m -3.71706,1.99153 a 6.600437,4.7092285 0 0 1 -0.55653,0.0964 1.8845287,0.21383806 33.044257 0 0 1.21612,0.54517 1.8845287,0.21383806 33.044257 0 0 -0.65959,-0.64159 z m -3.18114,0.0909 a 0.3305499,2.4871724 75.113027 0 0 -0.14257,0.16689 0.3305499,2.4871724 75.113027 0 0 1.39304,-0.0705 6.600437,4.7092285 0 0 1 -1.25047,-0.0964 z"
       id="ellipse4265"
       inkscape:connector-curvature="0" />
    <path
       style="opacity:1;fill:#d7f8ff;fill-opacity:1;stroke:none;stroke-width:3;stroke-linecap:butt;stroke-linejoin:miter;stroke-miterlimit:4;stroke-dasharray:none;stroke-dashoffset:0;stroke-opacity:1"
       d="m 292.26845,71.51614 a 24,24 0 0 0 -0.75,0.0371 l 0,5.99023 a 18,18 0 0 1 0.75,-0.0273 18,18 0 0 1 0.75,0.0371 l 0,-6.00976 a 24,24 0 0 0 -0.75,-0.0273 z m 3.42383,0.26953 -0.58399,3.31445 a 21,21 0 0 1 1.47657,0.25 l 0.58203,-3.30078 a 24,24 0 0 0 -1.47461,-0.26367 z m -6.84571,0.006 a 24,24 0 0 0 -1.48046,0.23828 l 0.59961,3.40234 a 21,21 0 0 1 1.47265,-0.2832 l -0.5918,-3.35742 z m -4.07031,0.94336 a 24,24 0 0 0 -1.41015,0.51367 l 1.18554,3.25977 a 21,21 0 0 1 1.41211,-0.51368 l -1.1875,-3.25976 z m 14.98242,0.0117 -1.14257,3.13672 a 21,21 0 0 1 1.41796,0.49218 l 1.14063,-3.13476 a 24,24 0 0 0 -1.41602,-0.49414 z m -18.83203,1.62695 a 24,24 0 0 0 -1.28711,0.76953 l 1.7461,3.02539 a 21,21 0 0 1 1.28906,-0.76757 l -1.74805,-3.02735 z m 22.67578,0.01 -1.65429,2.86719 a 21,21 0 0 1 1.29687,0.75391 l 1.65821,-2.87305 a 24,24 0 0 0 -1.30079,-0.74805 z m 3.50782,2.27735 -2.12891,2.53711 a 21,21 0 0 1 1.16016,0.95312 l 2.10156,-2.50586 a 24,24 0 0 0 -1.13281,-0.98437 z m -29.66993,0.0176 a 24,24 0 0 0 -1.15039,0.96289 l 2.26172,2.69726 a 21,21 0 0 1 1.14258,-0.97265 l -2.25391,-2.6875 z m 32.70313,2.85937 -2.48828,2.08789 a 21,21 0 0 1 0.99023,1.12891 l 2.46094,-2.06446 A 24,24 0 0 0 310.14345,79.538 Z m -35.74609,0.004 a 24,24 0 0 0 -0.98438,1.13281 l 2.70313,2.26758 a 21,21 0 0 1 0.97461,-1.14258 L 274.39736,79.542 Z m -2.51368,3.33984 a 24,24 0 0 0 -0.74804,1.30079 l 3.01953,1.74218 a 21,21 0 0 1 0.76367,-1.29101 l -3.03516,-1.75196 z m 40.75977,0.006 -2.75586,1.58985 a 21,21 0 0 1 0.76953,1.28906 l 2.75391,-1.58984 a 24,24 0 0 0 -0.76758,-1.28907 z m -42.65039,3.72226 a 24,24 0 0 0 -0.49414,1.41797 l 3.24805,1.18164 a 21,21 0 0 1 0.51562,-1.41016 l -3.26953,-1.18945 z m 44.54297,0.004 -2.94727,1.07227 a 21,21 0 0 1 0.52344,1.40429 l 2.9375,-1.06836 a 24,24 0 0 0 -0.51367,-1.4082 z m 1.21875,4 -3.05274,0.53711 a 21,21 0 0 1 0.28907,1.47266 l 3.00195,-0.5293 a 24,24 0 0 0 -0.23828,-1.48047 z m -46.95313,0.004 a 24,24 0 0 0 -0.26367,1.47461 l 3.36133,0.59375 a 21,21 0 0 1 0.28516,-1.47266 l -3.38282,-0.5957 z m -0.50586,4.14844 a 24,24 0 0 0 -0.0273,0.75 24,24 0 0 0 0.0371,0.75 l 5.99023,0 a 18,18 0 0 1 -0.0273,-0.75 18,18 0 0 1 0.0371,-0.75 l -6.00977,0 z m 41.94532,0 a 18,18 0 0 1 0.0273,0.75 18,18 0 0 1 -0.0371,0.75 l 6.00977,0 a 24,24 0 0 0 0.0273,-0.75 24,24 0 0 0 -0.0371,-0.75 l -5.99023,0 z m -38.38868,3.58789 -3.30859,0.58398 a 24,24 0 0 0 0.23828,1.48047 l 3.31836,-0.58398 a 21,21 0 0 1 -0.24805,-1.48047 z m 41.18946,0.0645 a 21,21 0 0 1 -0.25586,1.47656 l 2.94922,0.51953 a 24,24 0 0 0 0.26367,-1.47461 l -2.95703,-0.52148 z m -40.40625,3.44531 -3.14844,1.14649 a 24,24 0 0 0 0.51367,1.4082 l 3.12891,-1.13867 a 21,21 0 0 1 -0.49414,-1.41602 z m 39.58984,0.11719 a 21,21 0 0 1 -0.49414,1.41797 l 2.8125,1.02344 a 24,24 0 0 0 0.49414,-1.41797 l -2.8125,-1.02344 z m -38.2207,3.21289 -2.87891,1.66211 a 24,24 0 0 0 0.76758,1.28906 l 2.86523,-1.6543 a 21,21 0 0 1 -0.7539,-1.29687 z m 36.81054,0.16406 a 21,21 0 0 1 -0.76367,1.29102 l 2.60157,1.50195 a 24,24 0 0 0 0.74804,-1.30078 l -2.58594,-1.49219 z m -34.86523,2.8711 -2.51953,2.11328 a 24,24 0 0 0 0.96289,1.15234 l 2.50781,-2.10351 a 21,21 0 0 1 -0.95117,-1.16211 z m 32.86328,0.18945 a 21,21 0 0 1 -0.9707,1.14453 l 2.29687,1.92773 a 24,24 0 0 0 0.98438,-1.13281 l -2.31055,-1.93945 z m -30.43555,2.48437 -2.08593,2.48438 a 24,24 0 0 0 1.13476,0.98437 l 2.07813,-2.47656 a 21,21 0 0 1 -1.12696,-0.99219 z m 27.93946,0.1875 a 21,21 0 0 1 -1.14649,0.96875 l 1.92578,2.29493 a 24,24 0 0 0 1.1504,-0.96289 l -1.92969,-2.30079 z m -25.08985,2.04883 -1.59375,2.76172 a 24,24 0 0 0 1.30079,0.74805 l 1.58593,-2.74805 a 21,21 0 0 1 -1.29297,-0.76172 z m 22.17383,0.15821 a 21,21 0 0 1 -1.28906,0.76757 l 1.49805,2.59375 a 24,24 0 0 0 1.28711,-0.76953 l -1.4961,-2.59179 z m -11.88281,0.18164 0,6.00976 a 24,24 0 0 0 0.75,0.0273 24,24 0 0 0 0.75,-0.0371 l 0,-5.99023 a 18,18 0 0 1 -0.75,0.0273 18,18 0 0 1 -0.75,-0.0371 z m -7.08008,1.35546 -1.07617,2.95704 a 24,24 0 0 0 1.41602,0.49414 l 1.06445,-2.92383 a 21,21 0 0 1 -1.4043,-0.52735 z m 15.71289,0.14454 a 21,21 0 0 1 -1.41797,0.49609 l 1.02735,2.82227 a 24,24 0 0 0 1.41015,-0.51368 l -1.01953,-2.80468 z m -12.24609,0.9707 -0.53516,3.0332 a 24,24 0 0 0 1.47461,0.26367 l 0.53125,-3.00586 a 21,21 0 0 1 -1.4707,-0.29101 z m 8.74219,0.0859 a 21,21 0 0 1 -1.47852,0.25195 l 0.52148,2.95313 a 24,24 0 0 0 1.48047,-0.23828 l -0.52343,-2.9668 z"
       id="rect4182"
       inkscape:connector-curvature="0" />
    <path
       style="fill:#d7f8ff;fill-opacity:1;stroke:none;stroke-width:4;stroke-linecap:butt;stroke-linejoin:miter;stroke-miterlimit:4;stroke-dasharray:none;stroke-dashoffset:0;stroke-opacity:1"
       d="m 120.26845,95.21227 a 47,47 0 0 0 -0.75,0.0371 l 0,3.99023 a 43,43 0 0 1 0.75,-0.0273 43,43 0 0 1 0.75,0.0371 l 0,-4.00976 a 47,47 0 0 0 -0.75,-0.0273 z m 3.34766,0.11914 -0.35157,4.03125 a 43,43 0 0 1 1.49805,0.0957 l 0.34375,-3.94531 a 47,47 0 0 0 -1.49023,-0.18164 z m -6.69141,0.0488 a 47,47 0 0 0 -1.49805,0.0898 l 0.35157,4.02539 a 43,43 0 0 1 1.49023,-0.17773 l -0.34375,-3.9375 z m 10.76172,0.44727 -0.69922,3.96679 a 43,43 0 0 1 1.48242,0.22461 l 0.69141,-3.91992 a 47,47 0 0 0 -1.47461,-0.27148 z m -14.83008,0.0312 a 47,47 0 0 0 -1.48242,0.22461 l 0.69726,3.95312 a 43,43 0 0 1 1.47461,-0.26953 l -0.68945,-3.9082 z m 18.83984,0.80859 -1.03906,3.87305 a 43,43 0 0 1 1.45508,0.37109 l 1.04102,-3.88281 a 47,47 0 0 0 -1.45704,-0.36133 z m -22.85156,0.0156 a 47,47 0 0 0 -1.45312,0.37109 l 1.02929,3.83985 a 43,43 0 0 1 1.45508,-0.36328 l -1.03125,-3.84766 z m -3.92578,1.16211 a 47,47 0 0 0 -1.41016,0.51367 l 1.35352,3.7168 a 43,43 0 0 1 1.42383,-0.47266 l -1.36719,-3.75781 z m 30.69922,0.002 -1.36523,3.75195 a 43,43 0 0 1 1.4082,0.51367 l 1.38086,-3.79297 a 47,47 0 0 0 -1.42383,-0.47265 z m -34.51563,1.49219 a 47,47 0 0 0 -1.34961,0.65234 l 1.67774,3.59961 a 43,43 0 0 1 1.36914,-0.61328 l -1.69727,-3.63868 z m 38.32227,0.0176 -1.67969,3.60352 a 43,43 0 0 1 1.35157,0.65234 l 1.69726,-3.64257 a 47,47 0 0 0 -1.36914,-0.61334 z m -41.99414,1.79688 a 47,47 0 0 0 -1.28125,0.78516 l 1.99414,3.45507 a 43,43 0 0 1 1.30273,-0.74804 l -2.01562,-3.49219 z m 45.6582,0.0332 -1.98047,3.42773 a 43,43 0 0 1 1.28125,0.78516 l 2,-3.4668 a 47,47 0 0 0 -1.30078,-0.74609 z m -49.15429,2.10937 a 47,47 0 0 0 -1.20899,0.88868 l 2.29883,3.2832 a 43,43 0 0 1 1.2207,-0.87305 l -2.31054,-3.29883 z m 52.65039,0.0254 -2.27735,3.25196 a 43,43 0 0 1 1.21094,0.88672 l 2.28516,-3.26563 a 47,47 0 0 0 -1.21875,-0.87305 z m 3.30078,2.42774 -2.57813,3.07226 a 43,43 0 0 1 1.15235,0.95899 l 2.55273,-3.04102 a 47,47 0 0 0 -1.12695,-0.99023 z m -59.22657,0.008 a 47,47 0 0 0 -1.15429,0.96094 l 2.58789,3.08203 a 43,43 0 0 1 1.12695,-0.99024 l -2.56055,-3.05273 z m 62.30665,2.69726 -2.85938,2.85938 a 43,43 0 0 1 1.08984,1.03125 l 2.79688,-2.79688 a 47,47 0 0 0 -1.02734,-1.09375 z m -65.36133,0.0332 a 47,47 0 0 0 -1.09375,1.02735 l 2.85937,2.85937 a 43,43 0 0 1 1.03125,-1.08984 l -2.79687,-2.79688 z m 68.1582,2.96094 -3.08203,2.58789 a 43,43 0 0 1 0.99023,1.12696 l 3.05274,-2.56055 a 47,47 0 0 0 -0.96094,-1.1543 z m -70.9668,0.0195 a 47,47 0 0 0 -0.99023,1.12695 l 3.07226,2.57813 a 43,43 0 0 1 0.95899,-1.15234 l -3.04102,-2.55274 z m 73.5,3.20117 -3.2832,2.29883 a 43,43 0 0 1 0.87305,1.2207 l 3.29883,-2.31054 a 47,47 0 0 0 -0.88868,-1.20899 z m -76.04492,0.008 a 47,47 0 0 0 -0.87305,1.21875 l 3.25196,2.27735 a 43,43 0 0 1 0.88672,-1.21094 l -3.26563,-2.28516 z m -2.26172,3.41407 a 47,47 0 0 0 -0.74609,1.30078 l 3.42773,1.98047 a 43,43 0 0 1 0.78516,-1.28125 l -3.4668,-2 z m 80.55274,0.002 -3.45508,1.99414 a 43,43 0 0 1 0.74805,1.30273 l 3.49218,-2.01562 a 47,47 0 0 0 -0.78515,-1.28125 z m -82.51563,3.59375 a 47,47 0 0 0 -0.61328,1.36914 l 3.60352,1.67969 a 43,43 0 0 1 0.65234,-1.35157 l -3.64258,-1.69726 z m 84.46289,0.01 -3.59961,1.67773 a 43,43 0 0 1 0.61329,1.36914 l 3.63867,-1.69726 a 47,47 0 0 0 -0.65235,-1.34961 z m -86.11328,3.74218 a 47,47 0 0 0 -0.47265,1.42383 l 3.75195,1.36524 a 43,43 0 0 1 0.51367,-1.40821 l -3.79297,-1.38086 z m 87.7461,0.0137 -3.7168,1.35352 a 43,43 0 0 1 0.47266,1.42383 l 3.75781,-1.36719 a 47,47 0 0 0 -0.51367,-1.41016 z m -89.03711,3.875 a 47,47 0 0 0 -0.36133,1.45704 l 3.87304,1.03906 a 43,43 0 0 1 0.3711,-1.45508 l -3.88281,-1.04102 z m 90.34179,0.008 -3.83984,1.0293 a 43,43 0 0 1 0.36328,1.45508 l 3.84766,-1.03125 a 47,47 0 0 0 -0.3711,-1.45313 z m 0.97071,3.98243 -3.95313,0.69726 a 43,43 0 0 1 0.26953,1.47461 l 3.90821,-0.68945 a 47,47 0 0 0 -0.22461,-1.48242 z m -92.24219,0.002 a 47,47 0 0 0 -0.27149,1.4746 l 3.9668,0.69922 a 43,43 0 0 1 0.22461,-1.48242 l -3.91992,-0.6914 z m 92.85547,4.05078 -4.02539,0.35156 a 43,43 0 0 1 0.17773,1.49023 l 3.9375,-0.34375 a 47,47 0 0 0 -0.0898,-1.49804 z m -93.44141,0.004 a 47,47 0 0 0 -0.18164,1.49023 l 4.03125,0.35156 a 43,43 0 0 1 0.0957,-1.49804 l -3.94531,-0.34375 z m -0.27344,4.08789 a 47,47 0 0 0 -0.0273,0.75 47,47 0 0 0 0.0371,0.75 l 3.99023,0 a 43,43 0 0 1 -0.0273,-0.75 43,43 0 0 1 0.0371,-0.75 l -4.00977,0 z m 89.94532,0 a 43,43 0 0 1 0.0273,0.75 43,43 0 0 1 -0.0371,0.75 l 4.00977,0 a 47,47 0 0 0 0.0273,-0.75 47,47 0 0 0 -0.0371,-0.75 l -3.99023,0 z m -0.12305,3.74609 a 43,43 0 0 1 -0.0957,1.49805 l 3.94531,0.34375 a 47,47 0 0 0 0.18164,-1.49024 l -4.03125,-0.35156 z m -85.74414,0.004 -3.9375,0.34375 a 47,47 0 0 0 0.0898,1.49805 l 4.02539,-0.35156 a 43,43 0 0 1 -0.17773,-1.49024 z m 85.3125,3.71875 a 43,43 0 0 1 -0.22461,1.48242 l 3.91992,0.69141 a 47,47 0 0 0 0.27149,-1.47461 l -3.9668,-0.69922 z m -84.86328,0.004 -3.90821,0.68945 a 47,47 0 0 0 0.22461,1.48243 l 3.95313,-0.69727 a 43,43 0 0 1 -0.26953,-1.47461 z m 84.11719,3.66602 a 43,43 0 0 1 -0.3711,1.45508 l 3.88281,1.04101 a 47,47 0 0 0 0.36133,-1.45703 l -3.87304,-1.03906 z m -83.35352,0.004 -3.84766,1.03125 a 47,47 0 0 0 0.3711,1.45312 l 3.83984,-1.02929 a 43,43 0 0 1 -0.36328,-1.45508 z m 1.07226,3.58984 -3.75781,1.36719 a 47,47 0 0 0 0.51367,1.41016 l 3.7168,-1.35352 a 43,43 0 0 1 -0.47266,-1.42383 z m 81.22266,0.002 a 43,43 0 0 1 -0.51367,1.4082 l 3.79297,1.38086 a 47,47 0 0 0 0.47265,-1.42382 l -3.75195,-1.36524 z m -79.84766,3.48438 -3.63867,1.69726 a 47,47 0 0 0 0.65235,1.34961 l 3.59961,-1.67773 a 43,43 0 0 1 -0.61329,-1.36914 z m 78.48633,0.008 a 43,43 0 0 1 -0.65234,1.35156 l 3.64258,1.69727 a 47,47 0 0 0 0.61328,-1.36915 l -3.60352,-1.67961 z m -76.81836,3.3457 -3.49218,2.01563 a 47,47 0 0 0 0.78515,1.28125 l 3.45508,-1.99415 a 43,43 0 0 1 -0.74805,-1.30273 z m 75.16407,0.0176 a 43,43 0 0 1 -0.78516,1.28125 l 3.4668,2 a 47,47 0 0 0 0.74609,-1.30078 l -3.42773,-1.9804 z m -73.21485,3.18359 -3.29883,2.31055 a 47,47 0 0 0 0.88868,1.20899 l 3.2832,-2.29883 a 43,43 0 0 1 -0.87305,-1.22071 z m 71.25586,0.0156 a 43,43 0 0 1 -0.88672,1.21094 l 3.26563,2.28516 a 47,47 0 0 0 0.87304,-1.21875 l -3.25195,-2.27735 z m -2.24805,3 a 43,43 0 0 1 -0.95898,1.15235 l 3.04102,2.55273 a 47,47 0 0 0 0.99023,-1.12695 l -3.07227,-2.57813 z m -66.79296,0.01 -3.05274,2.56055 a 47,47 0 0 0 0.96094,1.15429 l 3.08203,-2.58789 a 43,43 0 0 1 -0.99023,-1.12695 z m 64.30078,2.78906 a 43,43 0 0 1 -1.03125,1.08984 l 2.79687,2.79688 a 47,47 0 0 0 1.09375,-1.02734 l -2.85937,-2.85938 z m -61.82617,0.0293 -2.79688,2.79687 a 47,47 0 0 0 1.02734,1.09375 l 2.85938,-2.85937 a 43,43 0 0 1 -1.08984,-1.03125 z m 59.10351,2.54492 a 43,43 0 0 1 -1.12695,0.99023 l 2.56055,3.05274 a 47,47 0 0 0 1.15429,-0.96094 l -2.58789,-3.08203 z m -56.36719,0.0195 -2.55273,3.04102 a 47,47 0 0 0 1.12695,0.99023 l 2.57813,-3.07227 a 43,43 0 0 1 -1.15235,-0.95898 z m 53.43555,2.3125 a 43,43 0 0 1 -1.2207,0.87305 l 2.31054,3.29883 a 47,47 0 0 0 1.20899,-0.88868 l -2.29883,-3.2832 z m -50.49414,0.008 -2.28516,3.26563 a 47,47 0 0 0 1.21875,0.87304 l 2.27735,-3.25195 a 43,43 0 0 1 -1.21094,-0.88672 z m 3.12891,2.06055 -2,3.4668 a 47,47 0 0 0 1.30078,0.74609 l 1.98047,-3.42773 a 43,43 0 0 1 -1.28125,-0.78516 z m 44.24609,0.006 a 43,43 0 0 1 -1.30273,0.74805 l 2.01562,3.49218 a 47,47 0 0 0 1.28125,-0.78515 l -1.99414,-3.45508 z m -40.95313,1.78125 -1.69726,3.64258 a 47,47 0 0 0 1.36914,0.61328 l 1.67969,-3.60352 a 43,43 0 0 1 -1.35157,-0.65234 z m 37.66602,0.0215 a 43,43 0 0 1 -1.36914,0.61329 l 1.69727,3.63867 a 47,47 0 0 0 1.34961,-0.65235 l -1.67774,-3.59961 z m -34.23047,1.47852 -1.38086,3.79297 a 47,47 0 0 0 1.42383,0.47265 l 1.36523,-3.75195 a 43,43 0 0 1 -1.4082,-0.51367 z m 30.79883,0.0371 a 43,43 0 0 1 -1.42383,0.47266 l 1.36719,3.75781 a 47,47 0 0 0 1.41016,-0.51367 l -1.35352,-3.7168 z m -27.25,1.16406 -1.04102,3.88281 a 47,47 0 0 0 1.45704,0.36133 l 1.03906,-3.87304 a 43,43 0 0 1 -1.45508,-0.3711 z m 23.69141,0.0176 a 43,43 0 0 1 -1.45508,0.36328 l 1.03125,3.84766 a 47,47 0 0 0 1.45312,-0.3711 l -1.02929,-3.83984 z m -3.65039,0.85742 a 43,43 0 0 1 -1.47461,0.26953 l 0.68945,3.90821 a 47,47 0 0 0 1.48242,-0.22461 l -0.69726,-3.95313 z m -16.39844,0.0176 -0.69141,3.91992 a 47,47 0 0 0 1.47461,0.27149 l 0.69922,-3.9668 a 43,43 0 0 1 -1.48242,-0.22461 z m 12.6914,0.52344 a 43,43 0 0 1 -1.49023,0.17773 l 0.34375,3.9375 a 47,47 0 0 0 1.49805,-0.0898 l -0.35157,-4.02539 z m -8.98437,0.0371 -0.34375,3.94531 a 47,47 0 0 0 1.49023,0.18164 l 0.35157,-4.03125 a 43,43 0 0 1 -1.49805,-0.0957 z m 3.74414,0.20898 0,4.00977 a 47,47 0 0 0 0.75,0.0273 47,47 0 0 0 0.75,-0.0371 l 0,-3.99023 a 43,43 0 0 1 -0.75,0.0273 43,43 0 0 1 -0.75,-0.0371 z"
       id="rect4260"
       inkscape:connector-curvature="0" />
    <path
       style="opacity:1;fill:#d7f8ff;fill-opacity:1;stroke:none"
       d="m 280.5139,87.51614 c -2.34634,0 -4.24545,1.90115 -4.24545,4.25 l 0,7.5 c 0,2.34885 1.89911,4.25 4.24545,4.25 l 12.86121,0 c 2.34636,0 4.20384,-1.90115 4.20384,-4.25 l 0,-7.5 c 0,-2.34885 -1.85748,-4.25 -4.20384,-4.25 l -12.86121,0 z m 25.09812,0.91668 c -2.49721,0.38426 -6.90927,4.59605 -6.90927,6.66666 0,2.54845 6.42575,8.28469 8.28279,6.20832 1.85706,-2.07636 1.55749,-10.38196 0,-12.45832 -0.29203,-0.38932 -0.79725,-0.50536 -1.37352,-0.41666 z"
       id="rect4440"
       inkscape:connector-curvature="0" />
    <circle
       style="fill:#797979;fill-opacity:0.51063831;stroke:none"
       id="path5000"
       cx="0"
       cy="0"
       r="0" />
    <path
       style="fill:#01d3ff;fill-opacity:1;stroke:none;stroke-width:4;stroke-linecap:butt;stroke-linejoin:miter;stroke-miterlimit:4;stroke-dasharray:none;stroke-dashoffset:0;stroke-opacity:1"
       d="m 120.26845,82.71227 a 59.5,59.5 0 0 0 -59.5,59.5 59.5,59.5 0 0 0 59.5,59.5 59.5,59.5 0 0 0 59.5,-59.5 59.5,59.5 0 0 0 -59.5,-59.5 z m 0,8 a 51.5,51.5 0 0 1 51.5,51.5 51.5,51.5 0 0 1 -51.5,51.5 51.5,51.5 0 0 1 -51.5,-51.5 51.5,51.5 0 0 1 51.5,-51.5 z"
       id="circle4229"
       inkscape:connector-curvature="0" />
    <path
       style="fill:#d7f8ff;fill-opacity:1;stroke:none;stroke-width:4;stroke-linecap:butt;stroke-linejoin:miter;stroke-miterlimit:4;stroke-dasharray:none;stroke-dashoffset:0;stroke-opacity:1"
       d="m 120.26845,92.21227 a 50,50 0 0 0 -50,50 50,50 0 0 0 50,50 50,50 0 0 0 50,-50 50,50 0 0 0 -50,-50 z m 0,1.5 a 48.5,48.5 0 0 1 48.5,48.5 48.5,48.5 0 0 1 -48.5,48.5 48.5,48.5 0 0 1 -48.5,-48.5 48.5,48.5 0 0 1 48.5,-48.5 z"
       id="circle4233"
       inkscape:connector-curvature="0" />
    <path
       style="fill:#d7f8ff;fill-opacity:1;stroke:none;stroke-width:3;stroke-linecap:butt;stroke-linejoin:miter;stroke-miterlimit:4;stroke-dasharray:none;stroke-dashoffset:0;stroke-opacity:1"
       d="m 177.77626,162.34508 a 61,61 0 0 1 -0.25781,0.70508 61,61 0 0 1 -0.002,0.006 61,61 0 0 1 -57.24805,40.15621 61,61 0 0 1 -15.75391,-2.20312 l -0.0137,0.0508 a 61,61 0 0 1 -0.72461,-0.19532 l -2.07226,7.73243 a 69,69 0 0 0 1.45312,0.37109 l 1.66797,-6.22656 a 62.5,62.5 0 0 0 73.88875,-38.45901 l 6.05469,2.20313 a 69,69 0 0 0 0.51367,-1.40821 l -7.50586,-2.73242 z"
       id="path4337"
       inkscape:connector-curvature="0" />
    <path
       style="color:#000000;font-style:normal;font-variant:normal;font-weight:normal;font-stretch:normal;font-size:medium;line-height:normal;font-family:sans-serif;text-indent:0;text-align:start;text-decoration:none;text-decoration-line:none;text-decoration-style:solid;text-decoration-color:#000000;letter-spacing:normal;word-spacing:normal;text-transform:none;direction:ltr;block-progression:tb;writing-mode:lr-tb;baseline-shift:baseline;text-anchor:start;white-space:normal;clip-rule:nonzero;display:inline;overflow:visible;visibility:visible;opacity:1;isolation:auto;mix-blend-mode:normal;color-interpolation:sRGB;color-interpolation-filters:linearRGB;solid-color:#000000;solid-opacity:1;fill:#d7f8ff;fill-opacity:1;fill-rule:nonzero;stroke:none;stroke-width:3;stroke-linecap:butt;stroke-linejoin:miter;stroke-miterlimit:4;stroke-dasharray:none;stroke-dashoffset:0;stroke-opacity:1;color-rendering:auto;image-rendering:auto;shape-rendering:auto;text-rendering:auto;enable-background:accumulate"
       d="m 133.11611,68.35875 -0.5625,0.6836 c -0.67756,0.82367 -1.35822,1.66749 -2.03907,2.51367 -3.39198,-0.50448 -6.81017,-0.8307 -10.24023,-0.84375 l -0.004,0 -0.006,0 c -8.82603,0.018 -17.55884,1.7044 -25.77929,4.9043 -0.98914,-0.71645 -1.97068,-1.41187 -2.90625,-1.97852 l -0.66797,-0.4043 -0.71485,0.31446 c -5.07526,2.23851 -9.88672,5.03447 -14.3457,8.33398 l -0.61719,0.45703 0.01,0.76758 c 0.0142,1.09819 0.118,2.30218 0.23828,3.52539 -16.82944,13.53906 -26.68222,33.94908 -26.71289,55.57813 l 0,0.002 0,0.002 c 0.019,12.12795 3.17322,24.0248 9.0625,34.61523 -0.55736,0.88962 -1.11033,1.77868 -1.63281,2.64843 l -0.4668,0.7754 0.46875,0.77343 c 6.25378,10.33006 14.90881,18.99603 25.23047,25.26367 l 0.78125,0.47461 0.7793,-0.47461 c 0.87234,-0.53206 1.76278,-1.09585 2.65429,-1.6621 3.2842,1.80494 6.69162,3.3795 10.21875,4.64843 l 1.40625,0.50586 3.59571,-9.87695 -1.42774,-0.50586 c -2.06161,-0.72964 -4.08134,-1.56895 -6.05273,-2.51562 l -0.008,-0.004 c -0.001,-6.3e-4 -0.003,-10e-4 -0.004,-0.002 -1.79589,-0.88359 -3.54766,-1.8544 -5.24805,-2.91016 l -0.008,-0.006 -0.008,-0.004 c -0.0367,-0.0222 -0.0727,-0.0442 -0.10938,-0.0664 l -0.002,-0.002 c -0.005,-0.003 -0.009,-0.005 -0.0137,-0.008 -1.64061,-1.02613 -3.23188,-2.12928 -4.76758,-3.30664 l -0.004,-0.004 -0.004,-0.004 c -0.10128,-0.0766 -0.20195,-0.15327 -0.30274,-0.23047 -1.46647,-1.13991 -2.87993,-2.34632 -4.23633,-3.61523 l -0.006,-0.004 -0.004,-0.002 c -0.1486,-0.13717 -0.29613,-0.27543 -0.44336,-0.41407 l -0.004,-0.006 c -0.001,-9.5e-4 -0.003,-9.4e-4 -0.004,-0.002 -1.27792,-1.22151 -2.50289,-2.49832 -3.66993,-3.82617 l -0.004,-0.004 -0.004,-0.004 c -0.20005,-0.2245 -0.39703,-0.45031 -0.59375,-0.67774 l -0.008,-0.008 c -1.0859,-1.27456 -2.1183,-2.59359 -3.0957,-3.95312 l -0.004,-0.004 -0.004,-0.006 c -0.23027,-0.3156 -0.45749,-0.63316 -0.68164,-0.95313 l -0.006,-0.01 c -0.8957,-1.30051 -1.74109,-2.63393 -2.5332,-4 l -0.004,-0.008 -0.004,-0.008 c -0.32369,-0.54406 -0.63871,-1.09261 -0.94531,-1.64648 -0.37111,-0.67054 -0.73061,-1.3472 -1.07618,-2.03125 l 0,-0.002 c -4.13943,-8.37909 -6.29903,-17.59757 -6.31054,-26.94336 0.029,-17.30861 7.40764,-33.78778 20.30078,-45.33594 l 0.002,0 C 85.85762,91.22961 93.25066,86.9557 101.27992,84.3213 l 0.004,-0.002 0.0703,-0.0234 c 6.10138,-2.01712 12.48366,-3.05844 18.91016,-3.08464 1.75858,0.0123 3.51467,0.10145 5.26562,0.26563 l 0.006,0 0.004,0 c 17.97602,1.58112 34.3258,11.03884 44.66015,25.83203 2.00891,2.89853 3.76328,5.96445 5.24219,9.16601 l 0.63086,1.36719 9.51367,-4.43555 -0.62695,-1.35742 c -2.31278,-5.00597 -5.23623,-9.69934 -8.63281,-14.04101 0.39088,-1.02873 0.78043,-2.05506 1.15234,-3.06836 l 0.30273,-0.82617 -0.57226,-0.66797 C 166.06823,80.4475 150.81308,71.65188 133.9814,68.52067 l -0.86718,-0.16211 z"
       id="path4417"
       inkscape:connector-curvature="0" />
    <path
       id="path4342"
       d="m 133.71181,69.99547 a 30,120 30 0 0 -2.52734,3.11524 70,70 0 0 0 -10.91602,-0.89844 70,70 0 0 0 -26.00391,5.06641 80,20 60 0 0 -3.46289,-2.35743 73.5,73.5 0 0 0 -14.05859,8.16602 80,20 60 0 0 0.2832,4.17773 70,70 0 0 0 -26.75781,54.94727 70,70 0 0 0 9.27148,34.70508 25,100 45 0 0 -2.05664,3.33203 73.5,73.5 0 0 0 24.72657,24.75977 25,100 45 0 0 3.35937,-2.10352 70,70 0 0 0 10.80274,4.95898 l 2.5664,-7.05078 a 62.5,62.5 0 0 1 -6.21484,-2.58398 62.5,62.5 0 0 1 -5.38867,-2.98828 62.5,62.5 0 0 1 -0.12891,-0.0781 62.5,62.5 0 0 1 -4.90039,-3.39844 62.5,62.5 0 0 1 -0.31055,-0.23632 62.5,62.5 0 0 1 -4.34961,-3.71094 62.5,62.5 0 0 1 -0.46289,-0.43164 62.5,62.5 0 0 1 -3.76758,-3.92774 62.5,62.5 0 0 1 -0.61718,-0.70312 62.5,62.5 0 0 1 -3.17969,-4.05859 62.5,62.5 0 0 1 -0.70508,-0.98633 62.5,62.5 0 0 1 -2.60156,-4.10938 62.5,62.5 0 0 1 -0.96875,-1.6875 62.5,62.5 0 0 1 -1.10156,-2.08203 62.5,62.5 0 0 1 -0.008,-0.0137 62.5,62.5 0 0 1 -6.46484,-27.60547 62.5,62.5 0 0 1 20.80078,-46.45508 62.5,62.5 0 0 1 22.24805,-12.85937 62.5,62.5 0 0 1 0.0703,-0.0234 62.5,62.5 0 0 1 19.38086,-3.16211 62.5,62.5 0 0 1 5.40625,0.27148 62.5,62.5 0 0 1 45.75977,26.4668 62.5,62.5 0 0 1 5.37304,9.39648 l 6.79492,-3.16797 a 70,70 0 0 0 -8.95312,-14.45507 30,120 30 0 0 1.42578,-3.80079 73.5,73.5 0 0 0 -42.36328,-24.42773 z"
       style="fill:#a2e1ee;fill-opacity:1;stroke:none;stroke-width:3;stroke-linecap:butt;stroke-linejoin:miter;stroke-miterlimit:4;stroke-dasharray:none;stroke-dashoffset:0;stroke-opacity:1"
       inkscape:connector-curvature="0" />
    <path
       style="fill:#d7f8ff;fill-opacity:1;stroke:none;stroke-width:3;stroke-linecap:butt;stroke-linejoin:miter;stroke-miterlimit:4;stroke-dasharray:none;stroke-dashoffset:0;stroke-opacity:1"
       d="m 184.81533,117.92125 -7.51172,2.73438 a 61,61 0 0 1 0.47461,1.42383 l 7.50976,-2.73438 a 69,69 0 0 0 -0.47265,-1.42383 z m 1.89843,5.70899 -7.73242,2.07226 a 61,61 0 0 1 0.34961,1.46094 l 7.72461,-2.07031 a 69,69 0 0 0 -0.3418,-1.46289 z m 1.33008,5.86914 -7.87695,1.38867 a 61,61 0 0 1 0.27734,1.47461 l 7.87891,-1.38867 a 69,69 0 0 0 -0.2793,-1.47461 z m 0.82422,5.95898 -7.96289,0.69727 a 61,61 0 0 1 0.17969,1.48828 l 7.96484,-0.69727 a 69,69 0 0 0 -0.18164,-1.48828 z m -7.62695,6.00391 a 61,61 0 0 1 0.0273,0.75 61,61 0 0 1 -0.0371,0.75 l 8,0 a 69,69 0 0 0 0.0371,-0.75 69,69 0 0 0 -0.0273,-0.75 l -8,0 z m -0.20118,5.31445 a 61,61 0 0 1 -0.0742,1.5 l 7.96484,0.69727 a 69,69 0 0 0 0.0762,-1.5 l -7.9668,-0.69727 z m -0.64453,5.27735 a 61,61 0 0 1 -0.22461,1.48242 l 7.87305,1.38867 a 69,69 0 0 0 0.22461,-1.48242 l -7.87305,-1.38867 z m -1.08984,5.20117 a 61,61 0 0 1 -0.37109,1.45312 l 7.71875,2.06836 a 69,69 0 0 0 0.37109,-1.45312 l -7.71875,-2.06836 z"
       id="path4365"
       inkscape:connector-curvature="0" />
    <path
       style="fill:#d7f8ff;fill-opacity:1;stroke:none;stroke-width:3;stroke-miterlimit:4;stroke-dasharray:none;stroke-opacity:1"
       d="m 232.69109,87.43879 c 2.15418,1.13091 3.66299,3.3153 3.66299,5.91713 0,3.73478 -3.02765,6.76243 -6.76243,6.76243 -3.73479,0 -6.76243,-3.02765 -6.76243,-6.76243 0,-1.36232 0.38706,-2.60148 1.08012,-3.66298 -4.85898,2.39274 -8.64089,5.82319 -8.64089,5.82319 0,0 8.98525,8.07736 17,8.07736 8.01473,1e-5 17,-8.07736 17,-8.07736 0,0 -8.67329,-7.80201 -16.57736,-8.07734 z m -3.09944,0.98618 c -2.73619,0 -4.93094,2.24171 -4.93094,4.9779 0,2.73619 2.19475,4.93095 4.93094,4.93095 2.7362,0 4.9779,-2.19476 4.9779,-4.93095 0,-2.73619 -2.2417,-4.9779 -4.9779,-4.9779 z"
       id="path4429"
       inkscape:connector-curvature="0" />
    <path
       style="opacity:1;fill:#a2e1ee;fill-opacity:1;stroke:none;stroke-width:3;stroke-linecap:butt;stroke-linejoin:miter;stroke-miterlimit:4;stroke-dasharray:none;stroke-dashoffset:0;stroke-opacity:1"
       d="m 232.26845,71.51614 a 24,24 0 0 0 -24,24 24,24 0 0 0 24,24 24,24 0 0 0 24,-24 24,24 0 0 0 -24,-24 z m 0,6 a 18,18 0 0 1 18,18 18,18 0 0 1 -18,18 18,18 0 0 1 -18,-18 18,18 0 0 1 18,-18 z"
       id="path4175"
       inkscape:connector-curvature="0" />
    <path
       style="color:#000000;font-style:normal;font-variant:normal;font-weight:normal;font-stretch:normal;font-size:medium;line-height:normal;font-family:sans-serif;text-indent:0;text-align:start;text-decoration:none;text-decoration-line:none;text-decoration-style:solid;text-decoration-color:#000000;letter-spacing:normal;word-spacing:normal;text-transform:none;direction:ltr;block-progression:tb;writing-mode:lr-tb;baseline-shift:baseline;text-anchor:start;white-space:normal;clip-rule:nonzero;display:inline;overflow:visible;visibility:visible;opacity:1;isolation:auto;mix-blend-mode:normal;color-interpolation:sRGB;color-interpolation-filters:linearRGB;solid-color:#000000;solid-opacity:1;fill:#d7f8ff;fill-opacity:1;fill-rule:nonzero;stroke:none;stroke-width:3;stroke-linecap:butt;stroke-linejoin:miter;stroke-miterlimit:4;stroke-dasharray:none;stroke-dashoffset:0;stroke-opacity:1;color-rendering:auto;image-rendering:auto;shape-rendering:auto;text-rendering:auto;enable-background:accumulate"
       d="m 232.26845,71.51614 a 24,24 0 0 0 -24,24 24,24 0 0 0 24,24 24,24 0 0 0 24,-24 24,24 0 0 0 -24,-24 z m 0,1.5 c 12.44417,0 22.5,10.05582 22.5,22.5 0,12.44417 -10.05583,22.5 -22.5,22.5 -12.44418,0 -22.5,-10.05583 -22.5,-22.5 0,-12.44418 10.05582,-22.5 22.5,-22.5 z m 0,3 c -10.75179,0 -19.5,8.74821 -19.5,19.5 0,10.75178 8.74821,19.5 19.5,19.5 10.75178,0 19.5,-8.74822 19.5,-19.5 0,-10.75179 -8.74822,-19.5 -19.5,-19.5 z m 0,1.5 a 18,18 0 0 1 18,18 18,18 0 0 1 -18,18 18,18 0 0 1 -18,-18 18,18 0 0 1 18,-18 z"
       id="path4399"
       inkscape:connector-curvature="0" />
    <flowRoot
       xml:space="preserve"
       id="flowRoot4408"
       style="font-style:normal;font-variant:normal;font-weight:normal;font-stretch:condensed;font-size:15px;line-height:125%;font-family:Arial;-inkscape-font-specification:'Arial Condensed';letter-spacing:0px;word-spacing:0px;fill:#000000;fill-opacity:1;stroke:none;stroke-width:1px;stroke-linecap:butt;stroke-linejoin:miter;stroke-opacity:1"
       transform="translate(268.26845,-84.483861)"><flowRegion
         id="flowRegion4410"><rect
           id="rect4412"
           width="72.303886"
           height="18.650175"
           x="2.0212014"
           y="50.586571"
           style="font-style:normal;font-variant:normal;font-weight:normal;font-stretch:condensed;font-size:15px;font-family:Arial;-inkscape-font-specification:'Arial Condensed'" /></flowRegion><flowPara
         id="flowPara4414" /></flowRoot>    <flowRoot
       xml:space="preserve"
       id="flowRoot4416"
       style="font-style:normal;font-variant:normal;font-weight:normal;font-stretch:normal;font-size:6px;line-height:125%;font-family:Arial;-inkscape-font-specification:Arial;letter-spacing:0px;word-spacing:0px;fill:#d7f8ff;fill-opacity:1;stroke:none;stroke-width:1px;stroke-linecap:butt;stroke-linejoin:miter;stroke-opacity:1"
       transform="translate(216.97402,141.62655)"><flowRegion
         id="flowRegion4418"><rect
           id="rect4420"
           width="81.858658"
           height="32.798588"
           x="0.82685512"
           y="47.92226"
           style="font-style:normal;font-variant:normal;font-weight:normal;font-stretch:normal;font-family:Arial;-inkscape-font-specification:Arial;fill:#d7f8ff;fill-opacity:1" /></flowRegion><flowPara
         id="flowPara4422"
         style="font-style:normal;font-variant:normal;font-weight:bold;font-stretch:normal;font-size:10px;font-family:Arial;-inkscape-font-specification:'Arial Bold';fill:#d7f8ff;fill-opacity:1">OPTIONS</flowPara></flowRoot>    <path
       style="opacity:1;fill:#a2e1ee;fill-opacity:1;stroke:#00cefa;stroke-width:0;stroke-linecap:butt;stroke-linejoin:round;stroke-miterlimit:4;stroke-dasharray:none;stroke-dashoffset:0;stroke-opacity:1"
       d="m 240.26845,137.51614 a 23.999994,23.999994 0 0 0 -5.45508,0.6582 7.9999962,31.999994 0 0 0 -0.75976,3.30664 20.999996,20.999996 0 0 0 -8.02735,4.62891 31.999994,7.9999962 30 0 0 -3.23633,-0.9961 23.999994,23.999994 0 0 0 -5.47851,9.42969 31.999994,7.9999962 30 0 0 2.49609,2.32422 20.999996,20.999996 0 0 0 -0.53906,4.64844 20.999996,20.999996 0 0 0 0.54492,4.63476 7.9999962,31.999994 60 0 0 -2.49414,2.31836 23.999994,23.999994 0 0 0 5.44922,9.44532 7.9999962,31.999994 60 0 0 3.25781,-1 20.999996,20.999996 0 0 0 8.03125,4.66211 7.9999962,31.999994 0 0 0 0.75391,3.28515 23.999994,23.999994 0 0 0 5.45703,0.6543 23.999994,23.999994 0 0 0 5.45508,-0.6582 7.9999962,31.999994 0 0 0 0.75976,-3.30664 20.999996,20.999996 0 0 0 8.02735,-4.62891 31.999994,7.9999962 30 0 0 3.23633,0.99609 23.999994,23.999994 0 0 0 5.47851,-9.42968 31.999994,7.9999962 30 0 0 -2.49609,-2.32422 20.999996,20.999996 0 0 0 0.53906,-4.64844 20.999996,20.999996 0 0 0 -0.54492,-4.63477 7.9999962,31.999994 60 0 0 2.49414,-2.31836 23.999994,23.999994 0 0 0 -5.44922,-9.44531 7.9999962,31.999994 60 0 0 -3.25781,1 20.999996,20.999996 0 0 0 -8.03125,-4.66211 7.9999962,31.999994 0 0 0 -0.75391,-3.28515 23.999994,23.999994 0 0 0 -5.45703,-0.6543 z m 0,12 a 11.999997,11.999997 0 0 1 12,12 11.999997,11.999997 0 0 1 -12,12 11.999997,11.999997 0 0 1 -12,-12 11.999997,11.999997 0 0 1 12,-12 z"
       id="circle4424"
       inkscape:connector-curvature="0" />
    <text
       xml:space="preserve"
       style="font-style:normal;font-variant:normal;font-weight:bold;font-stretch:normal;font-size:10px;line-height:125%;font-family:Arial;-inkscape-font-specification:'Arial Bold';letter-spacing:0px;word-spacing:0px;fill:#d7f8ff;fill-opacity:1;stroke:none;stroke-width:1px;stroke-linecap:butt;stroke-linejoin:miter;stroke-opacity:1"
       x="286.24014"
       y="199.38919"
       id="text4444"
       sodipodi:linespacing="125%"><tspan
         sodipodi:role="line"
         id="tspan4446"
         x="286.24014"
         y="199.38919">TILES</tspan></text>
    <path
       style="opacity:1;fill:#a2e1ee;fill-opacity:1;stroke:none;stroke-width:3;stroke-linecap:butt;stroke-linejoin:round;stroke-miterlimit:4;stroke-dasharray:none;stroke-dashoffset:0;stroke-opacity:1"
       d="m 276.26845,137.51614 0,12 12,0 0,-12 -12,0 z m 18,0 0,12 12,0 0,-12 -12,0 z m 18,0 0,12 12,0 0,-12 -12,0 z m -18,18 0,12 12,0 0,-12 -12,0 z m 18,0 0,12 12,0 0,-12 -12,0 z m -36,18 0,12 12,0 0,-12 -12,0 z m 18,0 0,12 12,0 0,-12 -12,0 z"
       id="rect4448"
       inkscape:connector-curvature="0" />
    <text
       xml:space="preserve"
       style="font-style:normal;font-weight:normal;font-size:12.5px;line-height:125%;font-family:Sans;letter-spacing:0px;word-spacing:0px;fill:#d7f8ff;fill-opacity:1;stroke:none;stroke-width:1px;stroke-linecap:butt;stroke-linejoin:miter;stroke-opacity:1"
       x="342.33878"
       y="199.39407"
       id="text4472"
       sodipodi:linespacing="125%"><tspan
         sodipodi:role="line"
         id="tspan4474"
         x="342.33878"
         y="199.39407"
         style="font-style:normal;font-variant:normal;font-weight:bold;font-stretch:normal;font-size:10px;font-family:Arial;-inkscape-font-specification:'Arial Bold'">GRAPH</tspan></text>
    <path
       style="opacity:1;fill:#a2e0ee;fill-opacity:1;stroke:none;stroke-width:3;stroke-linecap:butt;stroke-linejoin:round;stroke-miterlimit:4;stroke-dasharray:none;stroke-dashoffset:0;stroke-opacity:1"
       d="m 360.26951,137.81399 -3.18441,3.18441 -1.55941,1.55941 1.79004,0 0,16.00667 -16.00667,0 0,-1.79004 -1.5573,1.55729 -3.1844,3.18441 3.1844,3.18441 1.5573,1.55729 0,-1.79004 16.00667,0 0,16.00667 -1.79004,0 1.55941,1.55941 3.18441,3.18441 3.18229,-3.18441 1.5594,-1.55941 -1.79215,0 0,-16.00667 16.00667,0 0,1.79215 1.55941,-1.5594 3.18441,-3.18441 -3.18441,-3.18441 -1.55941,-1.55941 0,1.79216 -16.00667,0 0,-16.00667 1.79215,0 -1.5594,-1.55941 -3.18229,-3.18441 z"
       id="rect4476"
       inkscape:connector-curvature="0" />
    <text
       xml:space="preserve"
       style="font-style:normal;font-weight:normal;font-size:12.5px;line-height:125%;font-family:Sans;letter-spacing:0px;word-spacing:0px;fill:#000000;fill-opacity:1;stroke:none;stroke-width:1px;stroke-linecap:butt;stroke-linejoin:miter;stroke-opacity:1"
       x="394.13077"
       y="199.39407"
       id="text4552"
       sodipodi:linespacing="125%"><tspan
         sodipodi:role="line"
         id="tspan4554"
         x="394.13077"
         y="199.39407"
         style="font-style:normal;font-variant:normal;font-weight:bold;font-stretch:normal;font-size:10px;font-family:Arial;-inkscape-font-specification:'Arial Bold';fill:#d7f8ff;fill-opacity:1">PROGRAM</tspan></text>
    <path
       style="opacity:1;fill:#a2e1ee;fill-opacity:1;stroke:none;stroke-width:4.24128199;stroke-linecap:butt;stroke-linejoin:miter;stroke-miterlimit:4;stroke-dasharray:none;stroke-dashoffset:0;stroke-opacity:1"
       d="m 402.95667,137.53665 28.30307,0 c 7.90428,-0.20578 6.57357,1.01708 6.57357,9.18489 0.28007,6.6684 -0.69546,3.93806 5.68347,3.80637 6.37896,-0.13168 6.292,19.48755 0,18.97646 -6.29198,-0.5111 -5.68347,-2.11985 -5.68347,3.80637 0.18972,8.57338 0.95679,9.18489 -6.57357,9.18489 l -28.30307,0 c -7.90427,0.20578 -6.57357,-1.01708 -6.57357,-9.18489 0.28006,-6.6684 -0.69547,-3.93806 5.68346,-3.80637 6.37895,0.13168 6.292,-19.48755 0,-18.97646 -6.29198,0.51109 -5.68346,2.11985 -5.68346,-3.80637 -0.18972,-8.57338 -0.95678,-9.18489 6.57357,-9.18489 z"
       id="rect4556"
       inkscape:connector-curvature="0"
       sodipodi:nodetypes="ccczzcccczzcc" />
    <circle
       style="opacity:1;fill:#d7f8ff;fill-opacity:1;stroke:none;stroke-width:3.5588479;stroke-linecap:butt;stroke-linejoin:miter;stroke-miterlimit:4;stroke-dasharray:none;stroke-dashoffset:0;stroke-opacity:1"
       id="path4567"
       cx="424.26846"
       cy="103.51614"
       r="16" />
    <circle
       r="14.5"
       cy="103.68296"
       cx="424.10165"
       id="circle4569"
       style="opacity:1;fill:#a2e1ee;fill-opacity:1;stroke:none;stroke-width:3.2252059;stroke-linecap:butt;stroke-linejoin:miter;stroke-miterlimit:4;stroke-dasharray:none;stroke-dashoffset:0;stroke-opacity:1" />
    <circle
       r="3"
       cy="112.51614"
       cx="424.26846"
       id="circle4573"
       style="opacity:1;fill:#d7f8ff;fill-opacity:1;stroke:none;stroke-width:3.5588479;stroke-linecap:butt;stroke-linejoin:miter;stroke-miterlimit:4;stroke-dasharray:none;stroke-dashoffset:0;stroke-opacity:1" />
    <path
       style="opacity:1;fill:#d7f8ff;fill-opacity:1;stroke:none;stroke-width:3;stroke-linecap:butt;stroke-linejoin:miter;stroke-miterlimit:4;stroke-dasharray:none;stroke-dashoffset:0;stroke-opacity:1"
       d="m 424.26841,91.51624 c 3.14612,-0.0159 2.99896,1.77826 2.99896,1.77826 0,0 -0.30342,8.5532 -0.5278,11.19956 -0.22443,2.64636 -0.34106,3.02208 -2.47112,3.02208 -2.13006,0 -2.24669,-0.37572 -2.47112,-3.02208 -0.22441,-2.64636 -0.5278,-11.19956 -0.5278,-11.19956 0,0 -0.14724,-1.76241 2.99888,-1.77826 z"
       id="rect4577"
       inkscape:connector-curvature="0"
       sodipodi:nodetypes="zcssscz" />
    <path
       style="fill:#d7f8ff;fill-opacity:1;stroke:none;stroke-width:4;stroke-linecap:butt;stroke-linejoin:miter;stroke-miterlimit:4;stroke-dasharray:none;stroke-dashoffset:0;stroke-opacity:1"
       d="m 542.26645,90.14895 c -0.25486,0.0106 -0.51094,0.0249 -0.76563,0.0391 l 0,4.42382 c 0.25509,-0.011 0.5104,-0.0203 0.76563,-0.0273 l 0.004,0 0.004,0 c 0.25517,0.0104 0.50869,0.0228 0.76367,0.0371 l 0,-4.44531 c -0.25461,-0.0108 -0.50894,-0.0204 -0.76367,-0.0273 -0.003,-8e-5 -0.005,7e-5 -0.008,0 z m 3.97265,0.14844 -0.38867,4.4668 c 0.5126,0.0248 1.02356,0.059 1.53516,0.0996 l 0.38281,-4.37891 c -0.50865,-0.0694 -1.01889,-0.1326 -1.5293,-0.1875 z m -7.9375,0.0508 c -0.51105,0.0233 -1.02301,0.0559 -1.5332,0.0937 l 0.38672,4.45899 c 0.50883,-0.0686 1.0186,-0.12874 1.5293,-0.18164 l -0.38282,-4.3711 z m 12.64453,0.5293 -0.77539,4.39844 c 0.50847,0.0691 1.01539,0.14381 1.52149,0.22851 l 0.76562,-4.34765 c -0.50225,-0.0998 -1.00684,-0.1937 -1.51172,-0.2793 z m -17.34765,0.0332 c -0.50823,0.0696 -1.01544,0.14647 -1.52149,0.23047 l 0.77344,4.38086 c 0.50228,-0.0998 1.0066,-0.19109 1.51172,-0.27539 l -0.76367,-4.33594 z m 21.98633,0.94531 -1.1543,4.29493 c 0.49943,0.11921 0.99862,0.24631 1.49414,0.38086 l 1.15234,-4.30665 c -0.49554,-0.13032 -0.99315,-0.25288 -1.49218,-0.36914 z m -26.625,0.0176 c -0.49831,0.11975 -0.99551,0.24706 -1.49024,0.38086 l 1.14063,4.25781 c 0.49555,-0.13188 0.9928,-0.25649 1.49218,-0.37304 l -1.14257,-4.26563 z m -4.53907,1.35352 c -0.48505,0.16894 -0.9672,0.34472 -1.44726,0.52734 l 1.50195,4.12305 c 0.48415,-0.16908 0.9718,-0.3303 1.46094,-0.48438 l -1.51563,-4.16601 z m 35.69727,0 -1.51563,4.16406 c 0.48446,0.1683 0.96627,0.34224 1.44532,0.52539 l 1.53125,-4.20508 c -0.48492,-0.16861 -0.97143,-0.32957 -1.46094,-0.48437 z m -40.10938,1.73828 c -0.46431,0.21639 -0.92676,0.43855 -1.38476,0.66797 l 1.86133,3.99414 c 0.46475,-0.21685 0.93308,-0.42649 1.40429,-0.62891 l -1.88086,-4.0332 z m 44.50782,0.0176 -1.86328,3.99609 c 0.46598,0.21609 0.92762,0.43955 1.38671,0.66992 l 1.88086,-4.03711 c -0.46511,-0.21629 -0.93326,-0.42586 -1.40429,-0.6289 z m -48.75,2.08984 c -0.44175,0.26219 -0.88032,0.53009 -1.31446,0.80469 l 2.21289,3.83398 c 0.44115,-0.26244 0.8869,-0.51887 1.33594,-0.76758 l -2.23437,-3.87109 z m 52.98437,0.0352 -2.19726,3.80078 c 0.44231,0.26171 0.88043,0.53141 1.31445,0.80664 l 2.2168,-3.8418 c -0.44083,-0.2612 -0.88596,-0.51699 -1.33399,-0.76562 z m -57.02539,2.45117 c -0.41712,0.29765 -0.82974,0.60084 -1.23828,0.91016 l 2.54883,3.64062 c 0.4125,-0.30472 0.83026,-0.60266 1.25195,-0.89453 l -2.5625,-3.65625 z m 61.0625,0.0273 -2.52344,3.60547 c 0.41855,0.29665 0.83299,0.59879 1.24219,0.9082 l 2.5332,-3.61914 c -0.41266,-0.30455 -0.83084,-0.60178 -1.25195,-0.89453 z m 3.81445,2.81641 -2.85937,3.4043 c 0.39956,0.32223 0.79416,0.64997 1.18359,0.98437 l 2.83008,-3.375 c -0.38014,-0.3437 -0.7646,-0.68086 -1.1543,-1.01367 z m -68.66211,0.006 c -0.39893,0.32265 -0.79396,0.65056 -1.18359,0.98437 l 2.86914,3.41797 c 0.38035,-0.34471 0.76545,-0.6828 1.15625,-1.01562 l -2.8418,-3.38672 z m 72.21875,3.1289 -3.16796,3.16797 c 0.3774,0.34631 0.74866,0.70084 1.11523,1.0586 l 3.10547,-3.10547 c -0.3457,-0.37869 -0.69647,-0.75234 -1.05274,-1.1211 z m -75.75,0.0332 c -0.37902,0.346 -0.75008,0.70005 -1.11914,1.05664 l 3.16797,3.16601 c 0.3466,-0.37773 0.69858,-0.75031 1.05664,-1.11718 l -3.10547,-3.10547 z m 78.97852,3.43554 -3.41602,2.86719 c 0.34445,0.38007 0.68305,0.76574 1.01563,1.15625 l 3.38672,-2.83984 c -0.32318,-0.3996 -0.65195,-0.79332 -0.98633,-1.1836 z m -82.21875,0.0195 c -0.34403,0.38049 -0.6825,0.76617 -1.01562,1.15625 l 3.40429,2.85742 c 0.32192,-0.39916 0.65032,-0.79258 0.98438,-1.18164 l -3.37305,-2.83203 z m 85.14453,3.70898 -3.64258,2.54883 c 0.30528,0.41322 0.60411,0.83146 0.89649,1.2539 l 3.66015,-2.5625 c -0.29819,-0.41791 -0.60416,-0.83094 -0.91406,-1.24023 z m -88.08008,0.01 c -0.30423,0.41224 -0.60208,0.82933 -0.89453,1.25 l 3.60352,2.52539 c 0.29687,-0.41886 0.6005,-0.83268 0.91015,-1.24219 l -3.61914,-2.5332 z m -2.60937,3.95312 c -0.26173,0.4417 -0.51456,0.88701 -0.76367,1.33594 l 3.80273,2.19726 c 0.26152,-0.44198 0.5277,-0.88075 0.80274,-1.31445 l -3.8418,-2.21875 z m 93.2832,0.002 -3.83594,2.21094 c 0.26318,0.44232 0.52016,0.88764 0.76954,1.33789 l 3.87109,-2.23437 c -0.26219,-0.44174 -0.53009,-0.88033 -0.80469,-1.31446 z m -95.54492,4.16211 c -0.21628,0.46509 -0.42588,0.93328 -0.62891,1.4043 l 3.99805,1.86523 c 0.21586,-0.46548 0.43787,-0.92811 0.66797,-1.38671 l -4.03711,-1.88282 z m 97.78711,0.01 -3.99219,1.86328 c 0.21659,0.46418 0.42475,0.93171 0.62695,1.40234 l 4.03516,-1.88086 c -0.21673,-0.46503 -0.44011,-0.92605 -0.66992,-1.38476 z m -99.6875,4.33594 c -0.16807,0.48347 -0.32807,0.97095 -0.48242,1.45898 l 4.16211,1.51563 c 0.16813,-0.48394 0.34244,-0.96678 0.52539,-1.44532 l -4.20508,-1.52929 z m 101.56641,0.0156 -4.1211,1.5 c 0.16906,0.48408 0.33032,0.96993 0.48438,1.45899 l 4.16601,-1.51563 c -0.16856,-0.48392 -0.34712,-0.96441 -0.52929,-1.44336 z m -103.05079,4.48438 c -0.13055,0.4963 -0.25465,0.99434 -0.37109,1.49414 l 4.29492,1.15234 c 0.1192,-0.49936 0.24633,-0.99675 0.38086,-1.49219 l -4.30469,-1.15429 z m 104.55274,0.008 -4.25977,1.14258 c 0.13188,0.49555 0.2565,0.9928 0.37305,1.49218 l 4.26562,-1.14453 c -0.11975,-0.49816 -0.24512,-0.99565 -0.3789,-1.49023 z m 1.11328,4.60937 -4.38086,0.77344 c 0.0998,0.50228 0.19109,1.0066 0.27539,1.51172 l 4.33594,-0.76367 c -0.0696,-0.50822 -0.14647,-1.01544 -0.23047,-1.52149 z m -106.73633,0.004 c -0.0999,0.50281 -0.1936,1.00629 -0.2793,1.51172 l 4.39844,0.77539 c 0.0691,-0.50847 0.14382,-1.01538 0.22852,-1.52148 l -4.34766,-0.76563 z m 107.43555,4.6875 -4.46094,0.38867 c 0.0686,0.50884 0.13069,1.01859 0.1836,1.5293 l 4.36914,-0.38281 c -0.0234,-0.51227 -0.0539,-1.02376 -0.0918,-1.53516 z m -108.10742,0.004 c -0.0694,0.50922 -0.13055,1.01831 -0.18555,1.52929 l 4.46484,0.38672 c 0.0248,-0.51138 0.0591,-1.02283 0.0996,-1.5332 l -4.3789,-0.38281 z m -0.3086,4.72851 c -0.0108,0.25469 -0.0203,0.51081 -0.0273,0.76563 5e-5,0.001 -5e-5,0.003 0,0.004 l 0,0.004 c 0.0107,0.25543 0.0249,0.51036 0.0391,0.76562 l 4.42383,0 c -0.011,-0.25566 -0.0184,-0.50982 -0.0254,-0.76562 l 0,-0.004 0,-0.004 c 0.0104,-0.25525 0.0209,-0.51057 0.0352,-0.76563 l -4.44532,0 z m 104.24805,0 c 0.011,0.25574 0.0203,0.5117 0.0273,0.76758 l 0,0.002 0,0.004 c -0.0104,0.25525 -0.0228,0.51056 -0.0371,0.76562 l 4.44532,0 c 0.0108,-0.25591 0.0203,-0.51153 0.0273,-0.76757 -0.0107,-0.25739 -0.0267,-0.51428 -0.041,-0.77149 l -4.42187,0 z m -99.60742,4.31836 0,0.0195 0.002,-0.002 a 49.832608,49.832608 0 0 1 -0.002,-0.0176 z m 99.45312,0.0332 c -0.0248,0.51203 -0.059,1.02414 -0.0996,1.53516 l 4.37891,0.38281 c 0.0695,-0.5093 0.1325,-1.02019 0.1875,-1.53125 l -4.4668,-0.38672 z m -99.55078,0.002 -4.36914,0.38281 c 0.0234,0.51228 0.0539,1.02375 0.0918,1.53516 l 4.45898,-0.38867 c -0.0686,-0.50883 -0.12874,-1.01859 -0.18164,-1.5293 z m 99.03906,4.31836 c -0.0691,0.50847 -0.14381,1.01538 -0.22851,1.52148 l 4.34766,0.76563 c 0.0998,-0.50226 0.19369,-1.00684 0.27929,-1.51172 l -4.39844,-0.77539 z m -98.51171,0.006 -4.33594,0.76367 c 0.0696,0.50759 0.14657,1.01412 0.23047,1.51953 l 4.38281,-0.77148 c -0.0999,-0.5024 -0.19304,-1.00649 -0.27734,-1.51172 z m 97.63671,4.25586 c -0.11907,0.49874 -0.24649,0.9954 -0.38085,1.49023 l 4.30468,1.1543 c 0.13055,-0.4963 0.25466,-0.99435 0.3711,-1.49414 l -4.29493,-1.15039 z m -96.74218,0.002 -4.26758,1.14453 c 0.11989,0.49886 0.24689,0.99497 0.38086,1.49023 l 4.25976,-1.14062 c -0.13205,-0.49616 -0.25635,-0.99415 -0.37304,-1.49414 z m 1.25195,4.16797 -4.16602,1.51367 c 0.16894,0.48507 0.34668,0.96718 0.5293,1.44727 l 4.12109,-1.5 c -0.16908,-0.48416 -0.33029,-0.97181 -0.48437,-1.46094 z m 94.25,0.002 c -0.16811,0.48387 -0.34247,0.96489 -0.52539,1.44336 l 4.20312,1.53125 c 0.16861,-0.48495 0.33152,-0.97141 0.48633,-1.46094 l -4.16406,-1.51367 z m -92.64453,4.04297 -4.0332,1.88086 c 0.21673,0.46503 0.44011,0.92605 0.66992,1.38476 l 3.99218,-1.86133 c -0.21686,-0.46475 -0.42647,-0.93308 -0.6289,-1.40429 z m 91.05469,0.008 c -0.21609,0.46597 -0.43957,0.92763 -0.66993,1.38672 l 4.03907,1.88085 c 0.21626,-0.4651 0.42589,-0.93325 0.6289,-1.40429 l -3.99804,-1.86328 z m -89.10938,3.88281 -3.87109,2.23437 c 0.26192,0.44126 0.53037,0.87883 0.80468,1.3125 l 3.83399,-2.21289 c -0.26215,-0.44067 -0.51913,-0.88545 -0.76758,-1.33398 z m 87.18164,0.0156 c -0.26169,0.44228 -0.52947,0.88046 -0.80469,1.31445 l 3.8418,2.21485 c 0.26072,-0.44007 0.51547,-0.88478 0.76367,-1.33203 l -3.80078,-2.19727 z m -84.90625,3.69336 -3.6582,2.5625 c 0.29765,0.41712 0.60083,0.82974 0.91015,1.23828 l 3.64258,-2.55078 c -0.30439,-0.41209 -0.60296,-0.82874 -0.89453,-1.25 z m 82.625,0.0176 c -0.29668,0.41858 -0.60071,0.83295 -0.91015,1.24218 l 3.61914,2.53321 c 0.30455,-0.41266 0.60178,-0.83085 0.89453,-1.25196 l -3.60352,-2.52343 z m -2.61523,3.47851 c -0.32223,0.39956 -0.64999,0.79417 -0.98438,1.1836 l 3.37305,2.83007 c 0.34373,-0.38017 0.68278,-0.76455 1.01562,-1.15429 l -3.40429,-2.85938 z m -77.42969,0.01 -3.38672,2.84179 c 0.32242,0.39863 0.65082,0.79425 0.98438,1.1836 l 3.41796,-2.86914 c -0.34445,-0.38007 -0.68305,-0.76575 -1.01562,-1.15625 z m 74.53125,3.23828 c -0.34657,0.37772 -0.70055,0.74837 -1.05859,1.11523 l 3.10351,3.10547 c 0.37902,-0.346 0.75204,-0.69809 1.1211,-1.05469 l -3.16602,-3.16601 z m -71.65039,0.0293 -3.10547,3.10351 c 0.346,0.37902 0.69809,0.75203 1.05469,1.1211 l 3.16601,-3.16602 c -0.37771,-0.34656 -0.74837,-0.70056 -1.11523,-1.05859 z m 68.48047,2.95117 c -0.38007,0.34445 -0.76575,0.68305 -1.15625,1.01562 l 2.84179,3.38672 c 0.39894,-0.32264 0.79397,-0.65057 1.1836,-0.98437 l -2.86914,-3.41797 z m -65.30078,0.0215 -2.83203,3.37305 c 0.38081,0.34433 0.76585,0.68222 1.15625,1.01562 l 2.85742,-3.40625 c -0.39849,-0.32139 -0.79323,-0.64892 -1.18164,-0.98242 z m 61.88867,2.67969 c -0.41209,0.30439 -0.82875,0.60297 -1.25,0.89453 l 2.5625,3.6582 c 0.41715,-0.29767 0.82971,-0.60276 1.23828,-0.9121 l -2.55078,-3.64063 z m -58.46875,0.01 -2.5332,3.61914 c 0.41227,0.30425 0.8293,0.604 1.25,0.89648 l 2.52539,-3.60547 c -0.41885,-0.29687 -0.83269,-0.60051 -1.24219,-0.91015 z m 3.63867,2.38671 -2.21875,3.8418 c 0.44175,0.26177 0.8889,0.51453 1.33789,0.76367 l 2.19531,-3.79882 c -0.44231,-0.26171 -0.88043,-0.53141 -1.31445,-0.80665 z m 51.20313,0.004 c -0.44067,0.26215 -0.88545,0.51913 -1.33399,0.76758 l 2.23242,3.87109 c 0.44174,-0.26218 0.88033,-0.53008 1.31446,-0.80469 l -2.21289,-3.83398 z m -47.375,2.0625 -1.88086,4.03711 c 0.46511,0.21626 0.93326,0.42589 1.40429,0.62891 l 1.86133,-3.99805 c -0.46518,-0.21575 -0.92644,-0.43799 -1.38476,-0.66797 z m 43.55468,0.0215 c -0.46475,0.21686 -0.93307,0.42648 -1.40429,0.62891 l 1.88086,4.0332 c 0.46504,-0.21673 0.92605,-0.44011 1.38476,-0.66992 l -1.86133,-3.99219 z m -39.56054,1.71094 -1.53125,4.20313 c 0.48495,0.16861 0.9714,0.33151 1.46093,0.48633 l 1.51368,-4.16407 c -0.48387,-0.16811 -0.96488,-0.34247 -1.44336,-0.52539 z m 35.57226,0.0391 c -0.48416,0.16908 -0.9718,0.3303 -1.46094,0.48438 l 1.51368,4.16602 c 0.48512,-0.16897 0.96908,-0.34471 1.44921,-0.52735 l -1.50195,-4.12305 z m -31.44922,1.34571 -1.15234,4.30664 c 0.49554,0.13032 0.99316,0.25288 1.49219,0.36914 l 1.15429,-4.29492 c -0.49998,-0.11932 -0.99808,-0.24616 -1.49414,-0.38086 z m 27.31446,0.0195 c -0.49562,0.1319 -0.99468,0.25648 -1.49414,0.37305 l 1.14453,4.26562 c 0.49832,-0.11976 0.9955,-0.24706 1.49023,-0.38086 l -1.14062,-4.25781 z m -4.24024,0.98828 c -0.50295,0.1 -1.00593,0.19292 -1.51172,0.27734 l 0.76367,4.33594 c 0.50823,-0.0696 1.01544,-0.14648 1.52149,-0.23047 l -0.77344,-4.38281 z m -18.8418,0.0195 -0.76757,4.34766 c 0.50344,0.10008 1.0076,0.19352 1.51367,0.27929 l 0.77344,-4.39843 c -0.50783,-0.069 -1.01407,-0.14392 -1.51954,-0.22852 z m 14.53711,0.60352 c -0.50883,0.0686 -1.01859,0.12874 -1.52929,0.18164 l 0.38086,4.37109 c 0.51227,-0.0234 1.02374,-0.0539 1.53515,-0.0918 l -0.38672,-4.46093 z m -10.23046,0.0371 -0.38282,4.3789 c 0.50922,0.0694 1.01831,0.13253 1.5293,0.1875 l 0.38867,-4.46679 c -0.5126,-0.0248 -1.02355,-0.059 -1.53515,-0.0996 z m 4.34765,0.24218 0,4.44532 c 0.25721,0.011 0.51415,0.02 0.77149,0.0273 0.25487,-0.0106 0.51093,-0.0249 0.76562,-0.0391 l 0,-4.42383 c -0.25509,0.011 -0.51039,0.0202 -0.76562,0.0273 l -0.004,0 -0.004,0 c -0.2546,-0.0104 -0.50926,-0.0228 -0.76367,-0.0371 z"
       id="path4380"
       inkscape:connector-curvature="0" />
    <path
       style="fill:#d7f8ff;fill-opacity:1;stroke:none;stroke-width:4;stroke-linecap:butt;stroke-linejoin:miter;stroke-miterlimit:4;stroke-dasharray:none;stroke-dashoffset:0;stroke-opacity:1"
       d="m 542.2684,86.67239 c -31.94804,0 -57.84375,25.89572 -57.84375,57.84375 0,31.94804 25.89571,57.8457 57.84375,57.8457 31.94803,0 57.8457,-25.89766 57.8457,-57.8457 0,-31.94803 -25.89767,-57.84375 -57.8457,-57.84375 z m 0,1.53711 c 31.09606,0 56.30664,25.21057 56.30664,56.30664 0,31.09606 -25.21058,56.30664 -56.30664,56.30664 -31.09607,0 -56.30664,-25.21058 -56.30664,-56.30664 0,-31.09607 25.21057,-56.30664 56.30664,-56.30664 z"
       id="path4382"
       inkscape:connector-curvature="0" />
    <path
       style="opacity:1;fill:#01d3ff;fill-opacity:1;fill-rule:nonzero;stroke:none;stroke-width:0.2;stroke-linecap:butt;stroke-linejoin:miter;stroke-miterlimit:4;stroke-dasharray:none;stroke-dashoffset:0;stroke-opacity:1"
       d="m 574.27626,89.57278 -1.99804,3.46094 a 59.5,59.5 0 0 1 3.72656,2.4043 l 2.28711,-3.26563 a 63.5,63.5 0 0 0 -4.01563,-2.59961 z m 5.23828,3.4707 -2.24804,3.20899 a 59.5,59.5 0 0 1 2.88281,2.29492 l 2.58594,-3.08203 a 63.5,63.5 0 0 0 -3.22071,-2.42188 z m 4.34766,3.41016 -2.54102,3.0293 a 59.5,59.5 0 0 1 2.68946,2.51758 l 2.87304,-2.87305 a 63.5,63.5 0 0 0 -3.02148,-2.67383 z m 4.04492,3.77148 -2.82226,2.82227 a 59.5,59.5 0 0 1 2.48047,2.7207 l 3.09375,-2.5957 a 63.5,63.5 0 0 0 -2.75196,-2.94727 z m 3.71094,4.10157 -3.08789,2.59179 a 59.5,59.5 0 0 1 2.25781,2.90821 l 3.27344,-2.29102 a 63.5,63.5 0 0 0 -2.44336,-3.20898 z m 3.34766,4.4082 -3.33399,2.33398 a 59.5,59.5 0 0 1 2.01953,3.08008 l 3.42578,-1.97851 a 63.5,63.5 0 0 0 -2.11132,-3.43555 z m 2.89843,4.7168 -3.49414,2.01758 a 59.5,59.5 0 0 1 1.75977,3.23632 l 3.55664,-1.6582 a 63.5,63.5 0 0 0 -1.82227,-3.5957 z m 2.47657,4.94531 -3.61914,1.6875 a 59.5,59.5 0 0 1 1.42968,3.40039 l 3.72071,-1.35547 a 63.5,63.5 0 0 0 -1.53125,-3.73242 z m 2.04687,5.14062 -3.71289,1.35157 a 59.5,59.5 0 0 1 1.08008,3.52343 l 3.86133,-1.03515 a 63.5,63.5 0 0 0 -1.22852,-3.83985 z m 1.60156,5.29297 -3.79297,1.01758 a 59.5,59.5 0 0 1 0.73829,3.61328 l 3.97265,-0.70117 a 63.5,63.5 0 0 0 -0.91797,-3.92969 z m 1.14258,5.41211 -3.90234,0.68946 a 59.5,59.5 0 0 1 0.44922,3.6582 l 4.05664,-0.35352 a 63.5,63.5 0 0 0 -0.60352,-3.99414 z m 0.67969,5.49219 -3.98633,0.34961 a 59.5,59.5 0 0 1 0.21289,3.68164 l 3.97852,0 a 63.5,63.5 0 0 0 -0.20508,-4.03125 z m -3.79492,5.53125 a 59.5,59.5 0 0 1 -0.18946,3.68164 l 3.97657,0.34766 a 63.5,63.5 0 0 0 0.23437,-4.0293 l -4.02148,0 z m -0.26758,5.18164 a 59.5,59.5 0 0 1 -0.55469,3.64648 l 3.96485,0.69922 a 63.5,63.5 0 0 0 0.49804,-4.0039 l -3.9082,-0.3418 z m -0.78125,5.12891 a 59.5,59.5 0 0 1 -0.8418,3.58984 l 3.92383,1.05078 a 63.5,63.5 0 0 0 0.81445,-3.95312 l -3.89648,-0.6875 z m -1.2168,5.04297 a 59.5,59.5 0 0 1 -1.12304,3.50781 l 3.79687,1.38086 a 63.5,63.5 0 0 0 1.18359,-3.85547 l -3.85742,-1.0332 z m -1.63867,4.91406 a 59.5,59.5 0 0 1 -1.39844,3.41015 l 3.6211,1.68946 a 63.5,63.5 0 0 0 1.56445,-3.72071 l -3.78711,-1.3789 z m -2.05273,4.75976 a 59.5,59.5 0 0 1 -1.66407,3.28516 l 3.42383,1.97656 a 63.5,63.5 0 0 0 1.92578,-3.54297 l -3.68554,-1.71875 z m -2.45118,4.56446 a 59.5,59.5 0 0 1 -1.93164,3.13867 l 3.21485,2.25 a 63.5,63.5 0 0 0 2.21094,-3.37109 l -3.49415,-2.01758 z m -2.83203,4.33789 a 59.5,59.5 0 0 1 -2.23242,2.92969 l 3.03125,2.54492 a 63.5,63.5 0 0 0 2.4707,-3.1836 l -3.26953,-2.29101 z m -3.1914,4.08398 a 59.5,59.5 0 0 1 -2.51368,2.69141 l 2.82422,2.82422 a 63.5,63.5 0 0 0 2.7168,-2.97657 l -3.02734,-2.53906 z m -3.53907,3.78711 a 59.5,59.5 0 0 1 -2.75976,2.43945 l 2.58984,3.08594 a 63.5,63.5 0 0 0 2.94531,-2.75 l -2.77539,-2.77539 z m -3.88867,3.42774 a 59.5,59.5 0 0 1 -2.94336,2.21093 l 2.33203,3.32813 a 63.5,63.5 0 0 0 3.15625,-2.50586 l -2.54492,-3.0332 z m -4.16601,3.08007 a 59.5,59.5 0 0 1 -3.72266,2.40625 l 1.99805,3.45899 a 63.5,63.5 0 0 0 4.01758,-2.5918 l -2.29297,-3.27344 z"
       id="path4416"
       inkscape:connector-curvature="0" />
    <path
       style="opacity:1;fill:#a2e1ee;fill-opacity:1;fill-rule:nonzero;stroke:none;stroke-width:2;stroke-linecap:butt;stroke-linejoin:miter;stroke-miterlimit:4;stroke-dasharray:none;stroke-dashoffset:0;stroke-opacity:1"
       d="m 532.329,71.77591 a 73.5,73.5 0 0 0 -48.07227,27.75195 180,30 60 0 0 2.75586,5.5 68,68 0 0 0 -12.74414,39.48828 68,68 0 0 0 2.62891,18.5 20,120 60 0 0 -4.68946,3.45313 73.5,73.5 0 0 0 15.99805,27.73437 20,120 60 0 0 5.35156,-2.33984 68,68 0 0 0 48.71094,20.65234 l 55.82031,0 1.47461,5.5 16.15625,0 1.04883,0 0.5,0 0,-5.5 0,-0.34766 0,-7.65234 -75,0 a 60,60 0 0 1 -60,-60 60,60 0 0 1 60,-60 l 75,0 0,-8 0,-4.74023 -35.85547,0 -1.27148,4.74023 -37.87305,0 a 68,68 0 0 0 -6.5918,0.33008 180,30 60 0 0 -3.34765,-5.07031 z"
       id="path4190"
       inkscape:connector-curvature="0" />
    <path
       style="color:#000000;font-style:normal;font-variant:normal;font-weight:normal;font-stretch:normal;font-size:medium;line-height:normal;font-family:sans-serif;text-indent:0;text-align:start;text-decoration:none;text-decoration-line:none;text-decoration-style:solid;text-decoration-color:#000000;letter-spacing:normal;word-spacing:normal;text-transform:none;direction:ltr;block-progression:tb;writing-mode:lr-tb;baseline-shift:baseline;text-anchor:start;white-space:normal;clip-rule:nonzero;display:inline;overflow:visible;visibility:visible;opacity:1;isolation:auto;mix-blend-mode:normal;color-interpolation:sRGB;color-interpolation-filters:linearRGB;solid-color:#000000;solid-opacity:1;fill:#d7f8ff;fill-opacity:1;fill-rule:nonzero;stroke:none;stroke-width:3;stroke-linecap:butt;stroke-linejoin:miter;stroke-miterlimit:4;stroke-dasharray:none;stroke-dashoffset:0;stroke-opacity:1;color-rendering:auto;image-rendering:auto;shape-rendering:auto;text-rendering:auto;enable-background:accumulate"
       d="m 302.91298,-100.11472 -0.94726,0.152344 c -9.70213,1.552986 -18.49578,6.622452 -24.69922,14.242188 l -0.60547,0.74414 0.42187,0.863282 c 0.36549,0.745831 0.73943,1.497955 1.11328,2.25 -3.89373,5.482752 -6.22109,11.903956 -6.72851,18.611328 -0.8382,0.532563 -1.67558,1.066754 -2.50586,1.599609 l -0.69141,0.44336 0.002,0.824218 c 0.0495,14.221826 7.65074,27.353217 19.95898,34.478516 l 0.71484,0.412109 0.73243,-0.380859 c 0.85086,-0.444348 1.70285,-0.895094 2.55664,-1.345703 4.99917,2.421262 10.46769,3.723762 16.02929,3.736328 l 0.002,0 0.002,0 c 20.41677,0 37,-16.583231 37,-37 l 0,-0.002 0,-0.002 c -0.009,-3.237792 -0.50477,-6.446462 -1.35156,-9.56836 0.59528,-0.447148 1.19433,-0.894244 1.76562,-1.333984 l 0.84571,-0.650391 -0.33594,-1.011718 c -1.71154,-5.159577 -4.45702,-9.915415 -8.06836,-13.978516 l -0.71094,-0.800781 -0.98633,0.412109 c -0.67303,0.280318 -1.36746,0.579671 -2.05859,0.876953 -6.9213,-6.936182 -16.26898,-10.932498 -26.09766,-10.941406 l -0.01,0 -0.008,0 c -1.14572,0.01202 -2.28645,0.122048 -3.42578,0.240234 -0.4601,-0.69457 -0.91992,-1.389717 -1.3789,-2.074218 l -0.53516,-0.796876 z m -1.375,3.343751 c 0.42281,0.63383 0.84579,1.265808 1.26953,1.908203 l 0.51563,0.783203 0.92968,-0.121094 c 1.32008,-0.171801 2.64939,-0.263333 3.98047,-0.279297 -11.33977,0.01184 -21.32761,5.641045 -27.49804,14.199219 0.13721,-0.19103 0.23754,-0.40337 0.3789,-0.591797 l 0.55664,-0.742187 -0.41406,-0.828125 c -0.3426,-0.685912 -0.67607,-1.366123 -1.01172,-2.046875 5.49562,-6.412152 12.99056,-10.736122 21.29297,-12.28125 z m 20.16016,5.070312 c 0.24611,0.106138 0.46152,0.272833 0.70508,0.384766 -0.24458,-0.112548 -0.45743,-0.277899 -0.70508,-0.384766 z m -13.42969,0.216797 c 17.13859,0 31,13.861406 31,31 0,17.138594 -13.86141,31 -31,31 -17.13859,0 -31,-13.861406 -31,-31 0,-17.138594 13.86141,-31 31,-31 z m 19.30078,3.058594 c 0.48666,0.336683 0.90332,0.768155 1.37305,1.130859 -0.46999,-0.363257 -0.88402,-0.792113 -1.37305,-1.130859 z m 8.92578,4.238281 c 2.77735,3.310023 4.94569,7.06604 6.42188,11.126953 -0.51819,0.393572 -1.02868,0.785775 -1.56641,1.185547 l -0.84766,0.628906 0.30665,1.009766 c 0.15653,0.516938 0.2239,1.05313 0.35546,1.576172 -1.46116,-5.873618 -4.39082,-11.153357 -8.46289,-15.376953 0.0947,0.09834 0.21302,0.166022 0.30664,0.265625 l 0.72461,0.769531 0.96875,-0.421875 c 0.60932,-0.265455 1.198,-0.511466 1.79297,-0.763672 z m -57.23633,6.208984 c -0.53303,0.88098 -1.02166,1.788027 -1.47461,2.71875 0.45006,-0.929159 0.93999,-1.831506 1.47461,-2.71875 z m -2.64453,5.326172 c -0.41536,1.077543 -0.72972,2.199126 -1.03515,3.326172 0.30409,-1.123591 0.61788,-2.240541 1.03515,-3.326172 z m 65.05469,6.236328 c 0.35317,1.955085 0.59107,3.928194 0.59766,5.919922 -7.1e-4,-2.027119 -0.25585,-3.989861 -0.59766,-5.919922 z m -66.88477,0.828125 c -0.25506,1.677142 -0.51562,3.355799 -0.51562,5.103516 0,13.479948 7.93114,25.040039 19.32031,30.537109 -0.23521,-0.113616 -0.49764,-0.152318 -0.73047,-0.271484 l -0.69531,-0.355469 -0.68945,0.365235 c -0.80153,0.424138 -1.60141,0.843094 -2.40039,1.261718 -10.75424,-6.539886 -17.43107,-18.073452 -17.7461,-30.65625 0.77708,-0.497214 1.55392,-0.993294 2.33789,-1.490234 l 0.6543,-0.414063 0.041,-0.773437 c 0.0596,-1.115735 0.25614,-2.208882 0.42382,-3.306641 z m 67.48438,5.107422 c -0.002,18.792293 -15.2038,33.993951 -33.99609,33.996094 18.75676,-0.0022 33.99394,-15.239325 33.99609,-33.996094 z m -43.09375,32.607422 c 0.52043,0.145441 1.01088,0.357576 1.54102,0.478516 -0.52666,-0.121461 -1.02067,-0.332065 -1.54102,-0.478516 z"
       id="path4608"
       inkscape:connector-curvature="0" />
    <path
       style="opacity:1;fill:#d7f8ff;fill-opacity:1;fill-rule:nonzero;stroke:none;stroke-width:3;stroke-linecap:butt;stroke-linejoin:miter;stroke-miterlimit:4;stroke-dasharray:none;stroke-dashoffset:0;stroke-opacity:1"
       d="M 40 10.5 A 29.5 29.5 0 0 0 39.25 10.537109 L 39.25 12.027344 A 28 28 0 0 1 40 12 A 28 28 0 0 1 40.75 12.037109 L 40.75 10.527344 A 29.5 29.5 0 0 0 40 10.5 z M 44.376953 10.851562 L 44.115234 12.339844 A 28 28 0 0 1 45.597656 12.568359 L 45.853516 11.117188 A 29.5 29.5 0 0 0 44.376953 10.851562 z M 35.625 10.863281 A 29.5 29.5 0 0 0 34.140625 11.087891 L 34.40625 12.595703 A 28 28 0 0 1 35.882812 12.330078 L 35.625 10.863281 z M 30.626953 12.056641 A 29.5 29.5 0 0 0 29.21875 12.570312 L 29.724609 13.958984 A 28 28 0 0 1 31.142578 13.474609 L 30.626953 12.056641 z M 49.371094 12.066406 L 48.861328 13.464844 A 28 28 0 0 1 50.267578 13.978516 L 50.789062 12.548828 A 29.5 29.5 0 0 0 49.371094 12.066406 z M 25.90625 14.087891 A 29.5 29.5 0 0 0 24.623047 14.867188 L 25.367188 16.15625 A 28 28 0 0 1 26.667969 15.408203 L 25.90625 14.087891 z M 54.080078 14.109375 L 53.341797 15.388672 A 28 28 0 0 1 54.628906 16.166016 L 55.382812 14.857422 A 29.5 29.5 0 0 0 54.080078 14.109375 z M 58.380859 16.929688 L 57.400391 18.097656 A 28 28 0 0 1 58.548828 19.058594 L 59.505859 17.917969 A 29.5 29.5 0 0 0 58.380859 16.929688 z M 21.636719 16.949219 A 29.5 29.5 0 0 0 20.488281 17.910156 L 21.457031 19.066406 A 28 28 0 0 1 22.583984 18.078125 L 21.636719 16.949219 z M 62.089844 20.488281 L 60.933594 21.457031 A 28 28 0 0 1 61.921875 22.583984 L 63.050781 21.636719 A 29.5 29.5 0 0 0 62.089844 20.488281 z M 17.917969 20.494141 A 29.5 29.5 0 0 0 16.929688 21.621094 L 18.097656 22.601562 A 28 28 0 0 1 19.058594 21.451172 L 17.917969 20.494141 z M 14.857422 24.617188 A 29.5 29.5 0 0 0 14.109375 25.919922 L 15.388672 26.658203 A 28 28 0 0 1 16.166016 25.373047 L 14.857422 24.617188 z M 65.132812 24.623047 L 63.84375 25.367188 A 28 28 0 0 1 64.591797 26.669922 L 65.912109 25.90625 A 29.5 29.5 0 0 0 65.132812 24.623047 z M 12.548828 29.210938 A 29.5 29.5 0 0 0 12.066406 30.630859 L 13.464844 31.138672 A 28 28 0 0 1 13.978516 29.732422 L 12.548828 29.210938 z M 67.429688 29.21875 L 66.041016 29.724609 A 28 28 0 0 1 66.525391 31.142578 L 67.943359 30.626953 A 29.5 29.5 0 0 0 67.429688 29.21875 z M 68.912109 34.140625 L 67.404297 34.40625 A 28 28 0 0 1 67.669922 35.882812 L 69.136719 35.625 A 29.5 29.5 0 0 0 68.912109 34.140625 z M 11.117188 34.146484 A 29.5 29.5 0 0 0 10.851562 35.623047 L 12.339844 35.884766 A 28 28 0 0 1 12.568359 34.402344 L 11.117188 34.146484 z M 10.527344 39.25 A 29.5 29.5 0 0 0 10.5 40 A 29.5 29.5 0 0 0 10.537109 40.75 L 12.027344 40.75 A 28 28 0 0 1 12 40 A 28 28 0 0 1 12.037109 39.25 L 10.527344 39.25 z M 67.972656 39.25 A 28 28 0 0 1 68 40 A 28 28 0 0 1 67.962891 40.75 L 69.472656 40.75 A 29.5 29.5 0 0 0 69.5 40 A 29.5 29.5 0 0 0 69.462891 39.25 L 67.972656 39.25 z M 67.660156 44.115234 A 28 28 0 0 1 67.431641 45.597656 L 68.882812 45.853516 A 29.5 29.5 0 0 0 69.148438 44.376953 L 67.660156 44.115234 z M 12.330078 44.117188 L 10.863281 44.375 A 29.5 29.5 0 0 0 11.087891 45.859375 L 12.595703 45.59375 A 28 28 0 0 1 12.330078 44.117188 z M 13.474609 48.857422 L 12.056641 49.373047 A 29.5 29.5 0 0 0 12.570312 50.78125 L 13.958984 50.275391 A 28 28 0 0 1 13.474609 48.857422 z M 66.535156 48.861328 A 28 28 0 0 1 66.021484 50.267578 L 67.451172 50.789062 A 29.5 29.5 0 0 0 67.933594 49.369141 L 66.535156 48.861328 z M 15.408203 53.330078 L 14.087891 54.09375 A 29.5 29.5 0 0 0 14.867188 55.376953 L 16.15625 54.632812 A 28 28 0 0 1 15.408203 53.330078 z M 64.611328 53.341797 A 28 28 0 0 1 63.833984 54.626953 L 65.142578 55.382812 A 29.5 29.5 0 0 0 65.890625 54.080078 L 64.611328 53.341797 z M 61.902344 57.398438 A 28 28 0 0 1 60.941406 58.548828 L 62.082031 59.505859 A 29.5 29.5 0 0 0 63.070312 58.378906 L 61.902344 57.398438 z M 18.078125 57.416016 L 16.949219 58.363281 A 29.5 29.5 0 0 0 17.910156 59.511719 L 19.066406 58.542969 A 28 28 0 0 1 18.078125 57.416016 z M 58.542969 60.933594 A 28 28 0 0 1 57.416016 61.921875 L 58.363281 63.050781 A 29.5 29.5 0 0 0 59.511719 62.089844 L 58.542969 60.933594 z M 21.451172 60.941406 L 20.494141 62.082031 A 29.5 29.5 0 0 0 21.619141 63.070312 L 22.599609 61.902344 A 28 28 0 0 1 21.451172 60.941406 z M 25.371094 63.833984 L 24.617188 65.142578 A 29.5 29.5 0 0 0 25.919922 65.890625 L 26.658203 64.611328 A 28 28 0 0 1 25.371094 63.833984 z M 54.632812 63.84375 A 28 28 0 0 1 53.332031 64.591797 L 54.09375 65.912109 A 29.5 29.5 0 0 0 55.376953 65.132812 L 54.632812 63.84375 z M 29.732422 66.021484 L 29.210938 67.451172 A 29.5 29.5 0 0 0 30.628906 67.933594 L 31.138672 66.535156 A 28 28 0 0 1 29.732422 66.021484 z M 50.275391 66.041016 A 28 28 0 0 1 48.857422 66.525391 L 49.373047 67.943359 A 29.5 29.5 0 0 0 50.78125 67.429688 L 50.275391 66.041016 z M 45.59375 67.404297 A 28 28 0 0 1 44.117188 67.669922 L 44.375 69.136719 A 29.5 29.5 0 0 0 45.859375 68.912109 L 45.59375 67.404297 z M 34.402344 67.431641 L 34.146484 68.882812 A 29.5 29.5 0 0 0 35.623047 69.148438 L 35.884766 67.660156 A 28 28 0 0 1 34.402344 67.431641 z M 39.25 67.962891 L 39.25 69.472656 A 29.5 29.5 0 0 0 40 69.5 A 29.5 29.5 0 0 0 40.75 69.462891 L 40.75 67.972656 A 28 28 0 0 1 40 68 A 28 28 0 0 1 39.25 67.962891 z "
       transform="translate(268.26845,-100.48386)"
       id="circle4634" />
    <path
       id="path4681"
       transform="translate(268.26845,-100.48386)"
       d="M 33.933594 2.0019531 A 38.5 38.5 0 0 0 10.162109 15.710938 A 90 15 60 0 0 11.646484 18.710938 A 35.5 35.5 0 0 0 4.59375 38.123047 A 20 120 60 0 0 1.5039062 40.09375 A 38.5 38.5 0 0 0 20.714844 73.279297 A 20 120 60 0 0 23.90625 71.601562 A 35.5 35.5 0 0 0 40 75.5 A 35.5 35.5 0 0 0 75.5 40 A 35.5 35.5 0 0 0 73.976562 29.8125 A 10 60 60 0 0 76.5 27.904297 A 38.5 38.5 0 0 0 68.734375 14.449219 A 10 60 60 0 0 65.833984 15.685547 A 35.5 35.5 0 0 0 40 4.5 A 35.5 35.5 0 0 0 35.791016 4.7949219 A 90 15 60 0 0 33.933594 2.0019531 z M 40 7.5 A 32.5 32.5 0 0 1 72.5 40 A 32.5 32.5 0 0 1 40 72.5 A 32.5 32.5 0 0 1 7.5 40 A 32.5 32.5 0 0 1 40 7.5 z "
       style="opacity:1;fill:#a2e1ee;fill-opacity:1;fill-rule:nonzero;stroke:none;stroke-width:3;stroke-linecap:butt;stroke-linejoin:miter;stroke-miterlimit:4;stroke-dasharray:none;stroke-dashoffset:0;stroke-opacity:1" />
  </g>
</svg>
